<svg width="124" height="103" viewBox="0 0 124 103" fill="none" xmlns="http://www.w3.org/2000/svg">
<path d="M37 10C25.25 10 15 18 12.15 29.4L12 30C18.4 23.6 27.1 20 36.15 20H37V30L52 15L37 0V10Z" fill="black"/>
<path d="M116.877 0H70.9569C67.1312 0 64 3.12826 64 6.95691V96.0401C64 99.8688 67.1312 103 70.9569 103H116.877C120.703 103 123.834 99.8747 123.834 96.0431V6.95691C123.834 3.12826 120.703 0 116.877 0ZM86.5717 5.01463H101.262C101.727 5.01463 102.104 5.39131 102.104 5.85923C102.104 6.3242 101.727 6.70089 101.262 6.70089H86.5717C86.1067 6.70089 85.7301 6.3242 85.7301 5.85923C85.7301 5.39131 86.1067 5.01463 86.5717 5.01463ZM93.9171 99.5215C91.9954 99.5215 90.4386 97.9648 90.4386 96.0401C90.4386 94.1155 91.9954 92.5617 93.9171 92.5617C95.8388 92.5617 97.3955 94.1155 97.3955 96.0401C97.3955 97.9648 95.8388 99.5215 93.9171 99.5215ZM118.993 90.125H68.841V11.0328H118.993V90.125Z" fill="black"/>
<path d="M-2.31134e-06 49.9569L-3.04096e-07 95.8773C-1.36869e-07 99.703 3.12826 102.834 6.95691 102.834L96.0401 102.834C99.8688 102.834 103 99.703 103 95.8772L103 49.9569C103 46.1312 99.8747 43 96.0431 43L6.95691 43C3.12825 43 -2.47857e-06 46.1312 -2.31134e-06 49.9569ZM5.01463 80.2625L5.01463 65.5717C5.01463 65.1067 5.39131 64.73 5.85923 64.73C6.3242 64.73 6.70088 65.1067 6.70088 65.5717L6.70088 80.2625C6.70088 80.7274 6.3242 81.1041 5.85923 81.1041C5.39131 81.1041 5.01463 80.7274 5.01463 80.2625ZM99.5215 72.9171C99.5215 74.8388 97.9648 76.3955 96.0401 76.3955C94.1155 76.3955 92.5617 74.8388 92.5617 72.9171C92.5617 70.9954 94.1155 69.4386 96.0401 69.4386C97.9648 69.4386 99.5215 70.9954 99.5215 72.9171ZM90.125 47.841L90.125 97.9932L11.0328 97.9932L11.0328 47.841L90.125 47.841Z" fill="black" fill-opacity="0.35"/>
</svg>
