<svg xmlns="http://www.w3.org/2000/svg" fill="none" viewBox="0 0 36 29"><defs/><path fill="#000" d="M19.8 15.85h-.9V11c0-.25-.2-.44-.45-.44h-.76c-.27 0-.53.07-.75.22l-.86.56a.45.45 0 00-.2.28.43.43 0 00.07.33l.5.73a.45.45 0 00.29.19.46.46 0 00.33-.07l.03-.01v3.05h-.9c-.25 0-.45.2-.45.44v.88c0 .24.2.44.45.44h3.6c.25 0 .45-.2.45-.44v-.88c0-.25-.2-.44-.45-.44zM34.2 3.52H1.8c-1 0-1.8.79-1.8 1.76V22.9c0 .97.8 1.76 1.8 1.76h32.4c1 0 1.8-.79 1.8-1.76V5.3c0-.98-.8-1.77-1.8-1.77zM2.7 22.02v-3.53c1.99 0 3.6 1.58 3.6 3.52H2.7zm0-12.34V6.16h3.6a3.56 3.56 0 01-3.6 3.52zM18 20.25c-2.98 0-5.4-2.76-5.4-6.16 0-3.4 2.42-6.17 5.4-6.17 2.98 0 5.4 2.76 5.4 6.17 0 3.4-2.42 6.16-5.4 6.16zm15.3 1.76h-3.6a3.56 3.56 0 013.6-3.52V22zm0-12.33a3.56 3.56 0 01-3.6-3.52h3.6v3.52z"/></svg>