<svg width="36" height="29" viewBox="0 0 36 29" fill="none" xmlns="http://www.w3.org/2000/svg">
<g clip-path="url(#clip0)">
<path d="M12.0105 25.5977C11.2294 24.6939 10.7997 23.5392 10.8 22.3447V20.7309C10.7986 19.8771 11.0154 19.037 11.4297 18.2904C11.8441 17.5438 12.4422 16.9155 13.1676 16.4649L13.5922 15.3H12.375C12.196 15.3 12.0243 15.2289 11.8977 15.1023C11.7711 14.9757 11.7 14.804 11.7 14.625V12.375C11.7 12.196 11.7711 12.0243 11.8977 11.8977C12.0243 11.7711 12.196 11.7 12.375 11.7H14.625C14.7289 11.7013 14.8311 11.7271 14.9232 11.7752C15.0153 11.8232 15.0949 11.8923 15.1554 11.9767C16.2822 10.4671 17.9441 9.44583 19.8 9.12262V1.8C19.8 1.32261 19.6104 0.864773 19.2728 0.527208C18.9352 0.189642 18.4774 0 18 0L1.8 0C1.32261 0 0.864773 0.189642 0.527208 0.527208C0.189642 0.864773 0 1.32261 0 1.8L0 27.9C0 28.1387 0.0948212 28.3676 0.263604 28.5364C0.432387 28.7052 0.661305 28.8 0.9 28.8H12.4346C12.1601 28.3062 12.0142 27.7512 12.0105 27.1862V25.5977ZM11.7 5.175C11.7 4.99598 11.7711 4.82429 11.8977 4.6977C12.0243 4.57112 12.196 4.5 12.375 4.5H14.625C14.804 4.5 14.9757 4.57112 15.1023 4.6977C15.2289 4.82429 15.3 4.99598 15.3 5.175V7.425C15.3 7.60402 15.2289 7.77571 15.1023 7.9023C14.9757 8.02888 14.804 8.1 14.625 8.1H12.375C12.196 8.1 12.0243 8.02888 11.8977 7.9023C11.7711 7.77571 11.7 7.60402 11.7 7.425V5.175ZM8.1 21.825C8.1 22.004 8.02888 22.1757 7.9023 22.3023C7.77571 22.4289 7.60402 22.5 7.425 22.5H5.175C4.99598 22.5 4.82429 22.4289 4.6977 22.3023C4.57112 22.1757 4.5 22.004 4.5 21.825V19.575C4.5 19.396 4.57112 19.2243 4.6977 19.0977C4.82429 18.9711 4.99598 18.9 5.175 18.9H7.425C7.60402 18.9 7.77571 18.9711 7.9023 19.0977C8.02888 19.2243 8.1 19.396 8.1 19.575V21.825ZM8.1 14.625C8.1 14.804 8.02888 14.9757 7.9023 15.1023C7.77571 15.2289 7.60402 15.3 7.425 15.3H5.175C4.99598 15.3 4.82429 15.2289 4.6977 15.1023C4.57112 14.9757 4.5 14.804 4.5 14.625V12.375C4.5 12.196 4.57112 12.0243 4.6977 11.8977C4.82429 11.7711 4.99598 11.7 5.175 11.7H7.425C7.60402 11.7 7.77571 11.7711 7.9023 11.8977C8.02888 12.0243 8.1 12.196 8.1 12.375V14.625ZM8.1 7.425C8.1 7.60402 8.02888 7.77571 7.9023 7.9023C7.77571 8.02888 7.60402 8.1 7.425 8.1H5.175C4.99598 8.1 4.82429 8.02888 4.6977 7.9023C4.57112 7.77571 4.5 7.60402 4.5 7.425V5.175C4.5 4.99598 4.57112 4.82429 4.6977 4.6977C4.82429 4.57112 4.99598 4.5 5.175 4.5H7.425C7.60402 4.5 7.77571 4.57112 7.9023 4.6977C8.02888 4.82429 8.1 4.99598 8.1 5.175V7.425ZM34.0076 17.7502L33.75 17.1112L32.7448 14.3505C32.3289 13.3005 31.6062 12.4001 30.6711 11.7668C29.736 11.1335 28.6317 10.7966 27.5023 10.8H21.0977C19.9679 10.7963 18.8633 11.133 17.9277 11.7664C16.9922 12.3997 16.2692 13.3002 15.8529 14.3505L14.85 17.1112L14.5941 17.7497C14.0045 17.9941 13.5007 18.4078 13.1461 18.9384C12.7915 19.469 12.602 20.0928 12.6017 20.7309V22.3447C12.603 22.8257 12.7124 23.3002 12.922 23.7331C13.1315 24.166 13.4358 24.5463 13.8122 24.8456V27.1862C13.8122 27.6139 13.982 28.0241 14.2843 28.3267C14.5865 28.6293 14.9966 28.7996 15.4243 28.8H17.0381C17.466 28.7999 17.8764 28.6298 18.1789 28.3271C18.4814 28.0245 18.6514 27.6141 18.6514 27.1862V25.2H29.9481V27.1862C29.9482 27.6142 30.1183 28.0245 30.4209 28.3272C30.7235 28.6298 31.1339 28.7999 31.5619 28.8H33.1757C33.6036 28.7999 34.014 28.6298 34.3167 28.3272C34.6193 28.0245 34.7893 27.6142 34.7895 27.1862V24.8456C35.1659 24.5463 35.4702 24.166 35.6797 23.7331C35.8893 23.3002 35.9987 22.8257 36 22.3447V20.7309C35.9997 20.0928 35.8103 19.4691 35.4556 18.9386C35.101 18.4081 34.5971 17.9945 34.0076 17.7502ZM18.8499 15.975C19.2172 15.0232 20.1077 14.4 21.0999 14.4H27.5023C28.4923 14.4 29.3822 15.0244 29.7523 15.975L30.4312 18H18.1687L18.8499 15.975ZM16.875 22.9416C16.065 22.9416 15.525 22.4032 15.525 21.5955C15.525 20.7878 16.065 20.25 16.875 20.25C17.685 20.25 18.9 21.4611 18.9 22.2688C18.9 23.0766 17.685 22.9416 16.875 22.9416ZM31.725 22.9416C30.915 22.9416 29.7 23.076 29.7 22.2666C29.7 21.4571 30.915 20.25 31.725 20.25C32.535 20.25 33.075 20.7883 33.075 21.5955C33.075 22.4027 32.535 22.9416 31.725 22.9416Z" fill="black"/>
</g>
<defs>
<clipPath id="clip0">
<rect width="36" height="28.8" fill="white"/>
</clipPath>
</defs>
</svg>
