<svg width="27" height="36" viewBox="0 0 27 36" fill="none" xmlns="http://www.w3.org/2000/svg">
<path d="M26.5078 7.38281L19.6242 0.492188C19.3078 0.175781 18.8789 0 18.4289 0H18V9H27V8.57109C27 8.12813 26.8242 7.69922 26.5078 7.38281ZM15.75 9.5625V0H1.6875C0.752344 0 0 0.752344 0 1.6875V34.3125C0 35.2477 0.752344 36 1.6875 36H25.3125C26.2477 36 27 35.2477 27 34.3125V11.25H17.4375C16.5094 11.25 15.75 10.4906 15.75 9.5625ZM4.5 5.0625C4.5 4.75172 4.75172 4.5 5.0625 4.5H10.6875C10.9983 4.5 11.25 4.75172 11.25 5.0625V6.1875C11.25 6.49828 10.9983 6.75 10.6875 6.75H5.0625C4.75172 6.75 4.5 6.49828 4.5 6.1875V5.0625ZM4.5 10.6875V9.5625C4.5 9.25172 4.75172 9 5.0625 9H10.6875C10.9983 9 11.25 9.25172 11.25 9.5625V10.6875C11.25 10.9983 10.9983 11.25 10.6875 11.25H5.0625C4.75172 11.25 4.5 10.9983 4.5 10.6875ZM14.625 29.2416V30.9375C14.625 31.2483 14.3733 31.5 14.0625 31.5H12.9375C12.6267 31.5 12.375 31.2483 12.375 30.9375V29.2296C11.5812 29.1888 10.8091 28.9118 10.1693 28.4316C9.89508 28.2255 9.88102 27.8149 10.1292 27.578L10.9554 26.7898C11.1502 26.6041 11.4398 26.5957 11.6677 26.7384C11.9398 26.9086 12.2484 27 12.5691 27H14.5455C15.0026 27 15.3752 26.5837 15.3752 26.0726C15.3752 25.6542 15.1214 25.2858 14.7586 25.1775L11.5945 24.2283C10.2874 23.8359 9.37406 22.5816 9.37406 21.1774C9.37406 19.4534 10.7135 18.0527 12.3743 18.0084V16.3125C12.3743 16.0017 12.626 15.75 12.9368 15.75H14.0618C14.3726 15.75 14.6243 16.0017 14.6243 16.3125V18.0204C15.4181 18.0612 16.1902 18.3375 16.83 18.8184C17.1042 19.0245 17.1183 19.4351 16.8701 19.672L16.0439 20.4602C15.8491 20.6459 15.5595 20.6543 15.3316 20.5116C15.0595 20.3407 14.7509 20.25 14.4302 20.25H12.4537C11.9967 20.25 11.6241 20.6663 11.6241 21.1774C11.6241 21.5958 11.8779 21.9642 12.2407 22.0725L15.4048 23.0217C16.7119 23.4141 17.6252 24.6684 17.6252 26.0726C17.6252 27.7973 16.2858 29.1973 14.625 29.2416Z" fill="black"/>
</svg>
