<svg width="36" height="36" viewBox="0 0 36 36" fill="none" xmlns="http://www.w3.org/2000/svg">
<path d="M29.25 22.5H22.5C21.2625 22.5 20.25 21.4875 20.25 20.25C20.25 19.0125 21.2625 18 22.5 18H29.25C29.25 18 36 10.4766 36 6.75C36 3.02344 32.9766 0 29.25 0C25.5234 0 22.5 3.02344 22.5 6.75C22.5 8.54297 24.0609 11.2078 25.6852 13.5H22.5C18.7805 13.5 15.75 16.5305 15.75 20.25C15.75 23.9695 18.7805 27 22.5 27H29.25C30.4875 27 31.5 28.0125 31.5 29.25C31.5 30.4875 30.4875 31.5 29.25 31.5H13.043C11.918 33.2438 10.6664 34.8539 9.71719 36H29.25C32.9695 36 36 32.9695 36 29.25C36 25.5305 32.9695 22.5 29.25 22.5ZM29.25 4.5C30.4945 4.5 31.5 5.50547 31.5 6.75C31.5 7.99453 30.4945 9 29.25 9C28.0055 9 27 7.99453 27 6.75C27 5.50547 28.0055 4.5 29.25 4.5ZM6.75 18C3.02344 18 0 21.0234 0 24.75C0 28.4766 6.75 36 6.75 36C6.75 36 13.5 28.4766 13.5 24.75C13.5 21.0234 10.4766 18 6.75 18ZM6.75 27C5.50547 27 4.5 25.9945 4.5 24.75C4.5 23.5055 5.50547 22.5 6.75 22.5C7.99453 22.5 9 23.5055 9 24.75C9 25.9945 7.99453 27 6.75 27Z" fill="black"/>
</svg>
