<svg width="364" height="218" viewBox="0 0 364 218" fill="none" xmlns="http://www.w3.org/2000/svg">
<g filter="url(#filter0_dd)">
<rect x="21" y="21" width="323" height="177" rx="8" fill="white"/>
<rect x="21.25" y="21.25" width="322.5" height="176.5" rx="7.75" stroke="url(#paint0_linear)" stroke-width="0.5"/>
</g>
<circle cx="221" cy="110" r="5" fill="#B6D7F4"/>
<circle cx="221" cy="90" r="5" fill="#276DF6"/>
<circle cx="221" cy="130" r="5" fill="#FF80DF"/>
<path d="M241.96 85.6H243.1V92.968H246.952V94H241.96V85.6ZM248.641 93.736L246.193 88.12H247.393L249.229 92.488L250.885 88.12H252.085L248.485 96.904H247.285L248.641 93.736ZM253.308 88.96H252.288L252.432 88.12H253.308V86.728C253.308 86.192 253.448 85.772 253.728 85.468C254.016 85.156 254.428 85 254.964 85C255.316 85 255.628 85.052 255.9 85.156L255.732 86.068C255.54 85.996 255.34 85.96 255.132 85.96C254.636 85.96 254.388 86.24 254.388 86.8V88.12H255.972V88.96H254.388V94H253.308V88.96ZM258.901 94.12C258.381 94.12 257.993 93.984 257.737 93.712C257.489 93.44 257.365 93.108 257.365 92.716V88.96H256.357L256.453 88.12H257.365V86.668L258.445 86.56V88.12H259.993V88.96H258.445V92.056C258.445 92.464 258.469 92.744 258.517 92.896C258.565 93.048 258.665 93.148 258.817 93.196C258.977 93.236 259.265 93.256 259.681 93.256H259.957L259.873 94.12H258.901ZM265.783 89.764L262.975 85.6H264.295L266.443 88.78L268.579 85.6H269.899L267.103 89.764L269.947 94H268.627L266.443 90.748L264.247 94H262.927L265.783 89.764ZM270.952 85.6H272.092V92.968H275.944V94H270.952V85.6Z" fill="black"/>
<path d="M241.96 105.6H243.1V112.968H246.952V114H241.96V105.6ZM248.641 113.736L246.193 108.12H247.393L249.229 112.488L250.885 108.12H252.085L248.485 116.904H247.285L248.641 113.736ZM253.308 108.96H252.288L252.432 108.12H253.308V106.728C253.308 106.192 253.448 105.772 253.728 105.468C254.016 105.156 254.428 105 254.964 105C255.316 105 255.628 105.052 255.9 105.156L255.732 106.068C255.54 105.996 255.34 105.96 255.132 105.96C254.636 105.96 254.388 106.24 254.388 106.8V108.12H255.972V108.96H254.388V114H253.308V108.96ZM258.901 114.12C258.381 114.12 257.993 113.984 257.737 113.712C257.489 113.44 257.365 113.108 257.365 112.716V108.96H256.357L256.453 108.12H257.365V106.668L258.445 106.56V108.12H259.993V108.96H258.445V112.056C258.445 112.464 258.469 112.744 258.517 112.896C258.565 113.048 258.665 113.148 258.817 113.196C258.977 113.236 259.265 113.256 259.681 113.256H259.957L259.873 114.12H258.901Z" fill="black"/>
<path d="M241.048 125.6H242.248L244.024 132.524L246.076 125.768H247.276L249.328 132.524L251.104 125.6H252.304L249.928 134H248.716L246.676 127.244L244.636 134H243.424L241.048 125.6ZM253.975 134.12C253.431 134.12 252.991 133.96 252.655 133.64C252.327 133.32 252.163 132.912 252.163 132.416C252.163 131.672 252.515 131.14 253.219 130.82C253.923 130.5 254.743 130.332 255.679 130.316C255.679 129.788 255.575 129.432 255.367 129.248C255.167 129.056 254.843 128.96 254.395 128.96C254.147 128.96 253.899 129 253.651 129.08C253.403 129.152 253.135 129.288 252.847 129.488L252.691 128.612C252.931 128.428 253.227 128.28 253.579 128.168C253.931 128.056 254.299 128 254.683 128C255.187 128 255.587 128.088 255.883 128.264C256.187 128.44 256.407 128.732 256.543 129.14C256.687 129.548 256.759 130.108 256.759 130.82V132.02C256.759 132.34 256.771 132.584 256.795 132.752C256.827 132.912 256.891 133.036 256.987 133.124C257.083 133.212 257.231 133.256 257.431 133.256H257.539L257.371 134.12H257.287C256.951 134.12 256.687 134.088 256.495 134.024C256.303 133.96 256.155 133.868 256.051 133.748C255.955 133.628 255.863 133.464 255.775 133.256C255.279 133.832 254.679 134.12 253.975 134.12ZM254.179 133.256C254.467 133.256 254.743 133.184 255.007 133.04C255.279 132.896 255.503 132.704 255.679 132.464V131.06C254.815 131.092 254.195 131.208 253.819 131.408C253.451 131.6 253.267 131.916 253.267 132.356C253.267 132.66 253.347 132.888 253.507 133.04C253.675 133.184 253.899 133.256 254.179 133.256ZM258.373 125.6H259.453V126.8H258.373V125.6ZM258.373 128.12H259.453V134H258.373V128.12ZM262.944 134.12C262.424 134.12 262.036 133.984 261.78 133.712C261.532 133.44 261.408 133.108 261.408 132.716V128.96H260.4L260.496 128.12H261.408V126.668L262.488 126.56V128.12H264.036V128.96H262.488V132.056C262.488 132.464 262.512 132.744 262.56 132.896C262.608 133.048 262.708 133.148 262.86 133.196C263.02 133.236 263.308 133.256 263.724 133.256H264L263.916 134.12H262.944ZM270.03 134.276C269.486 134.276 269.01 134.18 268.602 133.988C268.194 133.788 267.882 133.52 267.666 133.184C267.458 132.848 267.354 132.472 267.354 132.056C267.354 131.584 267.474 131.152 267.714 130.76C267.954 130.368 268.338 129.984 268.866 129.608C268.538 129.208 268.306 128.844 268.17 128.516C268.034 128.18 267.966 127.864 267.966 127.568C267.966 127.16 268.062 126.804 268.254 126.5C268.446 126.196 268.702 125.964 269.022 125.804C269.35 125.644 269.71 125.564 270.102 125.564C270.758 125.564 271.25 125.716 271.578 126.02C271.914 126.324 272.082 126.724 272.082 127.22C272.082 127.692 271.91 128.112 271.566 128.48C271.222 128.848 270.718 129.264 270.054 129.728L272.334 132.068C272.486 131.884 272.594 131.564 272.658 131.108C272.73 130.652 272.778 130.212 272.802 129.788H273.774C273.734 131.036 273.474 132.04 272.994 132.8L274.038 134H272.934L272.406 133.448C272.038 133.752 271.67 133.964 271.302 134.084C270.942 134.212 270.518 134.276 270.03 134.276ZM269.598 129.128C270.158 128.736 270.55 128.416 270.774 128.168C270.998 127.92 271.11 127.628 271.11 127.292C271.11 127.004 271.018 126.784 270.834 126.632C270.65 126.472 270.402 126.392 270.09 126.392C269.77 126.392 269.498 126.496 269.274 126.704C269.05 126.912 268.938 127.208 268.938 127.592C268.938 128.08 269.158 128.592 269.598 129.128ZM270.054 133.46C270.822 133.46 271.426 133.22 271.866 132.74L269.37 130.244C269.074 130.452 268.838 130.708 268.662 131.012C268.486 131.308 268.398 131.628 268.398 131.972C268.398 132.404 268.538 132.76 268.818 133.04C269.098 133.32 269.51 133.46 270.054 133.46ZM280.313 134.168C279.817 134.168 279.313 134.112 278.801 134C278.289 133.896 277.877 133.772 277.565 133.628L277.721 132.416C278.121 132.608 278.573 132.776 279.077 132.92C279.581 133.064 280.081 133.136 280.577 133.136C281.137 133.136 281.569 133.036 281.873 132.836C282.185 132.628 282.341 132.32 282.341 131.912C282.341 131.608 282.261 131.356 282.101 131.156C281.949 130.948 281.721 130.776 281.417 130.64C281.121 130.496 280.705 130.344 280.169 130.184C279.625 130.024 279.173 129.852 278.813 129.668C278.453 129.484 278.161 129.232 277.937 128.912C277.721 128.592 277.613 128.188 277.613 127.7C277.613 127.02 277.873 126.472 278.393 126.056C278.921 125.64 279.661 125.432 280.613 125.432C281.125 125.432 281.609 125.488 282.065 125.6C282.529 125.712 282.933 125.848 283.277 126.008L283.157 127.22C282.709 126.956 282.277 126.764 281.861 126.644C281.445 126.524 281.013 126.464 280.565 126.464C280.045 126.464 279.629 126.56 279.317 126.752C279.013 126.944 278.861 127.24 278.861 127.64C278.861 127.912 278.929 128.136 279.065 128.312C279.209 128.488 279.413 128.64 279.677 128.768C279.941 128.888 280.309 129.02 280.781 129.164C281.725 129.452 282.429 129.796 282.893 130.196C283.357 130.588 283.589 131.132 283.589 131.828C283.589 132.564 283.313 133.14 282.761 133.556C282.209 133.964 281.393 134.168 280.313 134.168ZM286.061 134.12C285.517 134.12 285.077 133.96 284.741 133.64C284.413 133.32 284.249 132.912 284.249 132.416C284.249 131.672 284.601 131.14 285.305 130.82C286.009 130.5 286.829 130.332 287.765 130.316C287.765 129.788 287.661 129.432 287.453 129.248C287.253 129.056 286.929 128.96 286.481 128.96C286.233 128.96 285.985 129 285.737 129.08C285.489 129.152 285.221 129.288 284.933 129.488L284.777 128.612C285.017 128.428 285.313 128.28 285.665 128.168C286.017 128.056 286.385 128 286.769 128C287.273 128 287.673 128.088 287.969 128.264C288.273 128.44 288.493 128.732 288.629 129.14C288.773 129.548 288.845 130.108 288.845 130.82V132.02C288.845 132.34 288.857 132.584 288.881 132.752C288.913 132.912 288.977 133.036 289.073 133.124C289.169 133.212 289.317 133.256 289.517 133.256H289.625L289.457 134.12H289.373C289.037 134.12 288.773 134.088 288.581 134.024C288.389 133.96 288.241 133.868 288.137 133.748C288.041 133.628 287.949 133.464 287.861 133.256C287.365 133.832 286.765 134.12 286.061 134.12ZM286.265 133.256C286.553 133.256 286.829 133.184 287.093 133.04C287.365 132.896 287.589 132.704 287.765 132.464V131.06C286.901 131.092 286.281 131.208 285.905 131.408C285.537 131.6 285.353 131.916 285.353 132.356C285.353 132.66 285.433 132.888 285.593 133.04C285.761 133.184 285.985 133.256 286.265 133.256ZM289.624 128.12H290.824L292.468 132.812L294.1 128.12H295.312L293.08 134H291.868L289.624 128.12ZM298.868 134.12C298.196 134.12 297.62 133.984 297.14 133.712C296.668 133.432 296.308 133.056 296.06 132.584C295.812 132.112 295.688 131.588 295.688 131.012C295.688 130.46 295.8 129.956 296.024 129.5C296.256 129.036 296.588 128.672 297.02 128.408C297.46 128.136 297.976 128 298.568 128C299.32 128 299.928 128.22 300.392 128.66C300.864 129.1 301.1 129.708 301.1 130.484C301.1 130.684 301.084 130.876 301.052 131.06H296.792C296.864 131.82 297.096 132.36 297.488 132.68C297.88 133 298.384 133.16 299 133.16C299.616 133.16 300.18 133.044 300.692 132.812L300.836 133.664C300.156 133.968 299.5 134.12 298.868 134.12ZM299.984 130.316C299.984 129.892 299.864 129.56 299.624 129.32C299.384 129.08 299.024 128.96 298.544 128.96C298.08 128.96 297.716 129.076 297.452 129.308C297.188 129.532 297 129.868 296.888 130.316H299.984Z" fill="black"/>
<g filter="url(#filter1_d)">
<mask id="mask0" mask-type="alpha" maskUnits="userSpaceOnUse" x="61" y="46" width="128" height="128">
<rect x="61.5" y="46.5" width="126.22" height="126.22" rx="63.11" fill="#C4C4C4" stroke="black"/>
</mask>
<g mask="url(#mask0)">
<rect x="-8.54688" y="46" width="234.085" height="154.36"/>
</g>
</g>
<path d="M188.224 109.614C188.224 121.006 185.165 132.189 179.366 141.995C173.567 151.8 165.241 159.868 155.258 165.356C145.276 170.845 134.002 173.551 122.616 173.193C111.229 172.835 100.148 169.426 90.5297 163.322C80.9111 157.218 73.1084 148.643 67.9365 138.493C62.7647 128.343 60.4136 116.99 61.1289 105.62C61.8442 94.2507 65.5997 83.282 72.0029 73.86C78.4061 64.4379 87.2221 56.9083 97.5298 52.0579L124.614 109.614H188.224Z" fill="#276DF6"/>
<path d="M113.368 136.264C113.987 136.264 114.547 136.408 115.048 136.696C115.549 136.984 115.939 137.384 116.216 137.896C116.504 138.408 116.648 138.989 116.648 139.64C116.648 140.344 116.499 140.968 116.2 141.512C115.901 142.056 115.475 142.477 114.92 142.776C114.365 143.075 113.715 143.224 112.968 143.224C112.2 143.224 111.523 143.053 110.936 142.712C110.349 142.36 109.896 141.869 109.576 141.24C109.256 140.611 109.096 139.88 109.096 139.048C109.096 137.917 109.352 136.856 109.864 135.864C110.376 134.872 111.021 134.013 111.8 133.288C112.589 132.563 113.395 131.992 114.216 131.576L115.64 132.696C114.861 133.08 114.051 133.635 113.208 134.36C112.365 135.075 111.747 135.891 111.352 136.808C111.907 136.445 112.579 136.264 113.368 136.264ZM113 141.528C113.512 141.528 113.939 141.357 114.28 141.016C114.621 140.664 114.792 140.232 114.792 139.72C114.792 139.219 114.621 138.803 114.28 138.472C113.939 138.131 113.512 137.96 113 137.96C112.477 137.96 112.045 138.131 111.704 138.472C111.373 138.803 111.208 139.219 111.208 139.72C111.208 140.232 111.379 140.664 111.72 141.016C112.061 141.357 112.488 141.528 113 141.528ZM124.385 136.904C124.918 137.192 125.334 137.587 125.633 138.088C125.931 138.589 126.081 139.155 126.081 139.784C126.081 140.456 125.921 141.053 125.601 141.576C125.281 142.099 124.822 142.504 124.225 142.792C123.627 143.08 122.934 143.224 122.145 143.224C121.345 143.224 120.646 143.08 120.049 142.792C119.462 142.504 119.009 142.099 118.689 141.576C118.369 141.053 118.209 140.456 118.209 139.784C118.209 139.144 118.358 138.579 118.657 138.088C118.966 137.587 119.393 137.192 119.937 136.904C119.553 136.637 119.254 136.307 119.041 135.912C118.827 135.507 118.721 135.069 118.721 134.6C118.721 134.077 118.843 133.587 119.089 133.128C119.334 132.669 119.713 132.296 120.225 132.008C120.737 131.72 121.377 131.576 122.145 131.576C122.913 131.576 123.547 131.72 124.049 132.008C124.55 132.296 124.918 132.669 125.153 133.128C125.387 133.587 125.505 134.077 125.505 134.6C125.505 135.08 125.409 135.517 125.217 135.912C125.025 136.307 124.747 136.637 124.385 136.904ZM122.145 133.176C121.633 133.176 121.233 133.309 120.945 133.576C120.657 133.832 120.513 134.179 120.513 134.616C120.513 135.032 120.657 135.379 120.945 135.656C121.243 135.933 121.643 136.072 122.145 136.072C122.646 136.072 123.03 135.933 123.297 135.656C123.574 135.379 123.713 135.032 123.713 134.616C123.713 134.179 123.574 133.832 123.297 133.576C123.03 133.309 122.646 133.176 122.145 133.176ZM122.145 141.464C122.785 141.464 123.286 141.304 123.649 140.984C124.011 140.653 124.193 140.211 124.193 139.656C124.193 139.133 124.006 138.707 123.633 138.376C123.27 138.045 122.774 137.88 122.145 137.88C121.515 137.88 121.014 138.045 120.641 138.376C120.278 138.707 120.097 139.133 120.097 139.656C120.097 140.211 120.278 140.653 120.641 140.984C121.003 141.304 121.505 141.464 122.145 141.464ZM130.441 137.976C129.587 137.976 128.915 137.677 128.425 137.08C127.945 136.483 127.705 135.699 127.705 134.728C127.705 133.779 127.955 133.016 128.457 132.44C128.958 131.864 129.619 131.576 130.441 131.576C131.262 131.576 131.923 131.864 132.425 132.44C132.926 133.016 133.177 133.779 133.177 134.728C133.177 135.688 132.931 136.472 132.441 137.08C131.95 137.677 131.283 137.976 130.441 137.976ZM130.441 136.584C130.793 136.584 131.065 136.424 131.257 136.104C131.449 135.773 131.545 135.315 131.545 134.728C131.545 134.152 131.443 133.715 131.241 133.416C131.049 133.117 130.782 132.968 130.441 132.968C130.099 132.968 129.827 133.117 129.625 133.416C129.433 133.715 129.337 134.152 129.337 134.728C129.337 135.965 129.705 136.584 130.441 136.584ZM136.841 131.8H138.425L131.833 143H130.233L136.841 131.8ZM138.201 143.224C137.347 143.224 136.675 142.925 136.185 142.328C135.705 141.731 135.465 140.947 135.465 139.976C135.465 139.027 135.715 138.264 136.217 137.688C136.718 137.112 137.379 136.824 138.201 136.824C139.022 136.824 139.683 137.112 140.185 137.688C140.686 138.264 140.937 139.027 140.937 139.976C140.937 140.936 140.691 141.72 140.201 142.328C139.71 142.925 139.043 143.224 138.201 143.224ZM138.201 141.832C138.553 141.832 138.825 141.672 139.017 141.352C139.209 141.021 139.305 140.563 139.305 139.976C139.305 139.4 139.203 138.963 139.001 138.664C138.809 138.365 138.542 138.216 138.201 138.216C137.859 138.216 137.587 138.365 137.385 138.664C137.193 138.963 137.097 139.4 137.097 139.976C137.097 141.213 137.465 141.832 138.201 141.832Z" fill="white"/>
<path d="M151.599 52.0115C162.538 57.136 171.791 65.269 178.276 75.4593C184.762 85.6497 188.212 97.4761 188.224 109.555L124.613 109.614L151.599 52.0115Z" fill="#B6D7F4"/>
<path d="M97.6069 52.0212C106.057 48.0589 115.274 46.0044 124.607 46.0034C133.939 46.0024 143.158 48.0549 151.608 52.0153L124.614 109.614L97.6069 52.0212Z" fill="#FF80DF"/>
<path d="M149.378 85.772C149.042 85.996 148.69 86.14 148.322 86.204L148.19 84.908C148.454 84.852 148.75 84.692 149.078 84.428C149.406 84.156 149.626 83.88 149.738 83.6H150.914V92H149.378V85.772ZM157.384 87.428C157.784 87.644 158.096 87.94 158.32 88.316C158.544 88.692 158.656 89.116 158.656 89.588C158.656 90.092 158.536 90.54 158.296 90.932C158.056 91.324 157.712 91.628 157.264 91.844C156.816 92.06 156.296 92.168 155.704 92.168C155.104 92.168 154.58 92.06 154.132 91.844C153.692 91.628 153.352 91.324 153.112 90.932C152.872 90.54 152.752 90.092 152.752 89.588C152.752 89.108 152.864 88.684 153.088 88.316C153.32 87.94 153.64 87.644 154.048 87.428C153.76 87.228 153.536 86.98 153.376 86.684C153.216 86.38 153.136 86.052 153.136 85.7C153.136 85.308 153.228 84.94 153.412 84.596C153.596 84.252 153.88 83.972 154.264 83.756C154.648 83.54 155.128 83.432 155.704 83.432C156.28 83.432 156.756 83.54 157.132 83.756C157.508 83.972 157.784 84.252 157.96 84.596C158.136 84.94 158.224 85.308 158.224 85.7C158.224 86.06 158.152 86.388 158.008 86.684C157.864 86.98 157.656 87.228 157.384 87.428ZM155.704 84.632C155.32 84.632 155.02 84.732 154.804 84.932C154.588 85.124 154.48 85.384 154.48 85.712C154.48 86.024 154.588 86.284 154.804 86.492C155.028 86.7 155.328 86.804 155.704 86.804C156.08 86.804 156.368 86.7 156.568 86.492C156.776 86.284 156.88 86.024 156.88 85.712C156.88 85.384 156.776 85.124 156.568 84.932C156.368 84.732 156.08 84.632 155.704 84.632ZM155.704 90.848C156.184 90.848 156.56 90.728 156.832 90.488C157.104 90.24 157.24 89.908 157.24 89.492C157.24 89.1 157.1 88.78 156.82 88.532C156.548 88.284 156.176 88.16 155.704 88.16C155.232 88.16 154.856 88.284 154.576 88.532C154.304 88.78 154.168 89.1 154.168 89.492C154.168 89.908 154.304 90.24 154.576 90.488C154.848 90.728 155.224 90.848 155.704 90.848ZM161.926 88.232C161.286 88.232 160.782 88.008 160.414 87.56C160.054 87.112 159.874 86.524 159.874 85.796C159.874 85.084 160.062 84.512 160.438 84.08C160.814 83.648 161.31 83.432 161.926 83.432C162.542 83.432 163.038 83.648 163.414 84.08C163.79 84.512 163.978 85.084 163.978 85.796C163.978 86.516 163.794 87.104 163.426 87.56C163.058 88.008 162.558 88.232 161.926 88.232ZM161.926 87.188C162.19 87.188 162.394 87.068 162.538 86.828C162.682 86.58 162.754 86.236 162.754 85.796C162.754 85.364 162.678 85.036 162.526 84.812C162.382 84.588 162.182 84.476 161.926 84.476C161.67 84.476 161.466 84.588 161.314 84.812C161.17 85.036 161.098 85.364 161.098 85.796C161.098 86.724 161.374 87.188 161.926 87.188ZM166.726 83.6H167.914L162.97 92H161.77L166.726 83.6ZM167.746 92.168C167.106 92.168 166.602 91.944 166.234 91.496C165.874 91.048 165.694 90.46 165.694 89.732C165.694 89.02 165.882 88.448 166.258 88.016C166.634 87.584 167.13 87.368 167.746 87.368C168.362 87.368 168.858 87.584 169.234 88.016C169.61 88.448 169.798 89.02 169.798 89.732C169.798 90.452 169.614 91.04 169.246 91.496C168.878 91.944 168.378 92.168 167.746 92.168ZM167.746 91.124C168.01 91.124 168.214 91.004 168.358 90.764C168.502 90.516 168.574 90.172 168.574 89.732C168.574 89.3 168.498 88.972 168.346 88.748C168.202 88.524 168.002 88.412 167.746 88.412C167.49 88.412 167.286 88.524 167.134 88.748C166.99 88.972 166.918 89.3 166.918 89.732C166.918 90.66 167.194 91.124 167.746 91.124Z" fill="black"/>
<path d="M115.273 64.772C114.937 64.996 114.585 65.14 114.217 65.204L114.085 63.908C114.349 63.852 114.645 63.692 114.973 63.428C115.301 63.156 115.521 62.88 115.633 62.6H116.809V71H115.273V64.772ZM124.803 67.832V69.08H123.723V71H122.247V69.08H118.059L122.679 62.6H123.723V67.832H124.803ZM122.247 67.832V65.252L120.435 67.832H122.247ZM128.032 67.232C127.392 67.232 126.888 67.008 126.52 66.56C126.16 66.112 125.98 65.524 125.98 64.796C125.98 64.084 126.168 63.512 126.544 63.08C126.92 62.648 127.416 62.432 128.032 62.432C128.648 62.432 129.144 62.648 129.52 63.08C129.896 63.512 130.084 64.084 130.084 64.796C130.084 65.516 129.9 66.104 129.532 66.56C129.164 67.008 128.664 67.232 128.032 67.232ZM128.032 66.188C128.296 66.188 128.5 66.068 128.644 65.828C128.788 65.58 128.86 65.236 128.86 64.796C128.86 64.364 128.784 64.036 128.632 63.812C128.488 63.588 128.288 63.476 128.032 63.476C127.776 63.476 127.572 63.588 127.42 63.812C127.276 64.036 127.204 64.364 127.204 64.796C127.204 65.724 127.48 66.188 128.032 66.188ZM132.832 62.6H134.02L129.076 71H127.876L132.832 62.6ZM133.852 71.168C133.212 71.168 132.708 70.944 132.34 70.496C131.98 70.048 131.8 69.46 131.8 68.732C131.8 68.02 131.988 67.448 132.364 67.016C132.74 66.584 133.236 66.368 133.852 66.368C134.468 66.368 134.964 66.584 135.34 67.016C135.716 67.448 135.904 68.02 135.904 68.732C135.904 69.452 135.72 70.04 135.352 70.496C134.984 70.944 134.484 71.168 133.852 71.168ZM133.852 70.124C134.116 70.124 134.32 70.004 134.464 69.764C134.608 69.516 134.68 69.172 134.68 68.732C134.68 68.3 134.604 67.972 134.452 67.748C134.308 67.524 134.108 67.412 133.852 67.412C133.596 67.412 133.392 67.524 133.24 67.748C133.096 67.972 133.024 68.3 133.024 68.732C133.024 69.66 133.3 70.124 133.852 70.124Z" fill="black"/>
<defs>
<filter id="filter0_dd" x="0" y="0" width="364" height="218" filterUnits="userSpaceOnUse" color-interpolation-filters="sRGB">
<feFlood flood-opacity="0" result="BackgroundImageFix"/>
<feColorMatrix in="SourceAlpha" type="matrix" values="0 0 0 0 0 0 0 0 0 0 0 0 0 0 0 0 0 0 127 0"/>
<feOffset dx="5" dy="5"/>
<feGaussianBlur stdDeviation="7.5"/>
<feColorMatrix type="matrix" values="0 0 0 0 0.652778 0 0 0 0 0.706536 0 0 0 0 0.783333 0 0 0 0.4 0"/>
<feBlend mode="normal" in2="BackgroundImageFix" result="effect1_dropShadow"/>
<feColorMatrix in="SourceAlpha" type="matrix" values="0 0 0 0 0 0 0 0 0 0 0 0 0 0 0 0 0 0 127 0"/>
<feOffset dx="-6" dy="-6"/>
<feGaussianBlur stdDeviation="7.5"/>
<feColorMatrix type="matrix" values="0 0 0 0 1 0 0 0 0 1 0 0 0 0 1 0 0 0 0.4 0"/>
<feBlend mode="normal" in2="effect1_dropShadow" result="effect2_dropShadow"/>
<feBlend mode="normal" in="SourceGraphic" in2="effect2_dropShadow" result="shape"/>
</filter>
<filter id="filter1_d" x="51" y="40" width="157.22" height="157.22" filterUnits="userSpaceOnUse" color-interpolation-filters="sRGB">
<feFlood flood-opacity="0" result="BackgroundImageFix"/>
<feColorMatrix in="SourceAlpha" type="matrix" values="0 0 0 0 0 0 0 0 0 0 0 0 0 0 0 0 0 0 127 0"/>
<feOffset dx="5" dy="9"/>
<feGaussianBlur stdDeviation="7.5"/>
<feColorMatrix type="matrix" values="0 0 0 0 0.176471 0 0 0 0 0.215686 0 0 0 0 0.278431 0 0 0 0.2775 0"/>
<feBlend mode="normal" in2="BackgroundImageFix" result="effect1_dropShadow"/>
<feBlend mode="normal" in="SourceGraphic" in2="effect1_dropShadow" result="shape"/>
</filter>
<linearGradient id="paint0_linear" x1="21" y1="21" x2="171.632" y2="293.338" gradientUnits="userSpaceOnUse">
<stop stop-color="#FEFEFF"/>
<stop offset="1" stop-color="#E1E7F0"/>
</linearGradient>
</defs>
</svg>
