<svg width="364" height="364" viewBox="0 0 364 364" fill="none" xmlns="http://www.w3.org/2000/svg">
<g filter="url(#filter0_dd)">
<rect x="21" y="21" width="323" height="323" rx="8" fill="white"/>
<rect x="21.25" y="21.25" width="322.5" height="322.5" rx="7.75" stroke="url(#paint0_linear)" stroke-width="0.5"/>
</g>
<path d="M65.5 47V298.5H317" stroke="#C8CCF8"/>
<path d="M140.717 327.6H143.789C144.685 327.6 145.389 327.816 145.901 328.248C146.421 328.672 146.681 329.304 146.681 330.144C146.681 330.728 146.557 331.208 146.309 331.584C146.061 331.952 145.709 332.248 145.253 332.472L147.149 336H145.433L143.813 332.88H143.753H142.253V336H140.717V327.6ZM143.381 331.596C144.509 331.596 145.073 331.14 145.073 330.228C145.073 329.788 144.945 329.456 144.689 329.232C144.433 329 144.017 328.884 143.441 328.884H142.253V331.596H143.381ZM147.919 327.6H149.407V329.088H147.919V327.6ZM147.919 330H149.407V336H147.919V330ZM156.273 327V336H154.869L154.845 335.616C154.613 335.784 154.369 335.912 154.113 336C153.865 336.08 153.569 336.12 153.225 336.12C152.641 336.12 152.137 335.98 151.713 335.7C151.297 335.42 150.981 335.044 150.765 334.572C150.549 334.1 150.441 333.58 150.441 333.012C150.441 332.444 150.549 331.924 150.765 331.452C150.981 330.98 151.297 330.604 151.713 330.324C152.137 330.044 152.641 329.904 153.225 329.904C153.809 329.904 154.329 330.064 154.785 330.384V327H156.273ZM153.441 334.896C153.913 334.896 154.265 334.728 154.497 334.392C154.737 334.056 154.857 333.596 154.857 333.012C154.857 332.428 154.737 331.968 154.497 331.632C154.265 331.296 153.913 331.128 153.441 331.128C152.977 331.128 152.613 331.3 152.349 331.644C152.093 331.988 151.965 332.444 151.965 333.012C151.965 333.58 152.093 334.036 152.349 334.38C152.613 334.724 152.977 334.896 153.441 334.896ZM160.549 336.12C159.853 336.12 159.257 335.98 158.761 335.7C158.273 335.412 157.905 335.032 157.657 334.56C157.417 334.08 157.297 333.548 157.297 332.964C157.297 332.404 157.413 331.892 157.645 331.428C157.877 330.964 158.213 330.596 158.653 330.324C159.093 330.044 159.617 329.904 160.225 329.904C160.785 329.904 161.257 330.02 161.641 330.252C162.033 330.484 162.325 330.796 162.517 331.188C162.717 331.58 162.817 332.02 162.817 332.508C162.817 332.748 162.785 333.02 162.721 333.324H158.845C158.925 333.852 159.133 334.248 159.469 334.512C159.805 334.768 160.209 334.896 160.681 334.896C161.329 334.896 161.929 334.732 162.481 334.404L162.553 335.664C162.297 335.8 161.997 335.912 161.653 336C161.317 336.08 160.949 336.12 160.549 336.12ZM161.305 332.316C161.305 332.004 161.217 331.728 161.041 331.488C160.865 331.248 160.593 331.128 160.225 331.128C159.857 331.128 159.561 331.236 159.337 331.452C159.113 331.668 158.961 331.956 158.881 332.316H161.305ZM166.756 327.6H169.744C171.736 327.6 172.732 328.504 172.732 330.312C172.732 331.248 172.48 331.944 171.976 332.4C171.472 332.856 170.74 333.084 169.78 333.084H168.292V336H166.756V327.6ZM169.6 331.8C170.128 331.8 170.52 331.68 170.776 331.44C171.04 331.2 171.172 330.832 171.172 330.336C171.172 329.84 171.04 329.476 170.776 329.244C170.512 329.004 170.108 328.884 169.564 328.884H168.292V331.8H169.6ZM173.583 330H174.975L175.011 330.636C175.187 330.436 175.411 330.26 175.683 330.108C175.963 329.956 176.255 329.88 176.559 329.88C176.655 329.88 176.743 329.888 176.823 329.904L176.715 331.368C176.563 331.328 176.391 331.308 176.199 331.308C175.951 331.308 175.723 331.368 175.515 331.488C175.307 331.6 175.159 331.74 175.071 331.908V336H173.583V330ZM177.544 327.6H179.032V329.088H177.544V327.6ZM177.544 330H179.032V336H177.544V330ZM183.21 336.12C182.546 336.12 181.974 335.984 181.494 335.712C181.022 335.432 180.666 335.056 180.426 334.584C180.186 334.112 180.066 333.588 180.066 333.012C180.066 332.428 180.186 331.9 180.426 331.428C180.666 330.948 181.026 330.572 181.506 330.3C181.986 330.02 182.57 329.88 183.258 329.88C183.874 329.88 184.41 330.008 184.866 330.264L184.746 331.464C184.314 331.24 183.866 331.128 183.402 331.128C182.834 331.128 182.39 331.3 182.07 331.644C181.75 331.988 181.59 332.444 181.59 333.012C181.59 333.556 181.754 334.008 182.082 334.368C182.41 334.72 182.846 334.896 183.39 334.896C183.846 334.896 184.302 334.764 184.758 334.5L184.89 335.76C184.674 335.872 184.418 335.96 184.122 336.024C183.834 336.088 183.53 336.12 183.21 336.12ZM188.733 336.12C188.037 336.12 187.441 335.98 186.945 335.7C186.457 335.412 186.089 335.032 185.841 334.56C185.601 334.08 185.481 333.548 185.481 332.964C185.481 332.404 185.597 331.892 185.829 331.428C186.061 330.964 186.397 330.596 186.837 330.324C187.277 330.044 187.801 329.904 188.409 329.904C188.969 329.904 189.441 330.02 189.825 330.252C190.217 330.484 190.509 330.796 190.701 331.188C190.901 331.58 191.001 332.02 191.001 332.508C191.001 332.748 190.969 333.02 190.905 333.324H187.029C187.109 333.852 187.317 334.248 187.653 334.512C187.989 334.768 188.393 334.896 188.865 334.896C189.513 334.896 190.113 334.732 190.665 334.404L190.737 335.664C190.481 335.8 190.181 335.912 189.837 336C189.501 336.08 189.133 336.12 188.733 336.12ZM189.489 332.316C189.489 332.004 189.401 331.728 189.225 331.488C189.049 331.248 188.777 331.128 188.409 331.128C188.041 331.128 187.745 331.236 187.521 331.452C187.297 331.668 187.145 331.956 187.065 332.316H189.489ZM194.94 327.6H198.012C198.908 327.6 199.612 327.816 200.124 328.248C200.644 328.672 200.904 329.304 200.904 330.144C200.904 330.728 200.78 331.208 200.532 331.584C200.284 331.952 199.932 332.248 199.476 332.472L201.372 336H199.656L198.036 332.88H197.976H196.476V336H194.94V327.6ZM197.604 331.596C198.732 331.596 199.296 331.14 199.296 330.228C199.296 329.788 199.168 329.456 198.912 329.232C198.656 329 198.24 328.884 197.664 328.884H196.476V331.596H197.604ZM203.461 336.12C202.965 336.12 202.549 335.96 202.213 335.64C201.885 335.312 201.721 334.872 201.721 334.32C201.721 333.8 201.909 333.384 202.285 333.072C202.661 332.752 203.105 332.528 203.617 332.4C204.129 332.264 204.621 332.188 205.093 332.172C205.077 331.82 204.985 331.568 204.817 331.416C204.657 331.264 204.389 331.188 204.013 331.188C203.749 331.188 203.489 331.224 203.233 331.296C202.985 331.368 202.697 331.484 202.369 331.644L202.237 330.432C202.965 330.08 203.693 329.904 204.421 329.904C205.125 329.904 205.661 330.096 206.029 330.48C206.405 330.864 206.593 331.476 206.593 332.316V333.936C206.593 334.24 206.605 334.46 206.629 334.596C206.661 334.724 206.709 334.808 206.773 334.848C206.845 334.88 206.961 334.896 207.121 334.896H207.313L207.181 336.12H206.641C206.313 336.12 206.037 336.06 205.813 335.94C205.589 335.812 205.417 335.64 205.297 335.424C205.105 335.64 204.841 335.812 204.505 335.94C204.177 336.06 203.829 336.12 203.461 336.12ZM204.085 334.98C204.237 334.98 204.409 334.944 204.601 334.872C204.793 334.792 204.961 334.684 205.105 334.548V333.18C204.625 333.204 204.201 333.308 203.833 333.492C203.465 333.676 203.281 333.932 203.281 334.26C203.281 334.508 203.345 334.692 203.473 334.812C203.601 334.924 203.805 334.98 204.085 334.98ZM211.165 329.904C211.909 329.904 212.473 330.152 212.857 330.648C213.241 331.144 213.433 331.812 213.433 332.652V336H211.945V332.772C211.945 332.212 211.849 331.8 211.657 331.536C211.473 331.264 211.173 331.128 210.757 331.128C210.301 331.128 209.925 331.3 209.629 331.644V336H208.141V330H209.533L209.557 330.42C210.061 330.076 210.597 329.904 211.165 329.904ZM217.138 339.024C216.29 339.024 215.614 338.868 215.11 338.556C214.606 338.252 214.354 337.836 214.354 337.308C214.354 336.732 214.678 336.26 215.326 335.892C214.974 335.676 214.798 335.392 214.798 335.04C214.798 334.856 214.85 334.692 214.954 334.548C215.066 334.404 215.214 334.288 215.398 334.2C215.094 333.984 214.862 333.708 214.702 333.372C214.55 333.036 214.474 332.668 214.474 332.268C214.474 331.828 214.57 331.428 214.762 331.068C214.954 330.7 215.234 330.412 215.602 330.204C215.97 329.988 216.406 329.88 216.91 329.88C217.438 329.88 217.894 330.008 218.278 330.264C218.414 330.192 218.594 330.132 218.818 330.084C219.05 330.028 219.298 330 219.562 330H219.946L219.85 330.936H219.31C219.174 330.936 219.062 330.94 218.974 330.948C219.214 331.316 219.334 331.756 219.334 332.268C219.334 332.708 219.238 333.112 219.046 333.48C218.862 333.84 218.586 334.128 218.218 334.344C217.85 334.552 217.414 334.656 216.91 334.656C216.726 334.656 216.514 334.628 216.274 334.572C216.186 334.612 216.142 334.676 216.142 334.764C216.142 334.868 216.202 334.952 216.322 335.016C216.45 335.072 216.662 335.12 216.958 335.16L217.99 335.292C219.366 335.476 220.054 336.056 220.054 337.032C220.054 337.64 219.794 338.124 219.274 338.484C218.762 338.844 218.05 339.024 217.138 339.024ZM216.91 333.552C217.254 333.552 217.518 333.44 217.702 333.216C217.894 332.984 217.99 332.668 217.99 332.268C217.99 331.868 217.894 331.556 217.702 331.332C217.518 331.1 217.254 330.984 216.91 330.984C216.558 330.984 216.286 331.1 216.094 331.332C215.91 331.556 215.818 331.868 215.818 332.268C215.818 332.668 215.91 332.984 216.094 333.216C216.286 333.44 216.558 333.552 216.91 333.552ZM217.198 337.896C218.222 337.896 218.734 337.644 218.734 337.14C218.734 336.916 218.646 336.748 218.47 336.636C218.294 336.532 218.002 336.448 217.594 336.384L216.274 336.192C215.818 336.376 215.59 336.656 215.59 337.032C215.59 337.32 215.73 337.536 216.01 337.68C216.29 337.824 216.686 337.896 217.198 337.896ZM223.619 336.12C222.923 336.12 222.327 335.98 221.831 335.7C221.343 335.412 220.975 335.032 220.727 334.56C220.487 334.08 220.367 333.548 220.367 332.964C220.367 332.404 220.483 331.892 220.715 331.428C220.947 330.964 221.283 330.596 221.723 330.324C222.163 330.044 222.687 329.904 223.295 329.904C223.855 329.904 224.327 330.02 224.711 330.252C225.103 330.484 225.395 330.796 225.587 331.188C225.787 331.58 225.887 332.02 225.887 332.508C225.887 332.748 225.855 333.02 225.791 333.324H221.915C221.995 333.852 222.203 334.248 222.539 334.512C222.875 334.768 223.279 334.896 223.751 334.896C224.399 334.896 224.999 334.732 225.551 334.404L225.623 335.664C225.367 335.8 225.067 335.912 224.723 336C224.387 336.08 224.019 336.12 223.619 336.12ZM224.375 332.316C224.375 332.004 224.287 331.728 224.111 331.488C223.935 331.248 223.663 331.128 223.295 331.128C222.927 331.128 222.631 331.236 222.407 331.452C222.183 331.668 222.031 331.956 221.951 332.316H224.375Z" fill="black"/>
<path d="M107.837 161.772C107.501 161.996 107.149 162.14 106.781 162.204L106.649 160.908C106.913 160.852 107.209 160.692 107.537 160.428C107.865 160.156 108.085 159.88 108.197 159.6H109.373V168H107.837V161.772ZM113.275 164.604C113.739 163.892 114.055 163.356 114.223 162.996C114.399 162.636 114.487 162.296 114.487 161.976C114.487 161.632 114.387 161.364 114.187 161.172C113.995 160.972 113.727 160.872 113.383 160.872C112.999 160.872 112.643 160.964 112.315 161.148C111.987 161.332 111.667 161.58 111.355 161.892L111.163 160.344C111.539 160.04 111.931 159.812 112.339 159.66C112.747 159.508 113.199 159.432 113.695 159.432C114.183 159.432 114.599 159.536 114.943 159.744C115.287 159.944 115.543 160.216 115.711 160.56C115.887 160.904 115.975 161.284 115.975 161.7C115.975 162.172 115.871 162.656 115.663 163.152C115.463 163.648 115.107 164.284 114.595 165.06L113.611 166.56H116.275V168H111.067L113.275 164.604Z" fill="black"/>
<path d="M176.183 203.428C176.583 203.644 176.895 203.94 177.119 204.316C177.343 204.692 177.455 205.116 177.455 205.588C177.455 206.092 177.335 206.54 177.095 206.932C176.855 207.324 176.511 207.628 176.063 207.844C175.615 208.06 175.095 208.168 174.503 208.168C173.903 208.168 173.379 208.06 172.931 207.844C172.491 207.628 172.151 207.324 171.911 206.932C171.671 206.54 171.551 206.092 171.551 205.588C171.551 205.108 171.663 204.684 171.887 204.316C172.119 203.94 172.439 203.644 172.847 203.428C172.559 203.228 172.335 202.98 172.175 202.684C172.015 202.38 171.935 202.052 171.935 201.7C171.935 201.308 172.027 200.94 172.211 200.596C172.395 200.252 172.679 199.972 173.063 199.756C173.447 199.54 173.927 199.432 174.503 199.432C175.079 199.432 175.555 199.54 175.931 199.756C176.307 199.972 176.583 200.252 176.759 200.596C176.935 200.94 177.023 201.308 177.023 201.7C177.023 202.06 176.951 202.388 176.807 202.684C176.663 202.98 176.455 203.228 176.183 203.428ZM174.503 200.632C174.119 200.632 173.819 200.732 173.603 200.932C173.387 201.124 173.279 201.384 173.279 201.712C173.279 202.024 173.387 202.284 173.603 202.492C173.827 202.7 174.127 202.804 174.503 202.804C174.879 202.804 175.167 202.7 175.367 202.492C175.575 202.284 175.679 202.024 175.679 201.712C175.679 201.384 175.575 201.124 175.367 200.932C175.167 200.732 174.879 200.632 174.503 200.632ZM174.503 206.848C174.983 206.848 175.359 206.728 175.631 206.488C175.903 206.24 176.039 205.908 176.039 205.492C176.039 205.1 175.899 204.78 175.619 204.532C175.347 204.284 174.975 204.16 174.503 204.16C174.031 204.16 173.655 204.284 173.375 204.532C173.103 204.78 172.967 205.1 172.967 205.492C172.967 205.908 173.103 206.24 173.375 206.488C173.647 206.728 174.023 206.848 174.503 206.848Z" fill="black"/>
<path d="M240.601 246.832V248.08H239.521V250H238.045V248.08H233.857L238.477 241.6H239.521V246.832H240.601ZM238.045 246.832V244.252L236.233 246.832H238.045Z" fill="black"/>
<path d="M36.008 221.085L36.008 224.145L38 224.841L38 226.329L29.6 223.341L29.6 221.889L38 218.901L38 220.389L36.008 221.085ZM34.664 221.565L31.664 222.609L34.664 223.665L34.664 221.565ZM31.904 211.437C31.904 210.637 32.148 210.045 32.636 209.661C33.116 209.269 33.792 209.073 34.664 209.073L38 209.073L38 210.561L34.772 210.561C34.204 210.561 33.788 210.649 33.524 210.825C33.26 211.001 33.128 211.289 33.128 211.689C33.128 212.081 33.264 212.377 33.536 212.577C33.8 212.777 34.176 212.877 34.664 212.877L38 212.877L38 214.365L34.772 214.365C34.204 214.365 33.788 214.457 33.524 214.641C33.26 214.825 33.128 215.117 33.128 215.517C33.128 215.989 33.3 216.377 33.644 216.681L38 216.681L38 218.169L32 218.169L32 216.897L32.48 216.849C32.096 216.305 31.904 215.717 31.904 215.085C31.904 214.317 32.18 213.745 32.732 213.369C32.468 213.161 32.264 212.889 32.12 212.553C31.976 212.217 31.904 211.845 31.904 211.437ZM38.12 205.016C38.12 205.648 37.98 206.196 37.7 206.66C37.42 207.124 37.044 207.48 36.572 207.728C36.1 207.976 35.58 208.1 35.012 208.1C34.444 208.1 33.92 207.976 33.44 207.728C32.96 207.48 32.58 207.124 32.3 206.66C32.02 206.196 31.88 205.648 31.88 205.016C31.88 204.384 32.02 203.836 32.3 203.372C32.58 202.908 32.96 202.552 33.44 202.304C33.92 202.056 34.444 201.932 35.012 201.932C35.58 201.932 36.1 202.056 36.572 202.304C37.044 202.552 37.42 202.908 37.7 203.372C37.98 203.836 38.12 204.384 38.12 205.016ZM36.896 205.016C36.896 204.528 36.724 204.148 36.38 203.876C36.036 203.596 35.58 203.456 35.012 203.456C34.436 203.456 33.976 203.596 33.632 203.876C33.28 204.148 33.104 204.528 33.104 205.016C33.104 205.504 33.28 205.888 33.632 206.168C33.976 206.44 34.436 206.576 35.012 206.576C35.58 206.576 36.036 206.44 36.38 206.168C36.724 205.888 36.896 205.504 36.896 205.016ZM32 195.664L38 195.664L38 197.056L37.64 197.08C37.776 197.264 37.892 197.476 37.988 197.716C38.076 197.956 38.12 198.188 38.12 198.412C38.12 199.3 37.864 199.948 37.352 200.356C36.84 200.756 36.132 200.956 35.228 200.956L32 200.956L32 199.468L35.228 199.468C35.788 199.468 36.204 199.376 36.476 199.192C36.74 199 36.872 198.696 36.872 198.28C36.872 197.816 36.704 197.44 36.368 197.152L32 197.152L32 195.664ZM31.904 191.251C31.904 190.507 32.152 189.943 32.648 189.559C33.144 189.175 33.812 188.983 34.652 188.983L38 188.983L38 190.471L34.772 190.471C34.212 190.471 33.8 190.567 33.536 190.759C33.264 190.943 33.128 191.243 33.128 191.659C33.128 192.115 33.3 192.491 33.644 192.787L38 192.787L38 194.275L32 194.275L32 192.883L32.42 192.859C32.076 192.355 31.904 191.819 31.904 191.251ZM38.12 185.768C38.12 186.296 37.968 186.696 37.664 186.968C37.352 187.24 36.98 187.376 36.548 187.376L33.224 187.376L33.224 188.228L32 188.096L32 187.376L30.68 187.376L30.524 185.888L32 185.888L32 184.568L33.224 184.568L33.224 185.888L35.936 185.888C36.256 185.888 36.48 185.872 36.608 185.84C36.728 185.8 36.808 185.724 36.848 185.612C36.88 185.492 36.896 185.28 36.896 184.976L36.896 184.568L38.12 184.7L38.12 185.768ZM38.12 178.18C38.12 178.812 37.98 179.36 37.7 179.824C37.42 180.288 37.044 180.644 36.572 180.892C36.1 181.14 35.58 181.264 35.012 181.264C34.444 181.264 33.92 181.14 33.44 180.892C32.96 180.644 32.58 180.288 32.3 179.824C32.02 179.36 31.88 178.812 31.88 178.18C31.88 177.548 32.02 177 32.3 176.536C32.58 176.072 32.96 175.716 33.44 175.468C33.92 175.22 34.444 175.096 35.012 175.096C35.58 175.096 36.1 175.22 36.572 175.468C37.044 175.716 37.42 176.072 37.7 176.536C37.98 177 38.12 177.548 38.12 178.18ZM36.896 178.18C36.896 177.692 36.724 177.312 36.38 177.04C36.036 176.76 35.58 176.62 35.012 176.62C34.436 176.62 33.976 176.76 33.632 177.04C33.28 177.312 33.104 177.692 33.104 178.18C33.104 178.668 33.28 179.052 33.632 179.332C33.976 179.604 34.436 179.74 35.012 179.74C35.58 179.74 36.036 179.604 36.38 179.332C36.724 179.052 36.896 178.668 36.896 178.18ZM33.224 173.77L33.224 174.622L32 174.49L32 173.77L30.728 173.77C30.192 173.77 29.772 173.614 29.468 173.302C29.156 172.982 29 172.53 29 171.946C29 171.618 29.036 171.294 29.108 170.974L30.308 171.106C30.268 171.242 30.248 171.398 30.248 171.574C30.248 172.046 30.496 172.282 30.992 172.282L32 172.282L32 170.962L33.224 170.962L33.224 172.282L38 172.282L38 173.77L33.224 173.77ZM29.6 167.129L29.6 164.057C29.6 163.161 29.816 162.457 30.248 161.945C30.672 161.425 31.304 161.165 32.144 161.165C32.728 161.165 33.208 161.289 33.584 161.537C33.952 161.785 34.248 162.137 34.472 162.593L38 160.697L38 162.413L34.88 164.033L34.88 164.093L34.88 165.593L38 165.593L38 167.129L29.6 167.129ZM33.596 164.465C33.596 163.337 33.14 162.773 32.228 162.773C31.788 162.773 31.456 162.901 31.232 163.157C31 163.413 30.884 163.829 30.884 164.405L30.884 165.593L33.596 165.593L33.596 164.465ZM29.6 159.927L29.6 158.439L31.088 158.439L31.088 159.927L29.6 159.927ZM32 159.927L32 158.439L38 158.439L38 159.927L32 159.927ZM29 151.572L38 151.572L38 152.976L37.616 153C37.784 153.232 37.912 153.476 38 153.732C38.08 153.98 38.12 154.276 38.12 154.62C38.12 155.204 37.98 155.708 37.7 156.132C37.42 156.548 37.044 156.864 36.572 157.08C36.1 157.296 35.58 157.404 35.012 157.404C34.444 157.404 33.924 157.296 33.452 157.08C32.98 156.864 32.604 156.548 32.324 156.132C32.044 155.708 31.904 155.204 31.904 154.62C31.904 154.036 32.064 153.516 32.384 153.06L29 153.06L29 151.572ZM36.896 154.404C36.896 153.932 36.728 153.58 36.392 153.348C36.056 153.108 35.596 152.988 35.012 152.988C34.428 152.988 33.968 153.108 33.632 153.348C33.296 153.58 33.128 153.932 33.128 154.404C33.128 154.868 33.3 155.232 33.644 155.496C33.988 155.752 34.444 155.88 35.012 155.88C35.58 155.88 36.036 155.752 36.38 155.496C36.724 155.232 36.896 154.868 36.896 154.404ZM38.12 147.297C38.12 147.993 37.98 148.589 37.7 149.085C37.412 149.573 37.032 149.941 36.56 150.189C36.08 150.429 35.548 150.549 34.964 150.549C34.404 150.549 33.892 150.433 33.428 150.201C32.964 149.969 32.596 149.633 32.324 149.193C32.044 148.753 31.904 148.229 31.904 147.621C31.904 147.061 32.02 146.589 32.252 146.205C32.484 145.813 32.796 145.521 33.188 145.329C33.58 145.129 34.02 145.029 34.508 145.029C34.748 145.029 35.02 145.061 35.324 145.125L35.324 149.001C35.852 148.921 36.248 148.713 36.512 148.377C36.768 148.041 36.896 147.637 36.896 147.165C36.896 146.517 36.732 145.917 36.404 145.365L37.664 145.293C37.8 145.549 37.912 145.849 38 146.193C38.08 146.529 38.12 146.897 38.12 147.297ZM34.316 146.541C34.004 146.541 33.728 146.629 33.488 146.805C33.248 146.981 33.128 147.253 33.128 147.621C33.128 147.989 33.236 148.285 33.452 148.509C33.668 148.733 33.956 148.885 34.316 148.965L34.316 146.541ZM38.12 142.309C38.12 142.693 38.084 143.045 38.012 143.365C37.94 143.677 37.828 144.001 37.676 144.337L36.404 144.205C36.604 143.869 36.756 143.557 36.86 143.269C36.956 142.973 37.004 142.669 37.004 142.357C37.004 141.749 36.804 141.445 36.404 141.445C36.188 141.445 36.024 141.525 35.912 141.685C35.792 141.845 35.652 142.133 35.492 142.549C35.276 143.141 35.032 143.577 34.76 143.857C34.48 144.137 34.104 144.277 33.632 144.277C33.112 144.277 32.692 144.077 32.372 143.677C32.044 143.277 31.88 142.737 31.88 142.057C31.88 141.377 32.036 140.757 32.348 140.197L33.62 140.329C33.412 140.633 33.252 140.921 33.14 141.193C33.028 141.457 32.972 141.737 32.972 142.033C32.972 142.289 33.024 142.489 33.128 142.633C33.232 142.769 33.38 142.837 33.572 142.837C33.724 142.837 33.848 142.797 33.944 142.717C34.04 142.629 34.128 142.509 34.208 142.357C34.28 142.205 34.384 141.953 34.52 141.601C34.744 141.017 34.992 140.597 35.264 140.341C35.528 140.085 35.884 139.957 36.332 139.957C36.9 139.957 37.34 140.161 37.652 140.569C37.964 140.977 38.12 141.557 38.12 142.309Z" fill="black"/>
<path d="M57.7887 283.672C58.066 283.256 58.2687 282.912 58.3967 282.64C58.5247 282.368 58.5887 282.12 58.5887 281.896C58.5887 281.619 58.5087 281.4 58.3487 281.24C58.194 281.075 57.9834 280.992 57.7167 280.992C57.2207 280.992 56.7674 281.203 56.3567 281.624L56.2607 280.824C56.4634 280.664 56.6954 280.533 56.9567 280.432C57.218 280.331 57.498 280.28 57.7967 280.28C58.2927 280.28 58.6767 280.424 58.9487 280.712C59.2207 281 59.3567 281.368 59.3567 281.816C59.3567 282.168 59.2874 282.501 59.1487 282.816C59.0154 283.131 58.786 283.533 58.4607 284.024L57.6127 285.304H59.5727V285.992H56.2607L57.7887 283.672Z" fill="black"/>
<path d="M108.424 310.552C108.424 310.984 108.28 311.333 107.992 311.6C107.709 311.861 107.291 312.024 106.736 312.088L106.792 313.152H106.168L106.224 312.112C105.899 312.112 105.565 312.075 105.224 312C104.888 311.931 104.616 311.848 104.408 311.752L104.512 310.944C104.779 311.072 105.08 311.184 105.416 311.28C105.752 311.376 106.085 311.424 106.416 311.424C106.789 311.424 107.077 311.357 107.28 311.224C107.488 311.085 107.592 310.88 107.592 310.608C107.592 310.405 107.539 310.237 107.432 310.104C107.331 309.965 107.179 309.851 106.976 309.76C106.779 309.664 106.501 309.563 106.144 309.456C105.781 309.349 105.48 309.235 105.24 309.112C105 308.989 104.805 308.821 104.656 308.608C104.512 308.395 104.44 308.125 104.44 307.8C104.44 307.368 104.595 307.019 104.904 306.752C105.219 306.48 105.661 306.328 106.232 306.296L106.168 305.248H106.792L106.728 306.296C107.016 306.312 107.288 306.355 107.544 306.424C107.8 306.493 108.024 306.576 108.216 306.672L108.136 307.48C107.837 307.304 107.549 307.176 107.272 307.096C106.995 307.016 106.707 306.976 106.408 306.976C106.061 306.976 105.784 307.04 105.576 307.168C105.373 307.296 105.272 307.493 105.272 307.76C105.272 307.941 105.317 308.091 105.408 308.208C105.504 308.325 105.64 308.427 105.816 308.512C105.992 308.592 106.237 308.68 106.552 308.776C107.181 308.968 107.651 309.197 107.96 309.464C108.269 309.725 108.424 310.088 108.424 310.552ZM109.904 307.496C109.728 307.64 109.576 307.747 109.448 307.816C109.325 307.885 109.2 307.941 109.072 307.984L108.944 307.272C109.168 307.197 109.389 307.08 109.608 306.92C109.832 306.755 110.003 306.581 110.12 306.4H110.64V312H109.904V307.496ZM111.737 309.168H114.217V309.856H111.737V309.168ZM116.752 308.464C117.141 308.464 117.477 308.541 117.76 308.696C118.043 308.851 118.259 309.064 118.408 309.336C118.557 309.608 118.632 309.917 118.632 310.264C118.632 310.637 118.544 310.963 118.368 311.24C118.197 311.517 117.96 311.733 117.656 311.888C117.357 312.037 117.019 312.112 116.64 312.112C116.352 312.112 116.069 312.075 115.792 312C115.52 311.925 115.283 311.821 115.08 311.688L115.264 310.984C115.493 311.112 115.712 311.211 115.92 311.28C116.128 311.344 116.355 311.376 116.6 311.376C116.957 311.376 117.245 311.275 117.464 311.072C117.688 310.869 117.8 310.6 117.8 310.264C117.8 309.891 117.683 309.603 117.448 309.4C117.213 309.192 116.899 309.088 116.504 309.088C116.168 309.088 115.792 309.141 115.376 309.248L115.72 306.4H118.36L118.328 307.12H116.344L116.176 308.504C116.379 308.477 116.571 308.464 116.752 308.464Z" fill="black"/>
<path d="M168.58 310.552C168.58 310.984 168.436 311.333 168.148 311.6C167.866 311.861 167.447 312.024 166.892 312.088L166.948 313.152H166.324L166.38 312.112C166.055 312.112 165.722 312.075 165.38 312C165.044 311.931 164.772 311.848 164.564 311.752L164.668 310.944C164.935 311.072 165.236 311.184 165.572 311.28C165.908 311.376 166.242 311.424 166.572 311.424C166.946 311.424 167.234 311.357 167.436 311.224C167.644 311.085 167.748 310.88 167.748 310.608C167.748 310.405 167.695 310.237 167.588 310.104C167.487 309.965 167.335 309.851 167.132 309.76C166.935 309.664 166.658 309.563 166.3 309.456C165.938 309.349 165.636 309.235 165.396 309.112C165.156 308.989 164.962 308.821 164.812 308.608C164.668 308.395 164.596 308.125 164.596 307.8C164.596 307.368 164.751 307.019 165.06 306.752C165.375 306.48 165.818 306.328 166.388 306.296L166.324 305.248H166.948L166.884 306.296C167.172 306.312 167.444 306.355 167.7 306.424C167.956 306.493 168.18 306.576 168.372 306.672L168.292 307.48C167.994 307.304 167.706 307.176 167.428 307.096C167.151 307.016 166.863 306.976 166.564 306.976C166.218 306.976 165.94 307.04 165.732 307.168C165.53 307.296 165.428 307.493 165.428 307.76C165.428 307.941 165.474 308.091 165.564 308.208C165.66 308.325 165.796 308.427 165.972 308.512C166.148 308.592 166.394 308.68 166.708 308.776C167.338 308.968 167.807 309.197 168.116 309.464C168.426 309.725 168.58 310.088 168.58 310.552ZM171.364 308.64C171.684 308.64 171.969 308.715 172.22 308.864C172.476 309.008 172.673 309.211 172.812 309.472C172.956 309.728 173.028 310.016 173.028 310.336C173.028 310.677 172.951 310.984 172.796 311.256C172.641 311.523 172.425 311.733 172.148 311.888C171.871 312.037 171.551 312.112 171.188 312.112C170.607 312.112 170.151 311.923 169.82 311.544C169.489 311.165 169.324 310.661 169.324 310.032C169.324 309.477 169.444 308.955 169.684 308.464C169.924 307.968 170.231 307.536 170.604 307.168C170.983 306.8 171.383 306.507 171.804 306.288L172.324 306.776C171.844 307.016 171.417 307.328 171.044 307.712C170.676 308.091 170.412 308.512 170.252 308.976C170.551 308.752 170.921 308.64 171.364 308.64ZM171.188 311.456C171.503 311.456 171.756 311.352 171.948 311.144C172.145 310.936 172.244 310.675 172.244 310.36C172.244 310.056 172.145 309.803 171.948 309.6C171.756 309.397 171.503 309.296 171.188 309.296C170.873 309.296 170.617 309.397 170.42 309.6C170.223 309.803 170.124 310.059 170.124 310.368C170.124 310.688 170.22 310.949 170.412 311.152C170.609 311.355 170.868 311.456 171.188 311.456ZM173.831 309.168H176.311V309.856H173.831V309.168ZM177.88 307.496C177.704 307.64 177.552 307.747 177.424 307.816C177.302 307.885 177.176 307.941 177.048 307.984L176.92 307.272C177.144 307.197 177.366 307.08 177.584 306.92C177.808 306.755 177.979 306.581 178.096 306.4H178.616V312H177.88V307.496ZM182.05 312.112C181.564 312.112 181.143 311.987 180.786 311.736C180.434 311.485 180.162 311.136 179.97 310.688C179.783 310.24 179.69 309.728 179.69 309.152C179.69 308.581 179.788 308.08 179.986 307.648C180.188 307.216 180.468 306.883 180.826 306.648C181.183 306.408 181.591 306.288 182.05 306.288C182.519 306.288 182.932 306.408 183.29 306.648C183.647 306.883 183.922 307.216 184.114 307.648C184.311 308.08 184.41 308.581 184.41 309.152C184.41 309.728 184.316 310.24 184.13 310.688C183.943 311.136 183.671 311.485 183.314 311.736C182.956 311.987 182.535 312.112 182.05 312.112ZM182.05 311.424C182.546 311.424 182.927 311.227 183.194 310.832C183.466 310.437 183.602 309.877 183.602 309.152C183.602 308.437 183.463 307.896 183.186 307.528C182.914 307.16 182.535 306.976 182.05 306.976C181.586 306.976 181.21 307.163 180.922 307.536C180.639 307.909 180.498 308.448 180.498 309.152C180.498 309.877 180.631 310.437 180.898 310.832C181.17 311.227 181.554 311.424 182.05 311.424Z" fill="black"/>
<path d="M231.873 310.552C231.873 310.984 231.729 311.333 231.441 311.6C231.159 311.861 230.74 312.024 230.185 312.088L230.241 313.152H229.617L229.673 312.112C229.348 312.112 229.015 312.075 228.673 312C228.337 311.931 228.065 311.848 227.857 311.752L227.961 310.944C228.228 311.072 228.529 311.184 228.865 311.28C229.201 311.376 229.535 311.424 229.865 311.424C230.239 311.424 230.527 311.357 230.729 311.224C230.937 311.085 231.041 310.88 231.041 310.608C231.041 310.405 230.988 310.237 230.881 310.104C230.78 309.965 230.628 309.851 230.425 309.76C230.228 309.664 229.951 309.563 229.593 309.456C229.231 309.349 228.929 309.235 228.689 309.112C228.449 308.989 228.255 308.821 228.105 308.608C227.961 308.395 227.889 308.125 227.889 307.8C227.889 307.368 228.044 307.019 228.353 306.752C228.668 306.48 229.111 306.328 229.681 306.296L229.617 305.248H230.241L230.177 306.296C230.465 306.312 230.737 306.355 230.993 306.424C231.249 306.493 231.473 306.576 231.665 306.672L231.585 307.48C231.287 307.304 230.999 307.176 230.721 307.096C230.444 307.016 230.156 306.976 229.857 306.976C229.511 306.976 229.233 307.04 229.025 307.168C228.823 307.296 228.721 307.493 228.721 307.76C228.721 307.941 228.767 308.091 228.857 308.208C228.953 308.325 229.089 308.427 229.265 308.512C229.441 308.592 229.687 308.68 230.001 308.776C230.631 308.968 231.1 309.197 231.409 309.464C231.719 309.725 231.873 310.088 231.873 310.552ZM233.353 307.496C233.177 307.64 233.025 307.747 232.897 307.816C232.774 307.885 232.649 307.941 232.521 307.984L232.393 307.272C232.617 307.197 232.838 307.08 233.057 306.92C233.281 306.755 233.452 306.581 233.569 306.4H234.089V312H233.353V307.496ZM235.962 307.496C235.786 307.64 235.634 307.747 235.506 307.816C235.384 307.885 235.258 307.941 235.13 307.984L235.002 307.272C235.226 307.197 235.448 307.08 235.666 306.92C235.89 306.755 236.061 306.581 236.178 306.4H236.698V312H235.962V307.496ZM237.796 309.168H240.276V309.856H237.796V309.168ZM241.845 307.496C241.669 307.64 241.517 307.747 241.389 307.816C241.267 307.885 241.141 307.941 241.013 307.984L240.885 307.272C241.109 307.197 241.331 307.08 241.549 306.92C241.773 306.755 241.944 306.581 242.061 306.4H242.581V312H241.845V307.496ZM245.303 308.464C245.692 308.464 246.028 308.541 246.311 308.696C246.593 308.851 246.809 309.064 246.959 309.336C247.108 309.608 247.183 309.917 247.183 310.264C247.183 310.637 247.095 310.963 246.919 311.24C246.748 311.517 246.511 311.733 246.207 311.888C245.908 312.037 245.569 312.112 245.191 312.112C244.903 312.112 244.62 312.075 244.343 312C244.071 311.925 243.833 311.821 243.631 311.688L243.815 310.984C244.044 311.112 244.263 311.211 244.471 311.28C244.679 311.344 244.905 311.376 245.151 311.376C245.508 311.376 245.796 311.275 246.015 311.072C246.239 310.869 246.351 310.6 246.351 310.264C246.351 309.891 246.233 309.603 245.999 309.4C245.764 309.192 245.449 309.088 245.055 309.088C244.719 309.088 244.343 309.141 243.927 309.248L244.271 306.4H246.911L246.879 307.12H244.895L244.727 308.504C244.929 308.477 245.121 308.464 245.303 308.464Z" fill="black"/>
<path d="M58.6764 219.936C58.9431 220.08 59.1484 220.28 59.2924 220.536C59.4418 220.787 59.5164 221.075 59.5164 221.4C59.5164 221.736 59.4364 222.035 59.2764 222.296C59.1164 222.552 58.8898 222.752 58.5964 222.896C58.3031 223.04 57.9618 223.112 57.5724 223.112C57.1778 223.112 56.8338 223.04 56.5404 222.896C56.2471 222.752 56.0204 222.552 55.8604 222.296C55.7058 222.035 55.6284 221.736 55.6284 221.4C55.6284 221.075 55.7031 220.784 55.8524 220.528C56.0018 220.272 56.2098 220.072 56.4764 219.928C56.2898 219.795 56.1431 219.632 56.0364 219.44C55.9351 219.243 55.8844 219.029 55.8844 218.8C55.8844 218.539 55.9431 218.293 56.0604 218.064C56.1831 217.835 56.3698 217.648 56.6204 217.504C56.8764 217.36 57.1938 217.288 57.5724 217.288C57.9511 217.288 58.2631 217.36 58.5084 217.504C58.7591 217.648 58.9404 217.835 59.0524 218.064C59.1698 218.293 59.2284 218.539 59.2284 218.8C59.2284 219.04 59.1804 219.256 59.0844 219.448C58.9884 219.64 58.8524 219.803 58.6764 219.936ZM57.5724 217.976C57.2791 217.976 57.0498 218.051 56.8844 218.2C56.7244 218.349 56.6444 218.549 56.6444 218.8C56.6444 219.035 56.7271 219.232 56.8924 219.392C57.0578 219.552 57.2844 219.632 57.5724 219.632C57.8551 219.632 58.0738 219.555 58.2284 219.4C58.3884 219.24 58.4684 219.04 58.4684 218.8C58.4684 218.549 58.3911 218.349 58.2364 218.2C58.0818 218.051 57.8604 217.976 57.5724 217.976ZM57.5724 222.424C57.9351 222.424 58.2178 222.333 58.4204 222.152C58.6284 221.965 58.7324 221.715 58.7324 221.4C58.7324 221.075 58.6284 220.811 58.4204 220.608C58.2178 220.4 57.9351 220.296 57.5724 220.296C57.2098 220.296 56.9244 220.4 56.7164 220.608C56.5138 220.811 56.4124 221.075 56.4124 221.4C56.4124 221.715 56.5138 221.965 56.7164 222.152C56.9244 222.333 57.2098 222.424 57.5724 222.424Z" fill="black"/>
<path d="M53.9976 155.496C53.8216 155.64 53.6696 155.747 53.5416 155.816C53.419 155.885 53.2936 155.941 53.1656 155.984L53.0376 155.272C53.2616 155.197 53.483 155.08 53.7016 154.92C53.9256 154.755 54.0963 154.581 54.2136 154.4H54.7336V160H53.9976V155.496ZM59.783 157.904V158.552H59.063V160H58.295V158.552H55.535L58.511 154.4H59.063V157.904H59.783ZM58.295 157.904V155.816L56.807 157.904H58.295Z" fill="black"/>
<path d="M52.2028 94.672C52.4801 94.256 52.6828 93.912 52.8108 93.64C52.9388 93.368 53.0028 93.12 53.0028 92.896C53.0028 92.6187 52.9228 92.4 52.7628 92.24C52.6081 92.0747 52.3974 91.992 52.1308 91.992C51.6348 91.992 51.1814 92.2027 50.7708 92.624L50.6748 91.824C50.8774 91.664 51.1094 91.5333 51.3708 91.432C51.6321 91.3307 51.9121 91.28 52.2108 91.28C52.7068 91.28 53.0908 91.424 53.3628 91.712C53.6348 92 53.7708 92.368 53.7708 92.816C53.7708 93.168 53.7014 93.5013 53.5628 93.816C53.4294 94.1307 53.2001 94.5333 52.8748 95.024L52.0268 96.304H53.9868V96.992H50.6748L52.2028 94.672ZM57.2061 97.112C56.7207 97.112 56.2994 96.9867 55.9421 96.736C55.5901 96.4853 55.3181 96.136 55.1261 95.688C54.9394 95.24 54.8461 94.728 54.8461 94.152C54.8461 93.5813 54.9447 93.08 55.1421 92.648C55.3447 92.216 55.6247 91.8827 55.9821 91.648C56.3394 91.408 56.7474 91.288 57.2061 91.288C57.6754 91.288 58.0887 91.408 58.4461 91.648C58.8034 91.8827 59.0781 92.216 59.2701 92.648C59.4674 93.08 59.5661 93.5813 59.5661 94.152C59.5661 94.728 59.4727 95.24 59.2861 95.688C59.0994 96.136 58.8274 96.4853 58.4701 96.736C58.1127 96.9867 57.6914 97.112 57.2061 97.112ZM57.2061 96.424C57.7021 96.424 58.0834 96.2267 58.3501 95.832C58.6221 95.4373 58.7581 94.8773 58.7581 94.152C58.7581 93.4373 58.6194 92.896 58.3421 92.528C58.0701 92.16 57.6914 91.976 57.2061 91.976C56.7421 91.976 56.3661 92.1627 56.0781 92.536C55.7954 92.9093 55.6541 93.448 55.6541 94.152C55.6541 94.8773 55.7874 95.4373 56.0541 95.832C56.3261 96.2267 56.7101 96.424 57.2061 96.424Z" fill="black"/>
<path d="M59.783 262.904V263.552H59.063V265H58.295V263.552H55.535L58.511 259.4H59.063V262.904H59.783ZM58.295 262.904V260.816L56.807 262.904H58.295Z" fill="black"/>
<path d="M53.0367 197.496C52.8607 197.64 52.7087 197.747 52.5807 197.816C52.458 197.885 52.3327 197.941 52.2047 197.984L52.0767 197.272C52.3007 197.197 52.522 197.08 52.7407 196.92C52.9647 196.755 53.1354 196.581 53.2527 196.4H53.7727V202H53.0367V197.496ZM57.2061 202.112C56.7207 202.112 56.2994 201.987 55.9421 201.736C55.5901 201.485 55.3181 201.136 55.1261 200.688C54.9394 200.24 54.8461 199.728 54.8461 199.152C54.8461 198.581 54.9447 198.08 55.1421 197.648C55.3447 197.216 55.6247 196.883 55.9821 196.648C56.3394 196.408 56.7474 196.288 57.2061 196.288C57.6754 196.288 58.0887 196.408 58.4461 196.648C58.8034 196.883 59.0781 197.216 59.2701 197.648C59.4674 198.08 59.5661 198.581 59.5661 199.152C59.5661 199.728 59.4727 200.24 59.2861 200.688C59.0994 201.136 58.8274 201.485 58.4701 201.736C58.1127 201.987 57.6914 202.112 57.2061 202.112ZM57.2061 201.424C57.7021 201.424 58.0834 201.227 58.3501 200.832C58.6221 200.437 58.7581 199.877 58.7581 199.152C58.7581 198.437 58.6194 197.896 58.3421 197.528C58.0701 197.16 57.6914 196.976 57.2061 196.976C56.7421 196.976 56.3661 197.163 56.0781 197.536C55.7954 197.909 55.6541 198.448 55.6541 199.152C55.6541 199.877 55.7874 200.437 56.0541 200.832C56.3261 201.227 56.7101 201.424 57.2061 201.424Z" fill="black"/>
<path d="M54.0758 134.496C53.8998 134.64 53.7478 134.747 53.6198 134.816C53.4971 134.885 53.3718 134.941 53.2438 134.984L53.1158 134.272C53.3398 134.197 53.5611 134.08 53.7798 133.92C54.0038 133.755 54.1744 133.581 54.2918 133.4H54.8118V139H54.0758V134.496ZM57.9891 135.64C58.3091 135.64 58.5945 135.715 58.8451 135.864C59.1011 136.008 59.2985 136.211 59.4371 136.472C59.5811 136.728 59.6531 137.016 59.6531 137.336C59.6531 137.677 59.5758 137.984 59.4211 138.256C59.2665 138.523 59.0505 138.733 58.7731 138.888C58.4958 139.037 58.1758 139.112 57.8131 139.112C57.2318 139.112 56.7758 138.923 56.4451 138.544C56.1145 138.165 55.9491 137.661 55.9491 137.032C55.9491 136.477 56.0691 135.955 56.3091 135.464C56.5491 134.968 56.8558 134.536 57.2291 134.168C57.6078 133.8 58.0078 133.507 58.4291 133.288L58.9491 133.776C58.4691 134.016 58.0425 134.328 57.6691 134.712C57.3011 135.091 57.0371 135.512 56.8771 135.976C57.1758 135.752 57.5465 135.64 57.9891 135.64ZM57.8131 138.456C58.1278 138.456 58.3811 138.352 58.5731 138.144C58.7705 137.936 58.8691 137.675 58.8691 137.36C58.8691 137.056 58.7705 136.803 58.5731 136.6C58.3811 136.397 58.1278 136.296 57.8131 136.296C57.4985 136.296 57.2425 136.397 57.0451 136.6C56.8478 136.803 56.7491 137.059 56.7491 137.368C56.7491 137.688 56.8451 137.949 57.0371 138.152C57.2345 138.355 57.4931 138.456 57.8131 138.456Z" fill="black"/>
<path d="M53.5934 73.672C53.8707 73.256 54.0734 72.912 54.2014 72.64C54.3294 72.368 54.3934 72.12 54.3934 71.896C54.3934 71.6187 54.3134 71.4 54.1534 71.24C53.9987 71.0747 53.788 70.992 53.5214 70.992C53.0254 70.992 52.572 71.2027 52.1614 71.624L52.0654 70.824C52.268 70.664 52.5 70.5333 52.7614 70.432C53.0227 70.3307 53.3027 70.28 53.6014 70.28C54.0974 70.28 54.4814 70.424 54.7534 70.712C55.0254 71 55.1614 71.368 55.1614 71.816C55.1614 72.168 55.092 72.5013 54.9534 72.816C54.82 73.1307 54.5907 73.5333 54.2654 74.024L53.4174 75.304H55.3774V75.992H52.0654L53.5934 73.672ZM57.7887 73.672C58.066 73.256 58.2687 72.912 58.3967 72.64C58.5247 72.368 58.5887 72.12 58.5887 71.896C58.5887 71.6187 58.5087 71.4 58.3487 71.24C58.194 71.0747 57.9834 70.992 57.7167 70.992C57.2207 70.992 56.7674 71.2027 56.3567 71.624L56.2607 70.824C56.4634 70.664 56.6954 70.5333 56.9567 70.432C57.218 70.3307 57.498 70.28 57.7967 70.28C58.2927 70.28 58.6767 70.424 58.9487 70.712C59.2207 71 59.3567 71.368 59.3567 71.816C59.3567 72.168 59.2874 72.5013 59.1487 72.816C59.0154 73.1307 58.786 73.5333 58.4607 74.024L57.6127 75.304H59.5727V75.992H56.2607L57.7887 73.672Z" fill="black"/>
<path d="M57.9891 240.64C58.3091 240.64 58.5945 240.715 58.8451 240.864C59.1011 241.008 59.2985 241.211 59.4371 241.472C59.5811 241.728 59.6531 242.016 59.6531 242.336C59.6531 242.677 59.5758 242.984 59.4211 243.256C59.2665 243.523 59.0505 243.733 58.7731 243.888C58.4958 244.037 58.1758 244.112 57.8131 244.112C57.2318 244.112 56.7758 243.923 56.4451 243.544C56.1145 243.165 55.9491 242.661 55.9491 242.032C55.9491 241.477 56.0691 240.955 56.3091 240.464C56.5491 239.968 56.8558 239.536 57.2291 239.168C57.6078 238.8 58.0078 238.507 58.4291 238.288L58.9491 238.776C58.4691 239.016 58.0425 239.328 57.6691 239.712C57.3011 240.091 57.0371 240.512 56.8771 240.976C57.1758 240.752 57.5465 240.64 57.9891 240.64ZM57.8131 243.456C58.1278 243.456 58.3811 243.352 58.5731 243.144C58.7705 242.936 58.8691 242.675 58.8691 242.36C58.8691 242.056 58.7705 241.803 58.5731 241.6C58.3811 241.397 58.1278 241.296 57.8131 241.296C57.4985 241.296 57.2425 241.397 57.0451 241.6C56.8478 241.803 56.7491 242.059 56.7491 242.368C56.7491 242.688 56.8451 242.949 57.0371 243.152C57.2345 243.355 57.4931 243.456 57.8131 243.456Z" fill="black"/>
<path d="M54.4273 176.496C54.2513 176.64 54.0993 176.747 53.9713 176.816C53.8486 176.885 53.7233 176.941 53.5953 176.984L53.4673 176.272C53.6913 176.197 53.9126 176.08 54.1313 175.92C54.3553 175.755 54.526 175.581 54.6433 175.4H55.1633V181H54.4273V176.496ZM57.7887 178.672C58.066 178.256 58.2687 177.912 58.3967 177.64C58.5247 177.368 58.5887 177.12 58.5887 176.896C58.5887 176.619 58.5087 176.4 58.3487 176.24C58.194 176.075 57.9834 175.992 57.7167 175.992C57.2207 175.992 56.7674 176.203 56.3567 176.624L56.2607 175.824C56.4634 175.664 56.6954 175.533 56.9567 175.432C57.218 175.331 57.498 175.28 57.7967 175.28C58.2927 175.28 58.6767 175.424 58.9487 175.712C59.2207 176 59.3567 176.368 59.3567 176.816C59.3567 177.168 59.2874 177.501 59.1487 177.816C59.0154 178.131 58.786 178.533 58.4607 179.024L57.6127 180.304H59.5727V180.992H56.2607L57.7887 178.672Z" fill="black"/>
<path d="M53.7711 113.496C53.5951 113.64 53.4431 113.747 53.3151 113.816C53.1924 113.885 53.0671 113.941 52.9391 113.984L52.8111 113.272C53.0351 113.197 53.2564 113.08 53.4751 112.92C53.6991 112.755 53.8697 112.581 53.9871 112.4H54.5071V118H53.7711V113.496ZM58.6764 114.936C58.9431 115.08 59.1484 115.28 59.2924 115.536C59.4418 115.787 59.5164 116.075 59.5164 116.4C59.5164 116.736 59.4364 117.035 59.2764 117.296C59.1164 117.552 58.8898 117.752 58.5964 117.896C58.3031 118.04 57.9618 118.112 57.5724 118.112C57.1778 118.112 56.8338 118.04 56.5404 117.896C56.2471 117.752 56.0204 117.552 55.8604 117.296C55.7058 117.035 55.6284 116.736 55.6284 116.4C55.6284 116.075 55.7031 115.784 55.8524 115.528C56.0018 115.272 56.2098 115.072 56.4764 114.928C56.2898 114.795 56.1431 114.632 56.0364 114.44C55.9351 114.243 55.8844 114.029 55.8844 113.8C55.8844 113.539 55.9431 113.293 56.0604 113.064C56.1831 112.835 56.3698 112.648 56.6204 112.504C56.8764 112.36 57.1938 112.288 57.5724 112.288C57.9511 112.288 58.2631 112.36 58.5084 112.504C58.7591 112.648 58.9404 112.835 59.0524 113.064C59.1698 113.293 59.2284 113.539 59.2284 113.8C59.2284 114.04 59.1804 114.256 59.0844 114.448C58.9884 114.64 58.8524 114.803 58.6764 114.936ZM57.5724 112.976C57.2791 112.976 57.0498 113.051 56.8844 113.2C56.7244 113.349 56.6444 113.549 56.6444 113.8C56.6444 114.035 56.7271 114.232 56.8924 114.392C57.0578 114.552 57.2844 114.632 57.5724 114.632C57.8551 114.632 58.0738 114.555 58.2284 114.4C58.3884 114.24 58.4684 114.04 58.4684 113.8C58.4684 113.549 58.3911 113.349 58.2364 113.2C58.0818 113.051 57.8604 112.976 57.5724 112.976ZM57.5724 117.424C57.9351 117.424 58.2178 117.333 58.4204 117.152C58.6284 116.965 58.7324 116.715 58.7324 116.4C58.7324 116.075 58.6284 115.811 58.4204 115.608C58.2178 115.4 57.9351 115.296 57.5724 115.296C57.2098 115.296 56.9244 115.4 56.7164 115.608C56.5138 115.811 56.4124 116.075 56.4124 116.4C56.4124 116.715 56.5138 116.965 56.7164 117.152C56.9244 117.333 57.2098 117.424 57.5724 117.424Z" fill="black"/>
<path d="M53.1637 52.672C53.441 52.256 53.6437 51.912 53.7717 51.64C53.8997 51.368 53.9637 51.12 53.9637 50.896C53.9637 50.6187 53.8837 50.4 53.7237 50.24C53.569 50.0747 53.3584 49.992 53.0917 49.992C52.5957 49.992 52.1424 50.2027 51.7317 50.624L51.6357 49.824C51.8384 49.664 52.0704 49.5333 52.3317 49.432C52.593 49.3307 52.873 49.28 53.1717 49.28C53.6677 49.28 54.0517 49.424 54.3237 49.712C54.5957 50 54.7317 50.368 54.7317 50.816C54.7317 51.168 54.6624 51.5013 54.5237 51.816C54.3904 52.1307 54.161 52.5333 53.8357 53.024L52.9877 54.304H54.9477V54.992H51.6357L53.1637 52.672ZM59.783 52.904V53.552H59.063V55H58.295V53.552H55.535L58.511 49.4H59.063V52.904H59.783ZM58.295 52.904V50.816L56.807 52.904H58.295Z" fill="black"/>
<g filter="url(#filter1_dd)">
<path d="M95 181C95 176.582 98.5817 173 103 173H120C124.418 173 128 176.582 128 181V298H95V181Z" fill="white"/>
<path d="M96 181C96 177.134 99.134 174 103 174H120C123.866 174 127 177.134 127 181V297H96V181Z" stroke="#276DF6" stroke-width="2"/>
</g>
<g filter="url(#filter2_dd)">
<path d="M158 223C158 218.582 161.582 215 166 215H183C187.418 215 191 218.582 191 223V298H158V223Z" fill="white"/>
<path d="M159 223C159 219.134 162.134 216 166 216H183C186.866 216 190 219.134 190 223V297H159V223Z" stroke="#276DF6" stroke-width="2"/>
</g>
<g filter="url(#filter3_dd)">
<path d="M221 265C221 260.582 224.582 257 229 257H246C250.418 257 254 260.582 254 265V298H221V265Z" fill="white"/>
<path d="M222 265C222 261.134 225.134 258 229 258H246C249.866 258 253 261.134 253 265V297H222V265Z" stroke="#276DF6" stroke-width="2"/>
</g>
<g filter="url(#filter4_dd)">
<path d="M284 244C284 239.582 287.582 236 292 236H309C313.418 236 317 239.582 317 244V298H284V244Z" fill="white"/>
<path d="M285 244C285 240.134 288.134 237 292 237H309C312.866 237 316 240.134 316 244V297H285V244Z" stroke="#276DF6" stroke-width="2"/>
</g>
<path d="M126 181C126 177.686 123.314 175 120 175L103 175C99.6863 175 97 177.686 97 181L97 298L126 298L126 181Z" fill="#B6D7F4"/>
<path d="M189 223C189 219.686 186.314 217 183 217L166 217C162.686 217 160 219.686 160 223L160 298L189 298L189 223Z" fill="#B6D7F4"/>
<path d="M252 265C252 261.686 249.314 259 246 259L229 259C225.686 259 223 261.686 223 265L223 298L252 298L252 265Z" fill="#B6D7F4"/>
<path d="M300.911 223.948C301.375 223.948 301.795 224.056 302.171 224.272C302.547 224.488 302.839 224.788 303.047 225.172C303.263 225.556 303.371 225.992 303.371 226.48C303.371 227.008 303.259 227.476 303.035 227.884C302.811 228.292 302.491 228.608 302.075 228.832C301.659 229.056 301.171 229.168 300.611 229.168C300.035 229.168 299.527 229.04 299.087 228.784C298.647 228.52 298.307 228.152 298.067 227.68C297.827 227.208 297.707 226.66 297.707 226.036C297.707 225.188 297.899 224.392 298.283 223.648C298.667 222.904 299.151 222.26 299.735 221.716C300.327 221.172 300.931 220.744 301.547 220.432L302.615 221.272C302.031 221.56 301.423 221.976 300.791 222.52C300.159 223.056 299.695 223.668 299.399 224.356C299.815 224.084 300.319 223.948 300.911 223.948ZM300.635 227.896C301.019 227.896 301.339 227.768 301.595 227.512C301.851 227.248 301.979 226.924 301.979 226.54C301.979 226.164 301.851 225.852 301.595 225.604C301.339 225.348 301.019 225.22 300.635 225.22C300.243 225.22 299.919 225.348 299.663 225.604C299.415 225.852 299.291 226.164 299.291 226.54C299.291 226.924 299.419 227.248 299.675 227.512C299.931 227.768 300.251 227.896 300.635 227.896Z" fill="black"/>
<path d="M294.873 310.552C294.873 310.984 294.729 311.333 294.441 311.6C294.159 311.861 293.74 312.024 293.185 312.088L293.241 313.152H292.617L292.673 312.112C292.348 312.112 292.015 312.075 291.673 312C291.337 311.931 291.065 311.848 290.857 311.752L290.961 310.944C291.228 311.072 291.529 311.184 291.865 311.28C292.201 311.376 292.535 311.424 292.865 311.424C293.239 311.424 293.527 311.357 293.729 311.224C293.937 311.085 294.041 310.88 294.041 310.608C294.041 310.405 293.988 310.237 293.881 310.104C293.78 309.965 293.628 309.851 293.425 309.76C293.228 309.664 292.951 309.563 292.593 309.456C292.231 309.349 291.929 309.235 291.689 309.112C291.449 308.989 291.255 308.821 291.105 308.608C290.961 308.395 290.889 308.125 290.889 307.8C290.889 307.368 291.044 307.019 291.353 306.752C291.668 306.48 292.111 306.328 292.681 306.296L292.617 305.248H293.241L293.177 306.296C293.465 306.312 293.737 306.355 293.993 306.424C294.249 306.493 294.473 306.576 294.665 306.672L294.585 307.48C294.287 307.304 293.999 307.176 293.721 307.096C293.444 307.016 293.156 306.976 292.857 306.976C292.511 306.976 292.233 307.04 292.025 307.168C291.823 307.296 291.721 307.493 291.721 307.76C291.721 307.941 291.767 308.091 291.857 308.208C291.953 308.325 292.089 308.427 292.265 308.512C292.441 308.592 292.687 308.68 293.001 308.776C293.631 308.968 294.1 309.197 294.409 309.464C294.719 309.725 294.873 310.088 294.873 310.552ZM296.353 307.496C296.177 307.64 296.025 307.747 295.897 307.816C295.774 307.885 295.649 307.941 295.521 307.984L295.393 307.272C295.617 307.197 295.838 307.08 296.057 306.92C296.281 306.755 296.452 306.581 296.569 306.4H297.089V312H296.353V307.496ZM298.962 307.496C298.786 307.64 298.634 307.747 298.506 307.816C298.384 307.885 298.258 307.941 298.13 307.984L298.002 307.272C298.226 307.197 298.448 307.08 298.666 306.92C298.89 306.755 299.061 306.581 299.178 306.4H299.698V312H298.962V307.496ZM300.796 309.168H303.276V309.856H300.796V309.168ZM304.845 307.496C304.669 307.64 304.517 307.747 304.389 307.816C304.267 307.885 304.141 307.941 304.013 307.984L303.885 307.272C304.109 307.197 304.331 307.08 304.549 306.92C304.773 306.755 304.944 306.581 305.061 306.4H305.581V312H304.845V307.496ZM308.303 308.464C308.692 308.464 309.028 308.541 309.311 308.696C309.593 308.851 309.809 309.064 309.959 309.336C310.108 309.608 310.183 309.917 310.183 310.264C310.183 310.637 310.095 310.963 309.919 311.24C309.748 311.517 309.511 311.733 309.207 311.888C308.908 312.037 308.569 312.112 308.191 312.112C307.903 312.112 307.62 312.075 307.343 312C307.071 311.925 306.833 311.821 306.631 311.688L306.815 310.984C307.044 311.112 307.263 311.211 307.471 311.28C307.679 311.344 307.905 311.376 308.151 311.376C308.508 311.376 308.796 311.275 309.015 311.072C309.239 310.869 309.351 310.6 309.351 310.264C309.351 309.891 309.233 309.603 308.999 309.4C308.764 309.192 308.449 309.088 308.055 309.088C307.719 309.088 307.343 309.141 306.927 309.248L307.271 306.4H309.911L309.879 307.12H307.895L307.727 308.504C307.929 308.477 308.121 308.464 308.303 308.464Z" fill="black"/>
<path d="M315 244C315 240.686 312.314 238 309 238L292 238C288.686 238 286 240.686 286 244L286 298L315 298L315 244Z" fill="#B6D7F4"/>
<defs>
<filter id="filter0_dd" x="0" y="0" width="364" height="364" filterUnits="userSpaceOnUse" color-interpolation-filters="sRGB">
<feFlood flood-opacity="0" result="BackgroundImageFix"/>
<feColorMatrix in="SourceAlpha" type="matrix" values="0 0 0 0 0 0 0 0 0 0 0 0 0 0 0 0 0 0 127 0"/>
<feOffset dx="5" dy="5"/>
<feGaussianBlur stdDeviation="7.5"/>
<feColorMatrix type="matrix" values="0 0 0 0 0.652778 0 0 0 0 0.706536 0 0 0 0 0.783333 0 0 0 0.4 0"/>
<feBlend mode="normal" in2="BackgroundImageFix" result="effect1_dropShadow"/>
<feColorMatrix in="SourceAlpha" type="matrix" values="0 0 0 0 0 0 0 0 0 0 0 0 0 0 0 0 0 0 127 0"/>
<feOffset dx="-6" dy="-6"/>
<feGaussianBlur stdDeviation="7.5"/>
<feColorMatrix type="matrix" values="0 0 0 0 1 0 0 0 0 1 0 0 0 0 1 0 0 0 0.4 0"/>
<feBlend mode="normal" in2="effect1_dropShadow" result="effect2_dropShadow"/>
<feBlend mode="normal" in="SourceGraphic" in2="effect2_dropShadow" result="shape"/>
</filter>
<filter id="filter1_dd" x="74" y="152" width="74" height="166" filterUnits="userSpaceOnUse" color-interpolation-filters="sRGB">
<feFlood flood-opacity="0" result="BackgroundImageFix"/>
<feColorMatrix in="SourceAlpha" type="matrix" values="0 0 0 0 0 0 0 0 0 0 0 0 0 0 0 0 0 0 127 0"/>
<feOffset dx="5" dy="5"/>
<feGaussianBlur stdDeviation="7.5"/>
<feColorMatrix type="matrix" values="0 0 0 0 0.652778 0 0 0 0 0.706536 0 0 0 0 0.783333 0 0 0 0.4 0"/>
<feBlend mode="normal" in2="BackgroundImageFix" result="effect1_dropShadow"/>
<feColorMatrix in="SourceAlpha" type="matrix" values="0 0 0 0 0 0 0 0 0 0 0 0 0 0 0 0 0 0 127 0"/>
<feOffset dx="-6" dy="-6"/>
<feGaussianBlur stdDeviation="7.5"/>
<feColorMatrix type="matrix" values="0 0 0 0 1 0 0 0 0 1 0 0 0 0 1 0 0 0 0.4 0"/>
<feBlend mode="normal" in2="effect1_dropShadow" result="effect2_dropShadow"/>
<feBlend mode="normal" in="SourceGraphic" in2="effect2_dropShadow" result="shape"/>
</filter>
<filter id="filter2_dd" x="137" y="194" width="74" height="124" filterUnits="userSpaceOnUse" color-interpolation-filters="sRGB">
<feFlood flood-opacity="0" result="BackgroundImageFix"/>
<feColorMatrix in="SourceAlpha" type="matrix" values="0 0 0 0 0 0 0 0 0 0 0 0 0 0 0 0 0 0 127 0"/>
<feOffset dx="5" dy="5"/>
<feGaussianBlur stdDeviation="7.5"/>
<feColorMatrix type="matrix" values="0 0 0 0 0.652778 0 0 0 0 0.706536 0 0 0 0 0.783333 0 0 0 0.4 0"/>
<feBlend mode="normal" in2="BackgroundImageFix" result="effect1_dropShadow"/>
<feColorMatrix in="SourceAlpha" type="matrix" values="0 0 0 0 0 0 0 0 0 0 0 0 0 0 0 0 0 0 127 0"/>
<feOffset dx="-6" dy="-6"/>
<feGaussianBlur stdDeviation="7.5"/>
<feColorMatrix type="matrix" values="0 0 0 0 1 0 0 0 0 1 0 0 0 0 1 0 0 0 0.4 0"/>
<feBlend mode="normal" in2="effect1_dropShadow" result="effect2_dropShadow"/>
<feBlend mode="normal" in="SourceGraphic" in2="effect2_dropShadow" result="shape"/>
</filter>
<filter id="filter3_dd" x="200" y="236" width="74" height="82" filterUnits="userSpaceOnUse" color-interpolation-filters="sRGB">
<feFlood flood-opacity="0" result="BackgroundImageFix"/>
<feColorMatrix in="SourceAlpha" type="matrix" values="0 0 0 0 0 0 0 0 0 0 0 0 0 0 0 0 0 0 127 0"/>
<feOffset dx="5" dy="5"/>
<feGaussianBlur stdDeviation="7.5"/>
<feColorMatrix type="matrix" values="0 0 0 0 0.652778 0 0 0 0 0.706536 0 0 0 0 0.783333 0 0 0 0.4 0"/>
<feBlend mode="normal" in2="BackgroundImageFix" result="effect1_dropShadow"/>
<feColorMatrix in="SourceAlpha" type="matrix" values="0 0 0 0 0 0 0 0 0 0 0 0 0 0 0 0 0 0 127 0"/>
<feOffset dx="-6" dy="-6"/>
<feGaussianBlur stdDeviation="7.5"/>
<feColorMatrix type="matrix" values="0 0 0 0 1 0 0 0 0 1 0 0 0 0 1 0 0 0 0.4 0"/>
<feBlend mode="normal" in2="effect1_dropShadow" result="effect2_dropShadow"/>
<feBlend mode="normal" in="SourceGraphic" in2="effect2_dropShadow" result="shape"/>
</filter>
<filter id="filter4_dd" x="263" y="215" width="74" height="103" filterUnits="userSpaceOnUse" color-interpolation-filters="sRGB">
<feFlood flood-opacity="0" result="BackgroundImageFix"/>
<feColorMatrix in="SourceAlpha" type="matrix" values="0 0 0 0 0 0 0 0 0 0 0 0 0 0 0 0 0 0 127 0"/>
<feOffset dx="5" dy="5"/>
<feGaussianBlur stdDeviation="7.5"/>
<feColorMatrix type="matrix" values="0 0 0 0 0.652778 0 0 0 0 0.706536 0 0 0 0 0.783333 0 0 0 0.4 0"/>
<feBlend mode="normal" in2="BackgroundImageFix" result="effect1_dropShadow"/>
<feColorMatrix in="SourceAlpha" type="matrix" values="0 0 0 0 0 0 0 0 0 0 0 0 0 0 0 0 0 0 127 0"/>
<feOffset dx="-6" dy="-6"/>
<feGaussianBlur stdDeviation="7.5"/>
<feColorMatrix type="matrix" values="0 0 0 0 1 0 0 0 0 1 0 0 0 0 1 0 0 0 0.4 0"/>
<feBlend mode="normal" in2="effect1_dropShadow" result="effect2_dropShadow"/>
<feBlend mode="normal" in="SourceGraphic" in2="effect2_dropShadow" result="shape"/>
</filter>
<linearGradient id="paint0_linear" x1="21" y1="21" x2="345.495" y2="342.491" gradientUnits="userSpaceOnUse">
<stop stop-color="#FEFEFF"/>
<stop offset="1" stop-color="#E1E7F0"/>
</linearGradient>
</defs>
</svg>
