<svg width="27" height="36" viewBox="0 0 27 36" fill="none" xmlns="http://www.w3.org/2000/svg">
<g clip-path="url(#clip0)">
<path d="M25.2 0.224941L22.5 3.37494L18.675 0.224941C18.4807 0.0777993 18.2437 -0.00183281 18 -0.00183281C17.7563 -0.00183281 17.5193 0.0777993 17.325 0.224941L13.5 3.37494L9.675 0.224941C9.48073 0.0777993 9.2437 -0.00183281 9 -0.00183281C8.7563 -0.00183281 8.51927 0.0777993 8.325 0.224941L4.5 3.37494L1.8 0.224941C1.05469 -0.330528 0 0.196816 0 1.12494V34.8749C0 35.8031 1.05469 36.3304 1.8 35.7749L4.5 32.6249L8.325 35.7749C8.51927 35.9221 8.7563 36.0017 9 36.0017C9.2437 36.0017 9.48073 35.9221 9.675 35.7749L13.5 32.6249L17.325 35.7749C17.5193 35.9221 17.7563 36.0017 18 36.0017C18.2437 36.0017 18.4807 35.9221 18.675 35.7749L22.5 32.6249L25.2 35.7749C25.9383 36.3304 27 35.8031 27 34.8749V1.12494C27 0.196816 25.9453 -0.330528 25.2 0.224941ZM22.5 25.3124C22.5 25.6218 22.2469 25.8749 21.9375 25.8749H5.0625C4.75313 25.8749 4.5 25.6218 4.5 25.3124V24.1874C4.5 23.8781 4.75313 23.6249 5.0625 23.6249H21.9375C22.2469 23.6249 22.5 23.8781 22.5 24.1874V25.3124ZM22.5 18.5624C22.5 18.8718 22.2469 19.1249 21.9375 19.1249H5.0625C4.75313 19.1249 4.5 18.8718 4.5 18.5624V17.4374C4.5 17.1281 4.75313 16.8749 5.0625 16.8749H21.9375C22.2469 16.8749 22.5 17.1281 22.5 17.4374V18.5624ZM22.5 11.8124C22.5 12.1218 22.2469 12.3749 21.9375 12.3749H5.0625C4.75313 12.3749 4.5 12.1218 4.5 11.8124V10.6874C4.5 10.3781 4.75313 10.1249 5.0625 10.1249H21.9375C22.2469 10.1249 22.5 10.3781 22.5 10.6874V11.8124Z" fill="black"/>
</g>
<defs>
<clipPath id="clip0">
<rect width="27" height="36" fill="white"/>
</clipPath>
</defs>
</svg>
