<svg width="17" height="16" viewBox="0 0 17 16" fill="none" xmlns="http://www.w3.org/2000/svg">
<path d="M14.0238 11.079V4.05067C14.0238 2.14307 12.4739 0.593145 10.5663 0.593145C8.65872 0.593145 7.10879 2.14307 7.10879 4.05067V11.5589C7.10879 12.4799 6.36066 13.228 5.43964 13.228H5.1237C4.20268 13.228 3.45455 12.4799 3.45455 11.5589V4.95678C4.42623 4.59314 5.12071 3.66021 5.12071 2.56036C5.12071 1.14456 3.97317 0 2.56036 0C1.14754 0 0 1.14754 0 2.56036C0 3.66021 0.694486 4.59314 1.66617 4.95678V11.5589C1.66617 13.4665 3.2161 15.0164 5.1237 15.0164H5.43964C7.34724 15.0164 8.89717 13.4665 8.89717 11.5589V4.05067C8.89717 3.12966 9.6453 2.38152 10.5663 2.38152C11.4873 2.38152 12.2355 3.12966 12.2355 4.05067V11.079H10.155L13.0313 16L16.1013 11.079H14.0238Z" fill="black"/>
</svg>
