<svg width="16" height="16" viewBox="0 0 16 16" fill="none" xmlns="http://www.w3.org/2000/svg">
<path d="M16 9.17788V6.82208H14.6255C14.4511 5.84074 14.0669 4.93328 13.5171 4.14998L14.4896 3.17754L12.8225 1.51043L11.8441 2.4888C11.0608 1.94492 10.1563 1.56363 9.17791 1.39515V0H6.82209V1.40403C5.85258 1.58138 4.95696 1.96564 4.17957 2.51247L3.17754 1.51043L1.51044 3.17754L2.51838 4.18545C1.98042 4.95989 1.60502 5.85552 1.43359 6.82208H0V9.17788H1.43654C1.60798 10.1415 1.98633 11.0342 2.52429 11.8086L1.51044 12.8224L3.17754 14.4895L4.18844 13.4787C4.96287 14.0225 5.85553 14.4068 6.82209 14.5812V15.997H9.17791V14.593C10.1533 14.4245 11.0549 14.0462 11.8382 13.5052L12.8225 14.4895L14.4896 12.8224L13.5112 11.8441C14.061 11.0608 14.4482 10.1563 14.6226 9.17788H16ZM8.03104 10.4873C6.65066 10.4873 5.53334 9.37001 5.53334 7.99259C5.53334 6.61516 6.65066 5.49787 8.03104 5.49787C9.40846 5.49787 10.5258 6.61516 10.5258 7.99259C10.5258 9.37001 9.40846 10.4873 8.03104 10.4873Z" fill="black"/>
</svg>
