<svg width="15" height="16" viewBox="0 0 15 16" fill="none" xmlns="http://www.w3.org/2000/svg">
<path d="M0 10.4758V13.5411C0 14.9053 3.25053 16 7.27579 16C11.3011 16 14.5516 14.9053 14.5516 13.5411V10.4758C12.8168 11.5706 9.90316 12.0085 7.27579 12.0085C4.64842 12.0085 1.73474 11.5706 0 10.4758Z" fill="black"/>
<path d="M7.27579 6.46744C4.64842 6.46744 1.73474 6.02955 0 4.91797V8.00008C0 9.34744 3.25053 10.4422 7.27579 10.4422C11.3011 10.4422 14.5516 9.34745 14.5516 7.98323V4.91797C12.8168 6.02955 9.90316 6.46744 7.27579 6.46744Z" fill="black"/>
<path d="M7.27579 4.9179C11.2941 4.9179 14.5516 3.81699 14.5516 2.45895C14.5516 1.10091 11.2941 0 7.27579 0C3.25748 0 0 1.10091 0 2.45895C0 3.81699 3.25748 4.9179 7.27579 4.9179Z" fill="black"/>
</svg>
