<svg width="359" height="364" viewBox="0 0 359 364" fill="none" xmlns="http://www.w3.org/2000/svg">
<g filter="url(#filter0_dd)">
<rect x="21" y="21" width="318" height="323" rx="8" fill="white"/>
<rect x="21.25" y="21.25" width="317.5" height="322.5" rx="7.75" stroke="url(#paint0_linear)" stroke-width="0.5"/>
</g>
<path d="M178.886 335L178.166 329.372L176.018 333.236L173.858 329.384L173.138 335H171.542L172.706 326.6H173.966L176.018 330.428L178.058 326.6H179.318L180.482 335H178.886ZM184.277 335.12C183.645 335.12 183.097 334.98 182.633 334.7C182.169 334.42 181.813 334.044 181.565 333.572C181.317 333.1 181.193 332.58 181.193 332.012C181.193 331.444 181.317 330.92 181.565 330.44C181.813 329.96 182.169 329.58 182.633 329.3C183.097 329.02 183.645 328.88 184.277 328.88C184.909 328.88 185.457 329.02 185.921 329.3C186.385 329.58 186.741 329.96 186.989 330.44C187.237 330.92 187.361 331.444 187.361 332.012C187.361 332.58 187.237 333.1 186.989 333.572C186.741 334.044 186.385 334.42 185.921 334.7C185.457 334.98 184.909 335.12 184.277 335.12ZM184.277 333.896C184.765 333.896 185.145 333.724 185.417 333.38C185.697 333.036 185.837 332.58 185.837 332.012C185.837 331.436 185.697 330.976 185.417 330.632C185.145 330.28 184.765 330.104 184.277 330.104C183.789 330.104 183.405 330.28 183.125 330.632C182.853 330.976 182.717 331.436 182.717 332.012C182.717 332.58 182.853 333.036 183.125 333.38C183.405 333.724 183.789 333.896 184.277 333.896ZM191.421 328.904C192.165 328.904 192.729 329.152 193.113 329.648C193.497 330.144 193.689 330.812 193.689 331.652V335H192.201V331.772C192.201 331.212 192.105 330.8 191.913 330.536C191.729 330.264 191.429 330.128 191.013 330.128C190.557 330.128 190.181 330.3 189.885 330.644V335H188.397V329H189.789L189.813 329.42C190.317 329.076 190.853 328.904 191.421 328.904ZM196.904 335.12C196.376 335.12 195.976 334.968 195.704 334.664C195.432 334.352 195.296 333.98 195.296 333.548V330.224H194.444L194.576 329H195.296V327.68L196.784 327.524V329H198.104V330.224H196.784V332.936C196.784 333.256 196.8 333.48 196.832 333.608C196.872 333.728 196.948 333.808 197.06 333.848C197.18 333.88 197.392 333.896 197.696 333.896H198.104L197.972 335.12H196.904ZM202.097 328.904C202.857 328.904 203.421 329.152 203.789 329.648C204.165 330.136 204.353 330.808 204.353 331.664V335H202.865V331.772C202.865 331.204 202.773 330.788 202.589 330.524C202.405 330.26 202.113 330.128 201.713 330.128C201.241 330.128 200.853 330.3 200.549 330.644V335H199.061V326H200.549V329.384C200.789 329.232 201.033 329.116 201.281 329.036C201.529 328.948 201.801 328.904 202.097 328.904Z" fill="black"/>
<path d="M41.008 218.351L41.008 221.411L43 222.107L43 223.595L34.6 220.607L34.6 219.155L43 216.167L43 217.655L41.008 218.351ZM39.664 218.831L36.664 219.875L39.664 220.931L39.664 218.831ZM36.904 208.703C36.904 207.903 37.148 207.311 37.636 206.927C38.116 206.535 38.792 206.339 39.664 206.339L43 206.339L43 207.827L39.772 207.827C39.204 207.827 38.788 207.915 38.524 208.091C38.26 208.267 38.128 208.555 38.128 208.955C38.128 209.347 38.264 209.643 38.536 209.843C38.8 210.043 39.176 210.143 39.664 210.143L43 210.143L43 211.631L39.772 211.631C39.204 211.631 38.788 211.723 38.524 211.907C38.26 212.091 38.128 212.383 38.128 212.783C38.128 213.255 38.3 213.643 38.644 213.947L43 213.947L43 215.435L37 215.435L37 214.163L37.48 214.115C37.096 213.571 36.904 212.983 36.904 212.351C36.904 211.583 37.18 211.011 37.732 210.635C37.468 210.427 37.264 210.155 37.12 209.819C36.976 209.483 36.904 209.111 36.904 208.703ZM43.12 202.281C43.12 202.913 42.98 203.461 42.7 203.925C42.42 204.389 42.044 204.745 41.572 204.993C41.1 205.241 40.58 205.365 40.012 205.365C39.444 205.365 38.92 205.241 38.44 204.993C37.96 204.745 37.58 204.389 37.3 203.925C37.02 203.461 36.88 202.913 36.88 202.281C36.88 201.649 37.02 201.101 37.3 200.637C37.58 200.173 37.96 199.817 38.44 199.569C38.92 199.321 39.444 199.197 40.012 199.197C40.58 199.197 41.1 199.321 41.572 199.569C42.044 199.817 42.42 200.173 42.7 200.637C42.98 201.101 43.12 201.649 43.12 202.281ZM41.896 202.281C41.896 201.793 41.724 201.413 41.38 201.141C41.036 200.861 40.58 200.721 40.012 200.721C39.436 200.721 38.976 200.861 38.632 201.141C38.28 201.413 38.104 201.793 38.104 202.281C38.104 202.769 38.28 203.153 38.632 203.433C38.976 203.705 39.436 203.841 40.012 203.841C40.58 203.841 41.036 203.705 41.38 203.433C41.724 203.153 41.896 202.769 41.896 202.281ZM37 192.929L43 192.929L43 194.321L42.64 194.345C42.776 194.529 42.892 194.741 42.988 194.981C43.076 195.221 43.12 195.453 43.12 195.677C43.12 196.565 42.864 197.213 42.352 197.621C41.84 198.021 41.132 198.221 40.228 198.221L37 198.221L37 196.733L40.228 196.733C40.788 196.733 41.204 196.641 41.476 196.457C41.74 196.265 41.872 195.961 41.872 195.545C41.872 195.081 41.704 194.705 41.368 194.417L37 194.417L37 192.929ZM36.904 188.516C36.904 187.772 37.152 187.208 37.648 186.824C38.144 186.44 38.812 186.248 39.652 186.248L43 186.248L43 187.736L39.772 187.736C39.212 187.736 38.8 187.832 38.536 188.024C38.264 188.208 38.128 188.508 38.128 188.924C38.128 189.38 38.3 189.756 38.644 190.052L43 190.052L43 191.54L37 191.54L37 190.148L37.42 190.124C37.076 189.62 36.904 189.084 36.904 188.516ZM43.12 183.034C43.12 183.562 42.968 183.962 42.664 184.234C42.352 184.506 41.98 184.642 41.548 184.642L38.224 184.642L38.224 185.494L37 185.362L37 184.642L35.68 184.642L35.524 183.154L37 183.154L37 181.834L38.224 181.834L38.224 183.154L40.936 183.154C41.256 183.154 41.48 183.138 41.608 183.106C41.728 183.066 41.808 182.99 41.848 182.878C41.88 182.758 41.896 182.546 41.896 182.242L41.896 181.834L43.12 181.966L43.12 183.034ZM43.12 175.445C43.12 176.077 42.98 176.625 42.7 177.089C42.42 177.553 42.044 177.909 41.572 178.157C41.1 178.405 40.58 178.529 40.012 178.529C39.444 178.529 38.92 178.405 38.44 178.157C37.96 177.909 37.58 177.553 37.3 177.089C37.02 176.625 36.88 176.077 36.88 175.445C36.88 174.813 37.02 174.265 37.3 173.801C37.58 173.337 37.96 172.981 38.44 172.733C38.92 172.485 39.444 172.361 40.012 172.361C40.58 172.361 41.1 172.485 41.572 172.733C42.044 172.981 42.42 173.337 42.7 173.801C42.98 174.265 43.12 174.813 43.12 175.445ZM41.896 175.445C41.896 174.957 41.724 174.577 41.38 174.305C41.036 174.025 40.58 173.885 40.012 173.885C39.436 173.885 38.976 174.025 38.632 174.305C38.28 174.577 38.104 174.957 38.104 175.445C38.104 175.933 38.28 176.317 38.632 176.597C38.976 176.869 39.436 177.005 40.012 177.005C40.58 177.005 41.036 176.869 41.38 176.597C41.724 176.317 41.896 175.933 41.896 175.445ZM38.224 171.036L38.224 171.888L37 171.756L37 171.036L35.728 171.036C35.192 171.036 34.772 170.88 34.468 170.568C34.156 170.248 34 169.796 34 169.212C34 168.884 34.036 168.56 34.108 168.24L35.308 168.372C35.268 168.508 35.248 168.664 35.248 168.84C35.248 169.312 35.496 169.548 35.992 169.548L37 169.548L37 168.228L38.224 168.228L38.224 169.548L43 169.548L43 171.036L38.224 171.036ZM37 164.622L37 163.23L37.636 163.194C37.436 163.018 37.26 162.794 37.108 162.522C36.956 162.242 36.88 161.95 36.88 161.646C36.88 161.55 36.888 161.462 36.904 161.382L38.368 161.49C38.328 161.642 38.308 161.814 38.308 162.006C38.308 162.254 38.368 162.482 38.488 162.69C38.6 162.898 38.74 163.046 38.908 163.134L43 163.134L43 164.622L37 164.622ZM34.6 160.661L34.6 159.173L36.088 159.173L36.088 160.661L34.6 160.661ZM37 160.661L37 159.173L43 159.173L43 160.661L37 160.661ZM34 152.307L43 152.307L43 153.711L42.616 153.735C42.784 153.967 42.912 154.211 43 154.467C43.08 154.715 43.12 155.011 43.12 155.355C43.12 155.939 42.98 156.443 42.7 156.867C42.42 157.283 42.044 157.599 41.572 157.815C41.1 158.031 40.58 158.139 40.012 158.139C39.444 158.139 38.924 158.031 38.452 157.815C37.98 157.599 37.604 157.283 37.324 156.867C37.044 156.443 36.904 155.939 36.904 155.355C36.904 154.771 37.064 154.251 37.384 153.795L34 153.795L34 152.307ZM41.896 155.139C41.896 154.667 41.728 154.315 41.392 154.083C41.056 153.843 40.596 153.723 40.012 153.723C39.428 153.723 38.968 153.843 38.632 154.083C38.296 154.315 38.128 154.667 38.128 155.139C38.128 155.603 38.3 155.967 38.644 156.231C38.988 156.487 39.444 156.615 40.012 156.615C40.58 156.615 41.036 156.487 41.38 156.231C41.724 155.967 41.896 155.603 41.896 155.139ZM43.12 148.031C43.12 148.727 42.98 149.323 42.7 149.819C42.412 150.307 42.032 150.675 41.56 150.923C41.08 151.163 40.548 151.283 39.964 151.283C39.404 151.283 38.892 151.167 38.428 150.935C37.964 150.703 37.596 150.367 37.324 149.927C37.044 149.487 36.904 148.963 36.904 148.355C36.904 147.795 37.02 147.323 37.252 146.939C37.484 146.547 37.796 146.255 38.188 146.063C38.58 145.863 39.02 145.763 39.508 145.763C39.748 145.763 40.02 145.795 40.324 145.859L40.324 149.735C40.852 149.655 41.248 149.447 41.512 149.111C41.768 148.775 41.896 148.371 41.896 147.899C41.896 147.251 41.732 146.651 41.404 146.099L42.664 146.027C42.8 146.283 42.912 146.583 43 146.927C43.08 147.263 43.12 147.631 43.12 148.031ZM39.316 147.275C39.004 147.275 38.728 147.363 38.488 147.539C38.248 147.715 38.128 147.987 38.128 148.355C38.128 148.723 38.236 149.019 38.452 149.243C38.668 149.467 38.956 149.619 39.316 149.699L39.316 147.275ZM43.12 143.043C43.12 143.427 43.084 143.779 43.012 144.099C42.94 144.411 42.828 144.735 42.676 145.071L41.404 144.939C41.604 144.603 41.756 144.291 41.86 144.003C41.956 143.707 42.004 143.403 42.004 143.091C42.004 142.483 41.804 142.179 41.404 142.179C41.188 142.179 41.024 142.259 40.912 142.419C40.792 142.579 40.652 142.867 40.492 143.283C40.276 143.875 40.032 144.311 39.76 144.591C39.48 144.871 39.104 145.011 38.632 145.011C38.112 145.011 37.692 144.811 37.372 144.411C37.044 144.011 36.88 143.471 36.88 142.791C36.88 142.111 37.036 141.491 37.348 140.931L38.62 141.063C38.412 141.367 38.252 141.655 38.14 141.927C38.028 142.191 37.972 142.471 37.972 142.767C37.972 143.023 38.024 143.223 38.128 143.367C38.232 143.503 38.38 143.571 38.572 143.571C38.724 143.571 38.848 143.531 38.944 143.451C39.04 143.363 39.128 143.243 39.208 143.091C39.28 142.939 39.384 142.687 39.52 142.335C39.744 141.751 39.992 141.331 40.264 141.075C40.528 140.819 40.884 140.691 41.332 140.691C41.9 140.691 42.34 140.895 42.652 141.303C42.964 141.711 43.12 142.291 43.12 143.043Z" fill="black"/>
<path d="M58.7887 282.672C59.066 282.256 59.2687 281.912 59.3967 281.64C59.5247 281.368 59.5887 281.12 59.5887 280.896C59.5887 280.619 59.5087 280.4 59.3487 280.24C59.194 280.075 58.9834 279.992 58.7167 279.992C58.2207 279.992 57.7674 280.203 57.3567 280.624L57.2607 279.824C57.4634 279.664 57.6954 279.533 57.9567 279.432C58.218 279.331 58.498 279.28 58.7967 279.28C59.2927 279.28 59.6767 279.424 59.9487 279.712C60.2207 280 60.3567 280.368 60.3567 280.816C60.3567 281.168 60.2874 281.501 60.1487 281.816C60.0154 282.131 59.786 282.533 59.4607 283.024L58.6127 284.304H60.5727V284.992H57.2607L58.7887 282.672Z" fill="black"/>
<path d="M74.7033 311.72C74.9913 311.72 75.1966 311.659 75.3193 311.536C75.4419 311.413 75.5033 311.213 75.5033 310.936V305.4H76.2633V311.112C76.2633 311.549 76.1593 311.869 75.9513 312.072C75.7486 312.275 75.4366 312.376 75.0153 312.376H74.8073L74.7033 311.72ZM78.2242 311.08C77.8616 311.08 77.5682 310.973 77.3442 310.76C77.1256 310.547 77.0162 310.275 77.0162 309.944C77.0162 309.448 77.2509 309.093 77.7202 308.88C78.1896 308.667 78.7362 308.555 79.3602 308.544C79.3602 308.192 79.2909 307.955 79.1522 307.832C79.0189 307.704 78.8029 307.64 78.5042 307.64C78.3389 307.64 78.1736 307.667 78.0082 307.72C77.8429 307.768 77.6642 307.859 77.4722 307.992L77.3682 307.408C77.5282 307.285 77.7256 307.187 77.9602 307.112C78.1949 307.037 78.4402 307 78.6962 307C79.0322 307 79.2989 307.059 79.4962 307.176C79.6989 307.293 79.8456 307.488 79.9362 307.76C80.0322 308.032 80.0802 308.405 80.0802 308.88V309.68C80.0802 309.893 80.0882 310.056 80.1042 310.168C80.1256 310.275 80.1682 310.357 80.2322 310.416C80.2962 310.475 80.3949 310.504 80.5282 310.504H80.6002L80.4882 311.08H80.4322C80.2082 311.08 80.0322 311.059 79.9042 311.016C79.7762 310.973 79.6776 310.912 79.6082 310.832C79.5442 310.752 79.4829 310.643 79.4242 310.504C79.0936 310.888 78.6936 311.08 78.2242 311.08ZM78.3602 310.504C78.5522 310.504 78.7362 310.456 78.9122 310.36C79.0936 310.264 79.2429 310.136 79.3602 309.976V309.04C78.7842 309.061 78.3709 309.139 78.1202 309.272C77.8749 309.4 77.7522 309.611 77.7522 309.904C77.7522 310.107 77.8056 310.259 77.9122 310.36C78.0242 310.456 78.1736 310.504 78.3602 310.504ZM83.092 307C84.1586 307 84.692 307.613 84.692 308.84V311H83.972V308.84C83.972 308.419 83.892 308.115 83.732 307.928C83.5773 307.736 83.316 307.64 82.948 307.64C82.7133 307.64 82.5 307.683 82.308 307.768C82.116 307.853 81.972 307.981 81.876 308.152V311H81.156V307.08H81.716L81.796 307.496C82.004 307.309 82.212 307.181 82.42 307.112C82.6333 307.037 82.8573 307 83.092 307Z" fill="black"/>
<path d="M95.4564 305.4H98.8724V306.088H96.2164V307.728H98.2644V308.416H96.2164V311H95.4564V305.4ZM101.02 311.08C100.572 311.08 100.188 310.989 99.8683 310.808C99.5537 310.621 99.3137 310.371 99.1483 310.056C98.983 309.741 98.9003 309.392 98.9003 309.008C98.9003 308.64 98.975 308.304 99.1243 308C99.279 307.691 99.5003 307.448 99.7883 307.272C100.082 307.091 100.426 307 100.82 307C101.322 307 101.727 307.147 102.036 307.44C102.351 307.733 102.508 308.139 102.508 308.656C102.508 308.789 102.498 308.917 102.476 309.04H99.6363C99.6843 309.547 99.839 309.907 100.1 310.12C100.362 310.333 100.698 310.44 101.108 310.44C101.519 310.44 101.895 310.363 102.236 310.208L102.332 310.776C101.879 310.979 101.442 311.08 101.02 311.08ZM101.764 308.544C101.764 308.261 101.684 308.04 101.524 307.88C101.364 307.72 101.124 307.64 100.804 307.64C100.495 307.64 100.252 307.717 100.076 307.872C99.9003 308.021 99.775 308.245 99.7003 308.544H101.764ZM105.162 307C105.514 307 105.823 307.093 106.09 307.28C106.362 307.467 106.57 307.717 106.714 308.032C106.858 308.341 106.93 308.677 106.93 309.04C106.93 309.413 106.85 309.757 106.69 310.072C106.535 310.381 106.322 310.627 106.05 310.808C105.783 310.989 105.487 311.08 105.162 311.08C104.922 311.08 104.69 311.032 104.466 310.936C104.242 310.835 104.069 310.696 103.946 310.52L103.866 311H103.226V305H103.946V307.536C104.09 307.371 104.269 307.24 104.482 307.144C104.701 307.048 104.927 307 105.162 307ZM105.074 310.44C105.41 310.44 105.679 310.307 105.882 310.04C106.09 309.768 106.194 309.435 106.194 309.04C106.194 308.635 106.09 308.301 105.882 308.04C105.679 307.773 105.41 307.64 105.074 307.64C104.743 307.64 104.466 307.763 104.242 308.008C104.018 308.248 103.906 308.592 103.906 309.04C103.906 309.504 104.015 309.853 104.234 310.088C104.458 310.323 104.738 310.44 105.074 310.44Z" fill="black"/>
<path d="M120.902 311L120.374 306.768L118.854 309.672L117.302 306.76L116.774 311H115.974L116.726 305.4H117.374L118.846 308.176L120.302 305.4H120.958L121.702 311H120.902ZM123.435 311.08C123.072 311.08 122.779 310.973 122.555 310.76C122.336 310.547 122.227 310.275 122.227 309.944C122.227 309.448 122.462 309.093 122.931 308.88C123.4 308.667 123.947 308.555 124.571 308.544C124.571 308.192 124.502 307.955 124.363 307.832C124.23 307.704 124.014 307.64 123.715 307.64C123.55 307.64 123.384 307.667 123.219 307.72C123.054 307.768 122.875 307.859 122.683 307.992L122.579 307.408C122.739 307.285 122.936 307.187 123.171 307.112C123.406 307.037 123.651 307 123.907 307C124.243 307 124.51 307.059 124.707 307.176C124.91 307.293 125.056 307.488 125.147 307.76C125.243 308.032 125.291 308.405 125.291 308.88V309.68C125.291 309.893 125.299 310.056 125.315 310.168C125.336 310.275 125.379 310.357 125.443 310.416C125.507 310.475 125.606 310.504 125.739 310.504H125.811L125.699 311.08H125.643C125.419 311.08 125.243 311.059 125.115 311.016C124.987 310.973 124.888 310.912 124.819 310.832C124.755 310.752 124.694 310.643 124.635 310.504C124.304 310.888 123.904 311.08 123.435 311.08ZM123.571 310.504C123.763 310.504 123.947 310.456 124.123 310.36C124.304 310.264 124.454 310.136 124.571 309.976V309.04C123.995 309.061 123.582 309.139 123.331 309.272C123.086 309.4 122.963 309.611 122.963 309.904C122.963 310.107 123.016 310.259 123.123 310.36C123.235 310.456 123.384 310.504 123.571 310.504ZM126.367 307.08H126.959L127.047 307.728C127.25 307.477 127.442 307.293 127.623 307.176C127.81 307.059 128.004 307 128.207 307C128.271 307 128.332 307.008 128.391 307.024L128.319 307.816C128.25 307.8 128.17 307.792 128.079 307.792C127.882 307.792 127.695 307.837 127.519 307.928C127.343 308.013 127.215 308.115 127.135 308.232V311H126.367V307.08Z" fill="black"/>
<path d="M140.579 309.488H138.435L137.899 311H137.099L139.107 305.4H139.907L141.915 311H141.115L140.579 309.488ZM140.339 308.8L139.507 306.464L138.675 308.8H140.339ZM144.453 307C144.799 307 145.101 307.091 145.357 307.272C145.618 307.448 145.818 307.691 145.957 308C146.095 308.309 146.165 308.656 146.165 309.04C146.165 309.429 146.098 309.779 145.965 310.088C145.837 310.392 145.645 310.635 145.389 310.816C145.133 310.992 144.821 311.08 144.453 311.08C144.181 311.08 143.933 311.032 143.709 310.936C143.485 310.84 143.309 310.701 143.181 310.52V312.936H142.461V307.08H143.021L143.101 307.624C143.431 307.208 143.882 307 144.453 307ZM144.317 310.44C144.663 310.44 144.935 310.317 145.133 310.072C145.33 309.821 145.429 309.477 145.429 309.04C145.429 308.603 145.33 308.261 145.133 308.016C144.935 307.765 144.663 307.64 144.317 307.64C143.975 307.64 143.693 307.76 143.469 308C143.25 308.24 143.141 308.587 143.141 309.04C143.141 309.509 143.25 309.861 143.469 310.096C143.687 310.325 143.97 310.44 144.317 310.44ZM146.914 307.08H147.506L147.594 307.728C147.796 307.477 147.988 307.293 148.17 307.176C148.356 307.059 148.551 307 148.754 307C148.818 307 148.879 307.008 148.938 307.024L148.866 307.816C148.796 307.8 148.716 307.792 148.626 307.792C148.428 307.792 148.242 307.837 148.066 307.928C147.89 308.013 147.762 308.115 147.682 308.232V311H146.914V307.08Z" fill="black"/>
<path d="M163.226 311L162.698 306.768L161.178 309.672L159.626 306.76L159.098 311H158.298L159.05 305.4H159.698L161.17 308.176L162.626 305.4H163.282L164.026 311H163.226ZM165.759 311.08C165.397 311.08 165.103 310.973 164.879 310.76C164.661 310.547 164.551 310.275 164.551 309.944C164.551 309.448 164.786 309.093 165.255 308.88C165.725 308.667 166.271 308.555 166.895 308.544C166.895 308.192 166.826 307.955 166.687 307.832C166.554 307.704 166.338 307.64 166.039 307.64C165.874 307.64 165.709 307.667 165.543 307.72C165.378 307.768 165.199 307.859 165.007 307.992L164.903 307.408C165.063 307.285 165.261 307.187 165.495 307.112C165.73 307.037 165.975 307 166.231 307C166.567 307 166.834 307.059 167.031 307.176C167.234 307.293 167.381 307.488 167.471 307.76C167.567 308.032 167.615 308.405 167.615 308.88V309.68C167.615 309.893 167.623 310.056 167.639 310.168C167.661 310.275 167.703 310.357 167.767 310.416C167.831 310.475 167.93 310.504 168.063 310.504H168.135L168.023 311.08H167.967C167.743 311.08 167.567 311.059 167.439 311.016C167.311 310.973 167.213 310.912 167.143 310.832C167.079 310.752 167.018 310.643 166.959 310.504C166.629 310.888 166.229 311.08 165.759 311.08ZM165.895 310.504C166.087 310.504 166.271 310.456 166.447 310.36C166.629 310.264 166.778 310.136 166.895 309.976V309.04C166.319 309.061 165.906 309.139 165.655 309.272C165.41 309.4 165.287 309.611 165.287 309.904C165.287 310.107 165.341 310.259 165.447 310.36C165.559 310.456 165.709 310.504 165.895 310.504ZM169.735 310.824L168.103 307.08H168.903L170.127 309.992L171.231 307.08H172.031L169.631 312.936H168.831L169.735 310.824Z" fill="black"/>
<path d="M181.031 311.72C181.319 311.72 181.525 311.659 181.647 311.536C181.77 311.413 181.831 311.213 181.831 310.936V305.4H182.591V311.112C182.591 311.549 182.487 311.869 182.279 312.072C182.077 312.275 181.765 312.376 181.343 312.376H181.135L181.031 311.72ZM186.849 307.08V311H186.209L186.129 310.568C186.001 310.744 185.849 310.875 185.673 310.96C185.502 311.04 185.291 311.08 185.041 311.08C184.571 311.08 184.211 310.939 183.961 310.656C183.715 310.368 183.593 309.936 183.593 309.36V307.08H184.313V309.16C184.313 309.587 184.385 309.907 184.529 310.12C184.678 310.333 184.91 310.44 185.225 310.44C185.411 310.44 185.585 310.403 185.745 310.328C185.91 310.253 186.038 310.144 186.129 310V307.08H186.849ZM189.764 307C190.831 307 191.364 307.613 191.364 308.84V311H190.644V308.84C190.644 308.419 190.564 308.115 190.404 307.928C190.249 307.736 189.988 307.64 189.62 307.64C189.385 307.64 189.172 307.683 188.98 307.768C188.788 307.853 188.644 307.981 188.548 308.152V311H187.828V307.08H188.388L188.468 307.496C188.676 307.309 188.884 307.181 189.092 307.112C189.305 307.037 189.529 307 189.764 307Z" fill="black"/>
<path d="M202.32 311.72C202.608 311.72 202.814 311.659 202.936 311.536C203.059 311.413 203.12 311.213 203.12 310.936V305.4H203.88V311.112C203.88 311.549 203.776 311.869 203.568 312.072C203.366 312.275 203.054 312.376 202.632 312.376H202.424L202.32 311.72ZM208.138 307.08V311H207.498L207.418 310.568C207.29 310.744 207.138 310.875 206.962 310.96C206.791 311.04 206.58 311.08 206.33 311.08C205.86 311.08 205.5 310.939 205.25 310.656C205.004 310.368 204.882 309.936 204.882 309.36V307.08H205.602V309.16C205.602 309.587 205.674 309.907 205.818 310.12C205.967 310.333 206.199 310.44 206.514 310.44C206.7 310.44 206.874 310.403 207.034 310.328C207.199 310.253 207.327 310.144 207.418 310V307.08H208.138ZM210.125 311.08C209.773 311.08 209.514 310.989 209.349 310.808C209.189 310.627 209.109 310.403 209.109 310.136V305H209.829V309.72C209.829 309.955 209.842 310.125 209.869 310.232C209.901 310.339 209.96 310.411 210.045 310.448C210.13 310.485 210.269 310.504 210.461 310.504L210.357 311.08H210.125Z" fill="black"/>
<path d="M224.528 309.488H222.384L221.848 311H221.048L223.056 305.4H223.856L225.864 311H225.064L224.528 309.488ZM224.288 308.8L223.456 306.464L222.624 308.8H224.288ZM229.532 307.08V311H228.892L228.812 310.568C228.684 310.744 228.532 310.875 228.356 310.96C228.185 311.04 227.975 311.08 227.724 311.08C227.255 311.08 226.895 310.939 226.644 310.656C226.399 310.368 226.276 309.936 226.276 309.36V307.08H226.996V309.16C226.996 309.587 227.068 309.907 227.212 310.12C227.361 310.333 227.593 310.44 227.908 310.44C228.095 310.44 228.268 310.403 228.428 310.328C228.593 310.253 228.721 310.144 228.812 310V307.08H229.532ZM232.095 313C231.541 313 231.09 312.899 230.743 312.696C230.402 312.493 230.231 312.205 230.231 311.832C230.231 311.421 230.458 311.115 230.911 310.912C230.655 310.784 230.527 310.619 230.527 310.416C230.527 310.16 230.682 309.971 230.991 309.848C230.773 309.715 230.605 309.533 230.487 309.304C230.37 309.075 230.311 308.816 230.311 308.528C230.311 308.24 230.375 307.981 230.503 307.752C230.637 307.517 230.823 307.333 231.063 307.2C231.309 307.067 231.597 307 231.927 307C232.279 307 232.599 307.101 232.887 307.304C233.17 307.144 233.495 307.064 233.863 307.064H233.927L233.839 307.544H233.655C233.607 307.544 233.538 307.549 233.447 307.56C233.357 307.571 233.277 307.584 233.207 307.6C233.319 307.728 233.405 307.872 233.463 308.032C233.522 308.192 233.551 308.357 233.551 308.528C233.551 308.827 233.485 309.096 233.351 309.336C233.223 309.571 233.037 309.757 232.791 309.896C232.546 310.029 232.258 310.096 231.927 310.096C231.735 310.096 231.559 310.072 231.399 310.024C231.277 310.067 231.215 310.136 231.215 310.232C231.215 310.36 231.362 310.445 231.655 310.488L232.703 310.656C233.141 310.725 233.471 310.851 233.695 311.032C233.919 311.213 234.031 311.464 234.031 311.784C234.031 312.184 233.858 312.485 233.511 312.688C233.17 312.896 232.698 313 232.095 313ZM231.927 309.52C232.226 309.52 232.455 309.432 232.615 309.256C232.781 309.075 232.863 308.835 232.863 308.536C232.863 308.248 232.781 308.016 232.615 307.84C232.455 307.664 232.226 307.576 231.927 307.576C231.629 307.576 231.399 307.664 231.239 307.84C231.079 308.016 230.999 308.248 230.999 308.536C230.999 308.835 231.079 309.075 231.239 309.256C231.399 309.432 231.629 309.52 231.927 309.52ZM232.159 312.36C232.527 312.36 232.81 312.312 233.007 312.216C233.205 312.12 233.303 311.981 233.303 311.8C233.303 311.661 233.242 311.549 233.119 311.464C233.002 311.384 232.823 311.32 232.583 311.272L231.463 311.08C231.303 311.155 231.173 311.245 231.071 311.352C230.97 311.464 230.919 311.587 230.919 311.72C230.919 311.939 231.029 312.099 231.247 312.2C231.466 312.307 231.77 312.36 232.159 312.36Z" fill="black"/>
<path d="M245.131 311.112C244.8 311.112 244.464 311.075 244.123 311C243.781 310.931 243.507 310.848 243.299 310.752L243.403 309.944C243.669 310.072 243.971 310.184 244.307 310.28C244.643 310.376 244.976 310.424 245.307 310.424C245.68 310.424 245.968 310.357 246.171 310.224C246.379 310.085 246.483 309.88 246.483 309.608C246.483 309.405 246.429 309.237 246.323 309.104C246.221 308.965 246.069 308.851 245.867 308.76C245.669 308.664 245.392 308.563 245.035 308.456C244.672 308.349 244.371 308.235 244.131 308.112C243.891 307.989 243.696 307.821 243.547 307.608C243.403 307.395 243.331 307.125 243.331 306.8C243.331 306.347 243.504 305.981 243.851 305.704C244.203 305.427 244.696 305.288 245.331 305.288C245.672 305.288 245.995 305.325 246.299 305.4C246.608 305.475 246.877 305.565 247.107 305.672L247.027 306.48C246.728 306.304 246.44 306.176 246.163 306.096C245.885 306.016 245.597 305.976 245.299 305.976C244.952 305.976 244.675 306.04 244.467 306.168C244.264 306.296 244.163 306.493 244.163 306.76C244.163 306.941 244.208 307.091 244.299 307.208C244.395 307.325 244.531 307.427 244.707 307.512C244.883 307.592 245.128 307.68 245.443 307.776C246.072 307.968 246.541 308.197 246.851 308.464C247.16 308.725 247.315 309.088 247.315 309.552C247.315 310.043 247.131 310.427 246.763 310.704C246.395 310.976 245.851 311.112 245.131 311.112ZM249.931 311.08C249.483 311.08 249.099 310.989 248.779 310.808C248.464 310.621 248.224 310.371 248.059 310.056C247.893 309.741 247.811 309.392 247.811 309.008C247.811 308.64 247.885 308.304 248.035 308C248.189 307.691 248.411 307.448 248.699 307.272C248.992 307.091 249.336 307 249.731 307C250.232 307 250.637 307.147 250.947 307.44C251.261 307.733 251.419 308.139 251.419 308.656C251.419 308.789 251.408 308.917 251.387 309.04H248.547C248.595 309.547 248.749 309.907 249.011 310.12C249.272 310.333 249.608 310.44 250.019 310.44C250.429 310.44 250.805 310.363 251.147 310.208L251.243 310.776C250.789 310.979 250.352 311.08 249.931 311.08ZM250.675 308.544C250.675 308.261 250.595 308.04 250.435 307.88C250.275 307.72 250.035 307.64 249.715 307.64C249.405 307.64 249.163 307.717 248.987 307.872C248.811 308.021 248.685 308.245 248.611 308.544H250.675ZM254.136 307C254.483 307 254.784 307.091 255.04 307.272C255.302 307.448 255.502 307.691 255.64 308C255.779 308.309 255.848 308.656 255.848 309.04C255.848 309.429 255.782 309.779 255.648 310.088C255.52 310.392 255.328 310.635 255.072 310.816C254.816 310.992 254.504 311.08 254.136 311.08C253.864 311.08 253.616 311.032 253.392 310.936C253.168 310.84 252.992 310.701 252.864 310.52V312.936H252.144V307.08H252.704L252.784 307.624C253.115 307.208 253.566 307 254.136 307ZM254 310.44C254.347 310.44 254.619 310.317 254.816 310.072C255.014 309.821 255.112 309.477 255.112 309.04C255.112 308.603 255.014 308.261 254.816 308.016C254.619 307.765 254.347 307.64 254 307.64C253.659 307.64 253.376 307.76 253.152 308C252.934 308.24 252.824 308.587 252.824 309.04C252.824 309.509 252.934 309.861 253.152 310.096C253.371 310.325 253.654 310.44 254 310.44Z" fill="black"/>
<path d="M268.361 311.112C267.828 311.112 267.351 310.992 266.929 310.752C266.513 310.512 266.188 310.173 265.953 309.736C265.719 309.293 265.601 308.781 265.601 308.2C265.601 307.619 265.719 307.109 265.953 306.672C266.188 306.229 266.513 305.888 266.929 305.648C267.351 305.408 267.828 305.288 268.361 305.288C268.895 305.288 269.369 305.408 269.785 305.648C270.207 305.888 270.535 306.229 270.769 306.672C271.004 307.109 271.121 307.619 271.121 308.2C271.121 308.781 271.004 309.293 270.769 309.736C270.535 310.173 270.207 310.512 269.785 310.752C269.369 310.992 268.895 311.112 268.361 311.112ZM268.361 310.376C268.777 310.376 269.132 310.283 269.425 310.096C269.719 309.904 269.937 309.645 270.081 309.32C270.231 308.989 270.305 308.616 270.305 308.2C270.305 307.784 270.231 307.413 270.081 307.088C269.937 306.757 269.719 306.499 269.425 306.312C269.132 306.12 268.777 306.024 268.361 306.024C267.945 306.024 267.591 306.12 267.297 306.312C267.004 306.499 266.783 306.757 266.633 307.088C266.489 307.413 266.417 307.784 266.417 308.2C266.417 308.616 266.489 308.989 266.633 309.32C266.783 309.645 267.004 309.904 267.297 310.096C267.591 310.283 267.945 310.376 268.361 310.376ZM273.679 311.08C273.252 311.08 272.884 310.992 272.575 310.816C272.271 310.64 272.041 310.4 271.887 310.096C271.732 309.787 271.655 309.443 271.655 309.064C271.655 308.445 271.828 307.947 272.175 307.568C272.527 307.189 273.047 307 273.735 307C274.14 307 274.497 307.077 274.807 307.232L274.695 307.864C274.369 307.715 274.044 307.64 273.719 307.64C273.292 307.64 272.964 307.763 272.735 308.008C272.505 308.248 272.391 308.589 272.391 309.032C272.391 309.475 272.5 309.821 272.719 310.072C272.943 310.323 273.271 310.448 273.703 310.448C274.049 310.448 274.383 310.368 274.703 310.208L274.799 310.784C274.681 310.864 274.519 310.933 274.311 310.992C274.108 311.051 273.897 311.08 273.679 311.08ZM276.863 311.08C276.517 311.08 276.258 310.989 276.087 310.808C275.922 310.627 275.839 310.405 275.839 310.144V307.64H275.167L275.231 307.08H275.839V306.112L276.559 306.04V307.08H277.591V307.64H276.559V309.704C276.559 309.976 276.575 310.163 276.607 310.264C276.639 310.365 276.706 310.432 276.807 310.464C276.914 310.491 277.106 310.504 277.383 310.504H277.567L277.511 311.08H276.863Z" fill="black"/>
<path d="M287.245 305.4H288.069L290.829 309.592V305.4H291.597V311H290.949L288.005 306.576V311H287.245V305.4ZM294.329 311.08C293.929 311.08 293.582 310.992 293.289 310.816C292.996 310.635 292.772 310.389 292.617 310.08C292.462 309.771 292.385 309.424 292.385 309.04C292.385 308.656 292.462 308.309 292.617 308C292.772 307.691 292.996 307.448 293.289 307.272C293.582 307.091 293.929 307 294.329 307C294.724 307 295.068 307.091 295.361 307.272C295.66 307.448 295.886 307.691 296.041 308C296.196 308.309 296.273 308.656 296.273 309.04C296.273 309.424 296.196 309.771 296.041 310.08C295.886 310.389 295.66 310.635 295.361 310.816C295.068 310.992 294.724 311.08 294.329 311.08ZM294.329 310.44C294.713 310.44 295.009 310.317 295.217 310.072C295.43 309.827 295.537 309.483 295.537 309.04C295.537 308.597 295.43 308.253 295.217 308.008C295.009 307.763 294.713 307.64 294.329 307.64C293.945 307.64 293.646 307.763 293.433 308.008C293.225 308.253 293.121 308.597 293.121 309.04C293.121 309.483 293.225 309.827 293.433 310.072C293.646 310.317 293.945 310.44 294.329 310.44ZM296.529 307.08H297.329L298.425 310.208L299.513 307.08H300.321L298.833 311H298.025L296.529 307.08Z" fill="black"/>
<path d="M309.394 305.4H311.466C312.01 305.4 312.493 305.512 312.914 305.736C313.335 305.955 313.663 306.277 313.898 306.704C314.133 307.125 314.25 307.624 314.25 308.2C314.25 308.776 314.133 309.277 313.898 309.704C313.663 310.125 313.335 310.448 312.914 310.672C312.493 310.891 312.01 311 311.466 311H309.394V305.4ZM311.466 310.312C312.09 310.312 312.57 310.123 312.906 309.744C313.247 309.36 313.418 308.845 313.418 308.2C313.418 307.555 313.247 307.043 312.906 306.664C312.57 306.28 312.09 306.088 311.466 306.088H310.154V310.312H311.466ZM316.888 311.08C316.44 311.08 316.056 310.989 315.736 310.808C315.421 310.621 315.181 310.371 315.016 310.056C314.85 309.741 314.768 309.392 314.768 309.008C314.768 308.64 314.842 308.304 314.992 308C315.146 307.691 315.368 307.448 315.656 307.272C315.949 307.091 316.293 307 316.688 307C317.189 307 317.594 307.147 317.904 307.44C318.218 307.733 318.376 308.139 318.376 308.656C318.376 308.789 318.365 308.917 318.344 309.04H315.504C315.552 309.547 315.706 309.907 315.968 310.12C316.229 310.333 316.565 310.44 316.976 310.44C317.386 310.44 317.762 310.363 318.104 310.208L318.2 310.776C317.746 310.979 317.309 311.08 316.888 311.08ZM317.632 308.544C317.632 308.261 317.552 308.04 317.392 307.88C317.232 307.72 316.992 307.64 316.672 307.64C316.362 307.64 316.12 307.717 315.944 307.872C315.768 308.021 315.642 308.245 315.568 308.544H317.632ZM320.901 311.08C320.475 311.08 320.107 310.992 319.797 310.816C319.493 310.64 319.264 310.4 319.109 310.096C318.955 309.787 318.877 309.443 318.877 309.064C318.877 308.445 319.051 307.947 319.397 307.568C319.749 307.189 320.269 307 320.957 307C321.363 307 321.72 307.077 322.029 307.232L321.917 307.864C321.592 307.715 321.267 307.64 320.941 307.64C320.515 307.64 320.187 307.763 319.957 308.008C319.728 308.248 319.613 308.589 319.613 309.032C319.613 309.475 319.723 309.821 319.941 310.072C320.165 310.323 320.493 310.448 320.925 310.448C321.272 310.448 321.605 310.368 321.925 310.208L322.021 310.784C321.904 310.864 321.741 310.933 321.533 310.992C321.331 311.051 321.12 311.08 320.901 311.08Z" fill="black"/>
<path d="M54.0367 156.496C53.8607 156.64 53.7087 156.747 53.5807 156.816C53.458 156.885 53.3327 156.941 53.2047 156.984L53.0767 156.272C53.3007 156.197 53.522 156.08 53.7407 155.92C53.9647 155.755 54.1354 155.581 54.2527 155.4H54.7727V161H54.0367V156.496ZM58.2061 161.112C57.7207 161.112 57.2994 160.987 56.9421 160.736C56.5901 160.485 56.3181 160.136 56.1261 159.688C55.9394 159.24 55.8461 158.728 55.8461 158.152C55.8461 157.581 55.9447 157.08 56.1421 156.648C56.3447 156.216 56.6247 155.883 56.9821 155.648C57.3394 155.408 57.7474 155.288 58.2061 155.288C58.6754 155.288 59.0887 155.408 59.4461 155.648C59.8034 155.883 60.0781 156.216 60.2701 156.648C60.4674 157.08 60.5661 157.581 60.5661 158.152C60.5661 158.728 60.4727 159.24 60.2861 159.688C60.0994 160.136 59.8274 160.485 59.4701 160.736C59.1127 160.987 58.6914 161.112 58.2061 161.112ZM58.2061 160.424C58.7021 160.424 59.0834 160.227 59.3501 159.832C59.6221 159.437 59.7581 158.877 59.7581 158.152C59.7581 157.437 59.6194 156.896 59.3421 156.528C59.0701 156.16 58.6914 155.976 58.2061 155.976C57.7421 155.976 57.3661 156.163 57.0781 156.536C56.7954 156.909 56.6541 157.448 56.6541 158.152C56.6541 158.877 56.7874 159.437 57.0541 159.832C57.3261 160.227 57.7101 160.424 58.2061 160.424Z" fill="black"/>
<path d="M56.0758 63.496C55.8998 63.64 55.7478 63.7467 55.6198 63.816C55.4971 63.8853 55.3718 63.9413 55.2438 63.984L55.1158 63.272C55.3398 63.1973 55.5611 63.08 55.7798 62.92C56.0038 62.7547 56.1744 62.5813 56.2918 62.4H56.8118V68H56.0758V63.496ZM59.9891 64.64C60.3091 64.64 60.5945 64.7147 60.8451 64.864C61.1011 65.008 61.2985 65.2107 61.4371 65.472C61.5811 65.728 61.6531 66.016 61.6531 66.336C61.6531 66.6773 61.5758 66.984 61.4211 67.256C61.2665 67.5227 61.0505 67.7333 60.7731 67.888C60.4958 68.0373 60.1758 68.112 59.8131 68.112C59.2318 68.112 58.7758 67.9227 58.4451 67.544C58.1145 67.1653 57.9491 66.6613 57.9491 66.032C57.9491 65.4773 58.0691 64.9547 58.3091 64.464C58.5491 63.968 58.8558 63.536 59.2291 63.168C59.6078 62.8 60.0078 62.5067 60.4291 62.288L60.9491 62.776C60.4691 63.016 60.0425 63.328 59.6691 63.712C59.3011 64.0907 59.0371 64.512 58.8771 64.976C59.1758 64.752 59.5465 64.64 59.9891 64.64ZM59.8131 67.456C60.1278 67.456 60.3811 67.352 60.5731 67.144C60.7705 66.936 60.8691 66.6747 60.8691 66.36C60.8691 66.056 60.7705 65.8027 60.5731 65.6C60.3811 65.3973 60.1278 65.296 59.8131 65.296C59.4985 65.296 59.2425 65.3973 59.0451 65.6C58.8478 65.8027 58.7491 66.0587 58.7491 66.368C58.7491 66.688 58.8451 66.9493 59.0371 67.152C59.2345 67.3547 59.4931 67.456 59.8131 67.456Z" fill="black"/>
<path d="M57.9891 219.64C58.3091 219.64 58.5945 219.715 58.8451 219.864C59.1011 220.008 59.2985 220.211 59.4371 220.472C59.5811 220.728 59.6531 221.016 59.6531 221.336C59.6531 221.677 59.5758 221.984 59.4211 222.256C59.2665 222.523 59.0505 222.733 58.7731 222.888C58.4958 223.037 58.1758 223.112 57.8131 223.112C57.2318 223.112 56.7758 222.923 56.4451 222.544C56.1145 222.165 55.9491 221.661 55.9491 221.032C55.9491 220.477 56.0691 219.955 56.3091 219.464C56.5491 218.968 56.8558 218.536 57.2291 218.168C57.6078 217.8 58.0078 217.507 58.4291 217.288L58.9491 217.776C58.4691 218.016 58.0425 218.328 57.6691 218.712C57.3011 219.091 57.0371 219.512 56.8771 219.976C57.1758 219.752 57.5465 219.64 57.9891 219.64ZM57.8131 222.456C58.1278 222.456 58.3811 222.352 58.5731 222.144C58.7705 221.936 58.8691 221.675 58.8691 221.36C58.8691 221.056 58.7705 220.803 58.5731 220.6C58.3811 220.397 58.1278 220.296 57.8131 220.296C57.4985 220.296 57.2425 220.397 57.0451 220.6C56.8478 220.803 56.7491 221.059 56.7491 221.368C56.7491 221.688 56.8451 221.949 57.0371 222.152C57.2345 222.355 57.4931 222.456 57.8131 222.456Z" fill="black"/>
<path d="M56.4273 125.496C56.2513 125.64 56.0993 125.747 55.9713 125.816C55.8486 125.885 55.7233 125.941 55.5953 125.984L55.4673 125.272C55.6913 125.197 55.9126 125.08 56.1313 124.92C56.3553 124.755 56.526 124.581 56.6433 124.4H57.1633V130H56.4273V125.496ZM59.7887 127.672C60.066 127.256 60.2687 126.912 60.3967 126.64C60.5247 126.368 60.5887 126.12 60.5887 125.896C60.5887 125.619 60.5087 125.4 60.3487 125.24C60.194 125.075 59.9834 124.992 59.7167 124.992C59.2207 124.992 58.7674 125.203 58.3567 125.624L58.2607 124.824C58.4634 124.664 58.6954 124.533 58.9567 124.432C59.218 124.331 59.498 124.28 59.7967 124.28C60.2927 124.28 60.6767 124.424 60.9487 124.712C61.2207 125 61.3567 125.368 61.3567 125.816C61.3567 126.168 61.2874 126.501 61.1487 126.816C61.0154 127.131 60.786 127.533 60.4607 128.024L59.6127 129.304H61.5727V129.992H58.2607L59.7887 127.672Z" fill="black"/>
<path d="M60.783 251.904V252.552H60.063V254H59.295V252.552H56.535L59.511 248.4H60.063V251.904H60.783ZM59.295 251.904V249.816L57.807 251.904H59.295Z" fill="black"/>
<path d="M60.6764 188.936C60.9431 189.08 61.1484 189.28 61.2924 189.536C61.4418 189.787 61.5164 190.075 61.5164 190.4C61.5164 190.736 61.4364 191.035 61.2764 191.296C61.1164 191.552 60.8898 191.752 60.5964 191.896C60.3031 192.04 59.9618 192.112 59.5724 192.112C59.1778 192.112 58.8338 192.04 58.5404 191.896C58.2471 191.752 58.0204 191.552 57.8604 191.296C57.7058 191.035 57.6284 190.736 57.6284 190.4C57.6284 190.075 57.7031 189.784 57.8524 189.528C58.0018 189.272 58.2098 189.072 58.4764 188.928C58.2898 188.795 58.1431 188.632 58.0364 188.44C57.9351 188.243 57.8844 188.029 57.8844 187.8C57.8844 187.539 57.9431 187.293 58.0604 187.064C58.1831 186.835 58.3698 186.648 58.6204 186.504C58.8764 186.36 59.1938 186.288 59.5724 186.288C59.9511 186.288 60.2631 186.36 60.5084 186.504C60.7591 186.648 60.9404 186.835 61.0524 187.064C61.1698 187.293 61.2284 187.539 61.2284 187.8C61.2284 188.04 61.1804 188.256 61.0844 188.448C60.9884 188.64 60.8524 188.803 60.6764 188.936ZM59.5724 186.976C59.2791 186.976 59.0498 187.051 58.8844 187.2C58.7244 187.349 58.6444 187.549 58.6444 187.8C58.6444 188.035 58.7271 188.232 58.8924 188.392C59.0578 188.552 59.2844 188.632 59.5724 188.632C59.8551 188.632 60.0738 188.555 60.2284 188.4C60.3884 188.24 60.4684 188.04 60.4684 187.8C60.4684 187.549 60.3911 187.349 60.2364 187.2C60.0818 187.051 59.8604 186.976 59.5724 186.976ZM59.5724 191.424C59.9351 191.424 60.2178 191.333 60.4204 191.152C60.6284 190.965 60.7324 190.715 60.7324 190.4C60.7324 190.075 60.6284 189.811 60.4204 189.608C60.2178 189.4 59.9351 189.296 59.5724 189.296C59.2098 189.296 58.9244 189.4 58.7164 189.608C58.5138 189.811 58.4124 190.075 58.4124 190.4C58.4124 190.715 58.5138 190.965 58.7164 191.152C58.9244 191.333 59.2098 191.424 59.5724 191.424Z" fill="black"/>
<path d="M77.8508 157.622C77.7188 157.73 77.6048 157.81 77.5088 157.862C77.4168 157.914 77.3228 157.956 77.2268 157.988L77.1308 157.454C77.2988 157.398 77.4648 157.31 77.6288 157.19C77.7968 157.066 77.9248 156.936 78.0128 156.8H78.4028V161H77.8508V157.622ZM80.9778 161.084C80.6138 161.084 80.2978 160.99 80.0298 160.802C79.7658 160.614 79.5618 160.352 79.4178 160.016C79.2778 159.68 79.2078 159.296 79.2078 158.864C79.2078 158.436 79.2818 158.06 79.4298 157.736C79.5818 157.412 79.7918 157.162 80.0598 156.986C80.3278 156.806 80.6338 156.716 80.9778 156.716C81.3298 156.716 81.6398 156.806 81.9078 156.986C82.1758 157.162 82.3818 157.412 82.5258 157.736C82.6738 158.06 82.7478 158.436 82.7478 158.864C82.7478 159.296 82.6778 159.68 82.5378 160.016C82.3978 160.352 82.1938 160.614 81.9258 160.802C81.6578 160.99 81.3418 161.084 80.9778 161.084ZM80.9778 160.568C81.3498 160.568 81.6358 160.42 81.8358 160.124C82.0398 159.828 82.1418 159.408 82.1418 158.864C82.1418 158.328 82.0378 157.922 81.8298 157.646C81.6258 157.37 81.3418 157.232 80.9778 157.232C80.6298 157.232 80.3478 157.372 80.1318 157.652C79.9198 157.932 79.8138 158.336 79.8138 158.864C79.8138 159.408 79.9138 159.828 80.1138 160.124C80.3178 160.42 80.6058 160.568 80.9778 160.568Z" fill="black"/>
<path d="M102.449 193.8L100.631 198H100.031L101.609 194.34H99.7312V193.8H102.449Z" fill="black"/>
<path d="M122.933 173.716C123.369 173.716 123.711 173.858 123.959 174.142C124.207 174.426 124.331 174.804 124.331 175.276C124.331 175.68 124.243 176.062 124.067 176.422C123.895 176.778 123.671 177.09 123.395 177.358C123.123 177.626 122.835 177.84 122.531 178L122.141 177.634C122.473 177.462 122.771 177.242 123.035 176.974C123.303 176.702 123.499 176.402 123.623 176.074C123.395 176.238 123.121 176.32 122.801 176.32C122.561 176.32 122.345 176.266 122.153 176.158C121.965 176.046 121.817 175.894 121.709 175.702C121.605 175.506 121.553 175.288 121.553 175.048C121.553 174.792 121.611 174.564 121.727 174.364C121.843 174.16 122.005 174.002 122.213 173.89C122.421 173.774 122.661 173.716 122.933 173.716ZM122.933 175.828C123.169 175.828 123.361 175.752 123.509 175.6C123.657 175.448 123.731 175.256 123.731 175.024C123.731 174.784 123.657 174.588 123.509 174.436C123.365 174.284 123.173 174.208 122.933 174.208C122.697 174.208 122.505 174.286 122.357 174.442C122.213 174.598 122.141 174.794 122.141 175.03C122.141 175.258 122.213 175.448 122.357 175.6C122.505 175.752 122.697 175.828 122.933 175.828Z" fill="black"/>
<path d="M145.827 192.702C146.027 192.81 146.181 192.96 146.289 193.152C146.401 193.34 146.457 193.556 146.457 193.8C146.457 194.052 146.397 194.276 146.277 194.472C146.157 194.664 145.987 194.814 145.767 194.922C145.547 195.03 145.291 195.084 144.999 195.084C144.703 195.084 144.445 195.03 144.225 194.922C144.005 194.814 143.835 194.664 143.715 194.472C143.599 194.276 143.541 194.052 143.541 193.8C143.541 193.556 143.597 193.338 143.709 193.146C143.821 192.954 143.977 192.804 144.177 192.696C144.037 192.596 143.927 192.474 143.847 192.33C143.771 192.182 143.733 192.022 143.733 191.85C143.733 191.654 143.777 191.47 143.865 191.298C143.957 191.126 144.097 190.986 144.285 190.878C144.477 190.77 144.715 190.716 144.999 190.716C145.283 190.716 145.517 190.77 145.701 190.878C145.889 190.986 146.025 191.126 146.109 191.298C146.197 191.47 146.241 191.654 146.241 191.85C146.241 192.03 146.205 192.192 146.133 192.336C146.061 192.48 145.959 192.602 145.827 192.702ZM144.999 191.232C144.779 191.232 144.607 191.288 144.483 191.4C144.363 191.512 144.303 191.662 144.303 191.85C144.303 192.026 144.365 192.174 144.489 192.294C144.613 192.414 144.783 192.474 144.999 192.474C145.211 192.474 145.375 192.416 145.491 192.3C145.611 192.18 145.671 192.03 145.671 191.85C145.671 191.662 145.613 191.512 145.497 191.4C145.381 191.288 145.215 191.232 144.999 191.232ZM144.999 194.568C145.271 194.568 145.483 194.5 145.635 194.364C145.791 194.224 145.869 194.036 145.869 193.8C145.869 193.556 145.791 193.358 145.635 193.206C145.483 193.05 145.271 192.972 144.999 192.972C144.727 192.972 144.513 193.05 144.357 193.206C144.205 193.358 144.129 193.556 144.129 193.8C144.129 194.036 144.205 194.224 144.357 194.364C144.513 194.5 144.727 194.568 144.999 194.568Z" fill="black"/>
<path d="M163.851 175.622C163.719 175.73 163.605 175.81 163.509 175.862C163.417 175.914 163.323 175.956 163.227 175.988L163.131 175.454C163.299 175.398 163.465 175.31 163.629 175.19C163.797 175.066 163.925 174.936 164.013 174.8H164.403V179H163.851V175.622ZM166.978 179.084C166.614 179.084 166.298 178.99 166.03 178.802C165.766 178.614 165.562 178.352 165.418 178.016C165.278 177.68 165.208 177.296 165.208 176.864C165.208 176.436 165.282 176.06 165.43 175.736C165.582 175.412 165.792 175.162 166.06 174.986C166.328 174.806 166.634 174.716 166.978 174.716C167.33 174.716 167.64 174.806 167.908 174.986C168.176 175.162 168.382 175.412 168.526 175.736C168.674 176.06 168.748 176.436 168.748 176.864C168.748 177.296 168.678 177.68 168.538 178.016C168.398 178.352 168.194 178.614 167.926 178.802C167.658 178.99 167.342 179.084 166.978 179.084ZM166.978 178.568C167.35 178.568 167.636 178.42 167.836 178.124C168.04 177.828 168.142 177.408 168.142 176.864C168.142 176.328 168.038 175.922 167.83 175.646C167.626 175.37 167.342 175.232 166.978 175.232C166.63 175.232 166.348 175.372 166.132 175.652C165.92 175.932 165.814 176.336 165.814 176.864C165.814 177.408 165.914 177.828 166.114 178.124C166.318 178.42 166.606 178.568 166.978 178.568Z" fill="black"/>
<path d="M185.872 121.622C185.74 121.73 185.626 121.81 185.53 121.862C185.438 121.914 185.344 121.956 185.248 121.988L185.152 121.454C185.32 121.398 185.486 121.31 185.65 121.19C185.818 121.066 185.946 120.936 186.034 120.8H186.424V125H185.872V121.622ZM188.393 123.254C188.601 122.942 188.753 122.684 188.849 122.48C188.945 122.276 188.993 122.09 188.993 121.922C188.993 121.714 188.933 121.55 188.813 121.43C188.697 121.306 188.539 121.244 188.339 121.244C187.967 121.244 187.627 121.402 187.319 121.718L187.247 121.118C187.399 120.998 187.573 120.9 187.769 120.824C187.965 120.748 188.175 120.71 188.399 120.71C188.771 120.71 189.059 120.818 189.263 121.034C189.467 121.25 189.569 121.526 189.569 121.862C189.569 122.126 189.517 122.376 189.413 122.612C189.313 122.848 189.141 123.15 188.897 123.518L188.261 124.478H189.731V124.994H187.247L188.393 123.254Z" fill="black"/>
<path d="M208.449 197.8L206.631 202H206.031L207.609 198.34H205.731V197.8H208.449Z" fill="black"/>
<path d="M229.197 216.48C229.437 216.48 229.651 216.536 229.839 216.648C230.031 216.756 230.179 216.908 230.283 217.104C230.391 217.296 230.445 217.512 230.445 217.752C230.445 218.008 230.387 218.238 230.271 218.442C230.155 218.642 229.993 218.8 229.785 218.916C229.577 219.028 229.337 219.084 229.065 219.084C228.629 219.084 228.287 218.942 228.039 218.658C227.791 218.374 227.667 217.996 227.667 217.524C227.667 217.108 227.757 216.716 227.937 216.348C228.117 215.976 228.347 215.652 228.627 215.376C228.911 215.1 229.211 214.88 229.527 214.716L229.917 215.082C229.557 215.262 229.237 215.496 228.957 215.784C228.681 216.068 228.483 216.384 228.363 216.732C228.587 216.564 228.865 216.48 229.197 216.48ZM229.065 218.592C229.301 218.592 229.491 218.514 229.635 218.358C229.783 218.202 229.857 218.006 229.857 217.77C229.857 217.542 229.783 217.352 229.635 217.2C229.491 217.048 229.301 216.972 229.065 216.972C228.829 216.972 228.637 217.048 228.489 217.2C228.341 217.352 228.267 217.544 228.267 217.776C228.267 218.016 228.339 218.212 228.483 218.364C228.631 218.516 228.825 218.592 229.065 218.592Z" fill="black"/>
<path d="M248.967 146.622C248.835 146.73 248.721 146.81 248.625 146.862C248.533 146.914 248.439 146.956 248.343 146.988L248.247 146.454C248.415 146.398 248.581 146.31 248.745 146.19C248.913 146.066 249.041 145.936 249.129 145.8H249.519V150H248.967V146.622ZM250.924 146.622C250.792 146.73 250.678 146.81 250.582 146.862C250.49 146.914 250.396 146.956 250.3 146.988L250.204 146.454C250.372 146.398 250.538 146.31 250.702 146.19C250.87 146.066 250.998 145.936 251.086 145.8H251.476V150H250.924V146.622Z" fill="black"/>
<path d="M272.327 196.702C272.527 196.81 272.681 196.96 272.789 197.152C272.901 197.34 272.957 197.556 272.957 197.8C272.957 198.052 272.897 198.276 272.777 198.472C272.657 198.664 272.487 198.814 272.267 198.922C272.047 199.03 271.791 199.084 271.499 199.084C271.203 199.084 270.945 199.03 270.725 198.922C270.505 198.814 270.335 198.664 270.215 198.472C270.099 198.276 270.041 198.052 270.041 197.8C270.041 197.556 270.097 197.338 270.209 197.146C270.321 196.954 270.477 196.804 270.677 196.696C270.537 196.596 270.427 196.474 270.347 196.33C270.271 196.182 270.233 196.022 270.233 195.85C270.233 195.654 270.277 195.47 270.365 195.298C270.457 195.126 270.597 194.986 270.785 194.878C270.977 194.77 271.215 194.716 271.499 194.716C271.783 194.716 272.017 194.77 272.201 194.878C272.389 194.986 272.525 195.126 272.609 195.298C272.697 195.47 272.741 195.654 272.741 195.85C272.741 196.03 272.705 196.192 272.633 196.336C272.561 196.48 272.459 196.602 272.327 196.702ZM271.499 195.232C271.279 195.232 271.107 195.288 270.983 195.4C270.863 195.512 270.803 195.662 270.803 195.85C270.803 196.026 270.865 196.174 270.989 196.294C271.113 196.414 271.283 196.474 271.499 196.474C271.711 196.474 271.875 196.416 271.991 196.3C272.111 196.18 272.171 196.03 272.171 195.85C272.171 195.662 272.113 195.512 271.997 195.4C271.881 195.288 271.715 195.232 271.499 195.232ZM271.499 198.568C271.771 198.568 271.983 198.5 272.135 198.364C272.291 198.224 272.369 198.036 272.369 197.8C272.369 197.556 272.291 197.358 272.135 197.206C271.983 197.05 271.771 196.972 271.499 196.972C271.227 196.972 271.013 197.05 270.857 197.206C270.705 197.358 270.629 197.556 270.629 197.8C270.629 198.036 270.705 198.224 270.857 198.364C271.013 198.5 271.227 198.568 271.499 198.568Z" fill="black"/>
<path d="M291.851 167.622C291.719 167.73 291.605 167.81 291.509 167.862C291.417 167.914 291.323 167.956 291.227 167.988L291.131 167.454C291.299 167.398 291.465 167.31 291.629 167.19C291.797 167.066 291.925 166.936 292.013 166.8H292.403V171H291.851V167.622ZM294.978 171.084C294.614 171.084 294.298 170.99 294.03 170.802C293.766 170.614 293.562 170.352 293.418 170.016C293.278 169.68 293.208 169.296 293.208 168.864C293.208 168.436 293.282 168.06 293.43 167.736C293.582 167.412 293.792 167.162 294.06 166.986C294.328 166.806 294.634 166.716 294.978 166.716C295.33 166.716 295.64 166.806 295.908 166.986C296.176 167.162 296.382 167.412 296.526 167.736C296.674 168.06 296.748 168.436 296.748 168.864C296.748 169.296 296.678 169.68 296.538 170.016C296.398 170.352 296.194 170.614 295.926 170.802C295.658 170.99 295.342 171.084 294.978 171.084ZM294.978 170.568C295.35 170.568 295.636 170.42 295.836 170.124C296.04 169.828 296.142 169.408 296.142 168.864C296.142 168.328 296.038 167.922 295.83 167.646C295.626 167.37 295.342 167.232 294.978 167.232C294.63 167.232 294.348 167.372 294.132 167.652C293.92 167.932 293.814 168.336 293.814 168.864C293.814 169.408 293.914 169.828 294.114 170.124C294.318 170.42 294.606 170.568 294.978 170.568Z" fill="black"/>
<path d="M314.933 184.716C315.369 184.716 315.711 184.858 315.959 185.142C316.207 185.426 316.331 185.804 316.331 186.276C316.331 186.68 316.243 187.062 316.067 187.422C315.895 187.778 315.671 188.09 315.395 188.358C315.123 188.626 314.835 188.84 314.531 189L314.141 188.634C314.473 188.462 314.771 188.242 315.035 187.974C315.303 187.702 315.499 187.402 315.623 187.074C315.395 187.238 315.121 187.32 314.801 187.32C314.561 187.32 314.345 187.266 314.153 187.158C313.965 187.046 313.817 186.894 313.709 186.702C313.605 186.506 313.553 186.288 313.553 186.048C313.553 185.792 313.611 185.564 313.727 185.364C313.843 185.16 314.005 185.002 314.213 184.89C314.421 184.774 314.661 184.716 314.933 184.716ZM314.933 186.828C315.169 186.828 315.361 186.752 315.509 186.6C315.657 186.448 315.731 186.256 315.731 186.024C315.731 185.784 315.657 185.588 315.509 185.436C315.365 185.284 315.173 185.208 314.933 185.208C314.697 185.208 314.505 185.286 314.357 185.442C314.213 185.598 314.141 185.794 314.141 186.03C314.141 186.258 314.213 186.448 314.357 186.6C314.505 186.752 314.697 186.828 314.933 186.828Z" fill="black"/>
<path d="M54.9976 94.496C54.8216 94.64 54.6696 94.7467 54.5416 94.816C54.419 94.8853 54.2936 94.9413 54.1656 94.984L54.0376 94.272C54.2616 94.1973 54.483 94.08 54.7016 93.92C54.9256 93.7547 55.0963 93.5813 55.2136 93.4H55.7336V99H54.9976V94.496ZM60.783 96.904V97.552H60.063V99H59.295V97.552H56.535L59.511 93.4H60.063V96.904H60.783ZM59.295 96.904V94.816L57.807 96.904H59.295Z" fill="black"/>
<g filter="url(#filter1_dd)">
<path d="M75 167C75 165.343 76.3431 164 78 164H82C83.6569 164 85 165.343 85 167V297H75V167Z" fill="white"/>
<path d="M75.5 167C75.5 165.619 76.6193 164.5 78 164.5H82C83.3807 164.5 84.5 165.619 84.5 167V296.5H75.5V167Z" stroke="#276DF6"/>
</g>
<path d="M84 167C84 165.895 83.1046 165 82 165L78 165C76.8954 165 76 165.895 76 167L76 297L84 297L84 167Z" fill="#B6D7F4"/>
<g filter="url(#filter2_dd)">
<path d="M118 184C118 182.343 119.343 181 121 181H125C126.657 181 128 182.343 128 184V297H118V184Z" fill="white"/>
<path d="M118.5 184C118.5 182.619 119.619 181.5 121 181.5H125C126.381 181.5 127.5 182.619 127.5 184V296.5H118.5V184Z" stroke="#276DF6"/>
</g>
<path d="M127 184C127 182.895 126.105 182 125 182L121 182C119.895 182 119 182.895 119 184L119 297.363L127 297.363L127 184Z" fill="#B6D7F4"/>
<g filter="url(#filter3_dd)">
<path d="M161 184C161 182.343 162.343 181 164 181H168C169.657 181 171 182.343 171 184V297.021H161V184Z" fill="white"/>
<path d="M161.5 184C161.5 182.619 162.619 181.5 164 181.5H168C169.381 181.5 170.5 182.619 170.5 184V296.521H161.5V184Z" stroke="#276DF6"/>
</g>
<path d="M170 183.936C170 182.831 169.105 181.936 168 181.936L164 181.936C162.895 181.936 162 182.831 162 183.936L162 297.319L170 297.319L170 183.936Z" fill="#B6D7F4"/>
<g filter="url(#filter4_dd)">
<path d="M96.5 204.38C96.5 202.723 97.8431 201.38 99.5 201.38H103.5C105.157 201.38 106.5 202.723 106.5 204.38V296.517H96.5V204.38Z" fill="white"/>
<path d="M97 204.38C97 202.999 98.1193 201.88 99.5 201.88H103.5C104.881 201.88 106 202.999 106 204.38V296.017H97V204.38Z" stroke="#276DF6"/>
</g>
<path d="M105.5 204.385C105.5 203.281 104.605 202.385 103.5 202.385L99.5 202.385C98.3954 202.385 97.5 203.281 97.5 204.385L97.5 297L105.5 297L105.5 204.385Z" fill="#B6D7F4"/>
<g filter="url(#filter5_dd)">
<path d="M139.5 201C139.5 199.343 140.843 198 142.5 198H146.5C148.157 198 149.5 199.343 149.5 201V297H139.5V201Z" fill="white"/>
<path d="M140 201C140 199.619 141.119 198.5 142.5 198.5H146.5C147.881 198.5 149 199.619 149 201V296.5H140V201Z" stroke="#276DF6"/>
</g>
<path d="M148.5 201C148.5 199.895 147.605 199 146.5 199L142.5 199C141.395 199 140.5 199.895 140.5 201L140.5 297.456L148.5 297.456L148.5 201Z" fill="#B6D7F4"/>
<g filter="url(#filter6_dd)">
<path d="M182.5 131.5C182.5 129.843 183.843 128.5 185.5 128.5H189.5C191.157 128.5 192.5 129.843 192.5 131.5V297.5H182.5V131.5Z" fill="white"/>
<path d="M183 131.5C183 130.119 184.119 129 185.5 129H189.5C190.881 129 192 130.119 192 131.5V297H183V131.5Z" stroke="#276DF6"/>
</g>
<path d="M191.5 131.7C191.5 130.595 190.605 129.7 189.5 129.7L185.407 129.7C184.302 129.7 183.407 130.595 183.407 131.7L183.407 296.7L191.5 296.7L191.5 131.7Z" fill="#B6D7F4"/>
<g filter="url(#filter7_dd)">
<path d="M202 208C202 206.343 203.343 205 205 205H209C210.657 205 212 206.343 212 208V297H202V208Z" fill="white"/>
<path d="M202.5 208C202.5 206.619 203.619 205.5 205 205.5H209C210.381 205.5 211.5 206.619 211.5 208V296.5H202.5V208Z" stroke="#276DF6"/>
</g>
<path d="M211 208C211 206.895 210.105 206 209 206L205 206C203.895 206 203 206.895 203 208L203 297.495L211 297.495L211 208Z" fill="#B6D7F4"/>
<g filter="url(#filter8_dd)">
<path d="M245 158.5C245 156.843 246.343 155.5 248 155.5H252C253.657 155.5 255 156.843 255 158.5V297.477H245V158.5Z" fill="white"/>
<path d="M245.5 158.5C245.5 157.119 246.619 156 248 156H252C253.381 156 254.5 157.119 254.5 158.5V296.977H245.5V158.5Z" stroke="#276DF6"/>
</g>
<path d="M254 158C254 156.895 253.105 156 252 156L248 156C246.895 156 246 156.895 246 158L246 296.6L254 296.6L254 158Z" fill="#B6D7F4"/>
<g filter="url(#filter9_dd)">
<path d="M289 177C289 175.343 290.343 174 292 174H296C297.657 174 299 175.343 299 177V297H289V177Z" fill="white"/>
<path d="M289.5 177C289.5 175.619 290.619 174.5 292 174.5H296C297.381 174.5 298.5 175.619 298.5 177V296.5H289.5V177Z" stroke="#276DF6"/>
</g>
<path d="M298 177C298 175.895 297.105 175 296 175L292 175C290.895 175 290 175.895 290 177L290 297.324L298 297.324L298 177Z" fill="#B6D7F4"/>
<g filter="url(#filter10_dd)">
<path d="M223.5 225C223.5 223.343 224.843 222 226.5 222H230.5C232.157 222 233.5 223.343 233.5 225V297.062H223.5V225Z" fill="white"/>
<path d="M224 225C224 223.619 225.119 222.5 226.5 222.5H230.5C231.881 222.5 233 223.619 233 225V296.562H224V225Z" stroke="#276DF6"/>
</g>
<path d="M232.5 224.883C232.5 223.778 231.605 222.883 230.5 222.883L226.5 222.883C225.395 222.883 224.5 223.778 224.5 224.883L224.5 297.533L232.5 297.533L232.5 224.883Z" fill="#B6D7F4"/>
<g filter="url(#filter11_dd)">
<path d="M266.5 205.385C266.5 203.728 267.843 202.385 269.5 202.385H273.5C275.157 202.385 276.5 203.728 276.5 205.385V297H266.5V205.385Z" fill="white"/>
<path d="M267 205.385C267 204.004 268.119 202.885 269.5 202.885H273.5C274.881 202.885 276 204.004 276 205.385V296.5H267V205.385Z" stroke="#276DF6"/>
</g>
<path d="M275.5 205.38C275.5 204.275 274.605 203.38 273.5 203.38L269.5 203.38C268.395 203.38 267.5 204.275 267.5 205.38L267.5 297.476L275.5 297.476L275.5 205.38Z" fill="#B6D7F4"/>
<g filter="url(#filter12_dd)">
<path d="M310.5 195C310.5 193.343 311.843 192 313.5 192H317.5C319.157 192 320.5 193.343 320.5 195V297H310.5V195Z" fill="white"/>
<path d="M311 195C311 193.619 312.119 192.5 313.5 192.5H317.5C318.881 192.5 320 193.619 320 195V296.5H311V195Z" stroke="#276DF6"/>
</g>
<path d="M319.5 195C319.5 193.895 318.605 193 317.5 193L313.5 193C312.395 193 311.5 193.895 311.5 195L311.5 297.423L319.5 297.423L319.5 195Z" fill="#B6D7F4"/>
<path d="M67 46V297H324" stroke="#C8CCF8"/>
<defs>
<filter id="filter0_dd" x="0" y="0" width="359" height="364" filterUnits="userSpaceOnUse" color-interpolation-filters="sRGB">
<feFlood flood-opacity="0" result="BackgroundImageFix"/>
<feColorMatrix in="SourceAlpha" type="matrix" values="0 0 0 0 0 0 0 0 0 0 0 0 0 0 0 0 0 0 127 0"/>
<feOffset dx="5" dy="5"/>
<feGaussianBlur stdDeviation="7.5"/>
<feColorMatrix type="matrix" values="0 0 0 0 0.652778 0 0 0 0 0.706536 0 0 0 0 0.783333 0 0 0 0.4 0"/>
<feBlend mode="normal" in2="BackgroundImageFix" result="effect1_dropShadow"/>
<feColorMatrix in="SourceAlpha" type="matrix" values="0 0 0 0 0 0 0 0 0 0 0 0 0 0 0 0 0 0 127 0"/>
<feOffset dx="-6" dy="-6"/>
<feGaussianBlur stdDeviation="7.5"/>
<feColorMatrix type="matrix" values="0 0 0 0 1 0 0 0 0 1 0 0 0 0 1 0 0 0 0.4 0"/>
<feBlend mode="normal" in2="effect1_dropShadow" result="effect2_dropShadow"/>
<feBlend mode="normal" in="SourceGraphic" in2="effect2_dropShadow" result="shape"/>
</filter>
<filter id="filter1_dd" x="54" y="143" width="51" height="174" filterUnits="userSpaceOnUse" color-interpolation-filters="sRGB">
<feFlood flood-opacity="0" result="BackgroundImageFix"/>
<feColorMatrix in="SourceAlpha" type="matrix" values="0 0 0 0 0 0 0 0 0 0 0 0 0 0 0 0 0 0 127 0"/>
<feOffset dx="5" dy="5"/>
<feGaussianBlur stdDeviation="7.5"/>
<feColorMatrix type="matrix" values="0 0 0 0 0.652778 0 0 0 0 0.706536 0 0 0 0 0.783333 0 0 0 0.4 0"/>
<feBlend mode="normal" in2="BackgroundImageFix" result="effect1_dropShadow"/>
<feColorMatrix in="SourceAlpha" type="matrix" values="0 0 0 0 0 0 0 0 0 0 0 0 0 0 0 0 0 0 127 0"/>
<feOffset dx="-6" dy="-6"/>
<feGaussianBlur stdDeviation="7.5"/>
<feColorMatrix type="matrix" values="0 0 0 0 1 0 0 0 0 1 0 0 0 0 1 0 0 0 0.4 0"/>
<feBlend mode="normal" in2="effect1_dropShadow" result="effect2_dropShadow"/>
<feBlend mode="normal" in="SourceGraphic" in2="effect2_dropShadow" result="shape"/>
</filter>
<filter id="filter2_dd" x="97" y="160" width="51" height="157" filterUnits="userSpaceOnUse" color-interpolation-filters="sRGB">
<feFlood flood-opacity="0" result="BackgroundImageFix"/>
<feColorMatrix in="SourceAlpha" type="matrix" values="0 0 0 0 0 0 0 0 0 0 0 0 0 0 0 0 0 0 127 0"/>
<feOffset dx="5" dy="5"/>
<feGaussianBlur stdDeviation="7.5"/>
<feColorMatrix type="matrix" values="0 0 0 0 0.652778 0 0 0 0 0.706536 0 0 0 0 0.783333 0 0 0 0.4 0"/>
<feBlend mode="normal" in2="BackgroundImageFix" result="effect1_dropShadow"/>
<feColorMatrix in="SourceAlpha" type="matrix" values="0 0 0 0 0 0 0 0 0 0 0 0 0 0 0 0 0 0 127 0"/>
<feOffset dx="-6" dy="-6"/>
<feGaussianBlur stdDeviation="7.5"/>
<feColorMatrix type="matrix" values="0 0 0 0 1 0 0 0 0 1 0 0 0 0 1 0 0 0 0.4 0"/>
<feBlend mode="normal" in2="effect1_dropShadow" result="effect2_dropShadow"/>
<feBlend mode="normal" in="SourceGraphic" in2="effect2_dropShadow" result="shape"/>
</filter>
<filter id="filter3_dd" x="140" y="160" width="51" height="157.021" filterUnits="userSpaceOnUse" color-interpolation-filters="sRGB">
<feFlood flood-opacity="0" result="BackgroundImageFix"/>
<feColorMatrix in="SourceAlpha" type="matrix" values="0 0 0 0 0 0 0 0 0 0 0 0 0 0 0 0 0 0 127 0"/>
<feOffset dx="5" dy="5"/>
<feGaussianBlur stdDeviation="7.5"/>
<feColorMatrix type="matrix" values="0 0 0 0 0.652778 0 0 0 0 0.706536 0 0 0 0 0.783333 0 0 0 0.4 0"/>
<feBlend mode="normal" in2="BackgroundImageFix" result="effect1_dropShadow"/>
<feColorMatrix in="SourceAlpha" type="matrix" values="0 0 0 0 0 0 0 0 0 0 0 0 0 0 0 0 0 0 127 0"/>
<feOffset dx="-6" dy="-6"/>
<feGaussianBlur stdDeviation="7.5"/>
<feColorMatrix type="matrix" values="0 0 0 0 1 0 0 0 0 1 0 0 0 0 1 0 0 0 0.4 0"/>
<feBlend mode="normal" in2="effect1_dropShadow" result="effect2_dropShadow"/>
<feBlend mode="normal" in="SourceGraphic" in2="effect2_dropShadow" result="shape"/>
</filter>
<filter id="filter4_dd" x="75.5" y="180.38" width="51" height="136.137" filterUnits="userSpaceOnUse" color-interpolation-filters="sRGB">
<feFlood flood-opacity="0" result="BackgroundImageFix"/>
<feColorMatrix in="SourceAlpha" type="matrix" values="0 0 0 0 0 0 0 0 0 0 0 0 0 0 0 0 0 0 127 0"/>
<feOffset dx="5" dy="5"/>
<feGaussianBlur stdDeviation="7.5"/>
<feColorMatrix type="matrix" values="0 0 0 0 0.652778 0 0 0 0 0.706536 0 0 0 0 0.783333 0 0 0 0.4 0"/>
<feBlend mode="normal" in2="BackgroundImageFix" result="effect1_dropShadow"/>
<feColorMatrix in="SourceAlpha" type="matrix" values="0 0 0 0 0 0 0 0 0 0 0 0 0 0 0 0 0 0 127 0"/>
<feOffset dx="-6" dy="-6"/>
<feGaussianBlur stdDeviation="7.5"/>
<feColorMatrix type="matrix" values="0 0 0 0 1 0 0 0 0 1 0 0 0 0 1 0 0 0 0.4 0"/>
<feBlend mode="normal" in2="effect1_dropShadow" result="effect2_dropShadow"/>
<feBlend mode="normal" in="SourceGraphic" in2="effect2_dropShadow" result="shape"/>
</filter>
<filter id="filter5_dd" x="118.5" y="177" width="51" height="140" filterUnits="userSpaceOnUse" color-interpolation-filters="sRGB">
<feFlood flood-opacity="0" result="BackgroundImageFix"/>
<feColorMatrix in="SourceAlpha" type="matrix" values="0 0 0 0 0 0 0 0 0 0 0 0 0 0 0 0 0 0 127 0"/>
<feOffset dx="5" dy="5"/>
<feGaussianBlur stdDeviation="7.5"/>
<feColorMatrix type="matrix" values="0 0 0 0 0.652778 0 0 0 0 0.706536 0 0 0 0 0.783333 0 0 0 0.4 0"/>
<feBlend mode="normal" in2="BackgroundImageFix" result="effect1_dropShadow"/>
<feColorMatrix in="SourceAlpha" type="matrix" values="0 0 0 0 0 0 0 0 0 0 0 0 0 0 0 0 0 0 127 0"/>
<feOffset dx="-6" dy="-6"/>
<feGaussianBlur stdDeviation="7.5"/>
<feColorMatrix type="matrix" values="0 0 0 0 1 0 0 0 0 1 0 0 0 0 1 0 0 0 0.4 0"/>
<feBlend mode="normal" in2="effect1_dropShadow" result="effect2_dropShadow"/>
<feBlend mode="normal" in="SourceGraphic" in2="effect2_dropShadow" result="shape"/>
</filter>
<filter id="filter6_dd" x="161.5" y="107.5" width="51" height="210" filterUnits="userSpaceOnUse" color-interpolation-filters="sRGB">
<feFlood flood-opacity="0" result="BackgroundImageFix"/>
<feColorMatrix in="SourceAlpha" type="matrix" values="0 0 0 0 0 0 0 0 0 0 0 0 0 0 0 0 0 0 127 0"/>
<feOffset dx="5" dy="5"/>
<feGaussianBlur stdDeviation="7.5"/>
<feColorMatrix type="matrix" values="0 0 0 0 0.652778 0 0 0 0 0.706536 0 0 0 0 0.783333 0 0 0 0.4 0"/>
<feBlend mode="normal" in2="BackgroundImageFix" result="effect1_dropShadow"/>
<feColorMatrix in="SourceAlpha" type="matrix" values="0 0 0 0 0 0 0 0 0 0 0 0 0 0 0 0 0 0 127 0"/>
<feOffset dx="-6" dy="-6"/>
<feGaussianBlur stdDeviation="7.5"/>
<feColorMatrix type="matrix" values="0 0 0 0 1 0 0 0 0 1 0 0 0 0 1 0 0 0 0.4 0"/>
<feBlend mode="normal" in2="effect1_dropShadow" result="effect2_dropShadow"/>
<feBlend mode="normal" in="SourceGraphic" in2="effect2_dropShadow" result="shape"/>
</filter>
<filter id="filter7_dd" x="181" y="184" width="51" height="133" filterUnits="userSpaceOnUse" color-interpolation-filters="sRGB">
<feFlood flood-opacity="0" result="BackgroundImageFix"/>
<feColorMatrix in="SourceAlpha" type="matrix" values="0 0 0 0 0 0 0 0 0 0 0 0 0 0 0 0 0 0 127 0"/>
<feOffset dx="5" dy="5"/>
<feGaussianBlur stdDeviation="7.5"/>
<feColorMatrix type="matrix" values="0 0 0 0 0.652778 0 0 0 0 0.706536 0 0 0 0 0.783333 0 0 0 0.4 0"/>
<feBlend mode="normal" in2="BackgroundImageFix" result="effect1_dropShadow"/>
<feColorMatrix in="SourceAlpha" type="matrix" values="0 0 0 0 0 0 0 0 0 0 0 0 0 0 0 0 0 0 127 0"/>
<feOffset dx="-6" dy="-6"/>
<feGaussianBlur stdDeviation="7.5"/>
<feColorMatrix type="matrix" values="0 0 0 0 1 0 0 0 0 1 0 0 0 0 1 0 0 0 0.4 0"/>
<feBlend mode="normal" in2="effect1_dropShadow" result="effect2_dropShadow"/>
<feBlend mode="normal" in="SourceGraphic" in2="effect2_dropShadow" result="shape"/>
</filter>
<filter id="filter8_dd" x="224" y="134.5" width="51" height="182.977" filterUnits="userSpaceOnUse" color-interpolation-filters="sRGB">
<feFlood flood-opacity="0" result="BackgroundImageFix"/>
<feColorMatrix in="SourceAlpha" type="matrix" values="0 0 0 0 0 0 0 0 0 0 0 0 0 0 0 0 0 0 127 0"/>
<feOffset dx="5" dy="5"/>
<feGaussianBlur stdDeviation="7.5"/>
<feColorMatrix type="matrix" values="0 0 0 0 0.652778 0 0 0 0 0.706536 0 0 0 0 0.783333 0 0 0 0.4 0"/>
<feBlend mode="normal" in2="BackgroundImageFix" result="effect1_dropShadow"/>
<feColorMatrix in="SourceAlpha" type="matrix" values="0 0 0 0 0 0 0 0 0 0 0 0 0 0 0 0 0 0 127 0"/>
<feOffset dx="-6" dy="-6"/>
<feGaussianBlur stdDeviation="7.5"/>
<feColorMatrix type="matrix" values="0 0 0 0 1 0 0 0 0 1 0 0 0 0 1 0 0 0 0.4 0"/>
<feBlend mode="normal" in2="effect1_dropShadow" result="effect2_dropShadow"/>
<feBlend mode="normal" in="SourceGraphic" in2="effect2_dropShadow" result="shape"/>
</filter>
<filter id="filter9_dd" x="268" y="153" width="51" height="164" filterUnits="userSpaceOnUse" color-interpolation-filters="sRGB">
<feFlood flood-opacity="0" result="BackgroundImageFix"/>
<feColorMatrix in="SourceAlpha" type="matrix" values="0 0 0 0 0 0 0 0 0 0 0 0 0 0 0 0 0 0 127 0"/>
<feOffset dx="5" dy="5"/>
<feGaussianBlur stdDeviation="7.5"/>
<feColorMatrix type="matrix" values="0 0 0 0 0.652778 0 0 0 0 0.706536 0 0 0 0 0.783333 0 0 0 0.4 0"/>
<feBlend mode="normal" in2="BackgroundImageFix" result="effect1_dropShadow"/>
<feColorMatrix in="SourceAlpha" type="matrix" values="0 0 0 0 0 0 0 0 0 0 0 0 0 0 0 0 0 0 127 0"/>
<feOffset dx="-6" dy="-6"/>
<feGaussianBlur stdDeviation="7.5"/>
<feColorMatrix type="matrix" values="0 0 0 0 1 0 0 0 0 1 0 0 0 0 1 0 0 0 0.4 0"/>
<feBlend mode="normal" in2="effect1_dropShadow" result="effect2_dropShadow"/>
<feBlend mode="normal" in="SourceGraphic" in2="effect2_dropShadow" result="shape"/>
</filter>
<filter id="filter10_dd" x="202.5" y="201" width="51" height="116.062" filterUnits="userSpaceOnUse" color-interpolation-filters="sRGB">
<feFlood flood-opacity="0" result="BackgroundImageFix"/>
<feColorMatrix in="SourceAlpha" type="matrix" values="0 0 0 0 0 0 0 0 0 0 0 0 0 0 0 0 0 0 127 0"/>
<feOffset dx="5" dy="5"/>
<feGaussianBlur stdDeviation="7.5"/>
<feColorMatrix type="matrix" values="0 0 0 0 0.652778 0 0 0 0 0.706536 0 0 0 0 0.783333 0 0 0 0.4 0"/>
<feBlend mode="normal" in2="BackgroundImageFix" result="effect1_dropShadow"/>
<feColorMatrix in="SourceAlpha" type="matrix" values="0 0 0 0 0 0 0 0 0 0 0 0 0 0 0 0 0 0 127 0"/>
<feOffset dx="-6" dy="-6"/>
<feGaussianBlur stdDeviation="7.5"/>
<feColorMatrix type="matrix" values="0 0 0 0 1 0 0 0 0 1 0 0 0 0 1 0 0 0 0.4 0"/>
<feBlend mode="normal" in2="effect1_dropShadow" result="effect2_dropShadow"/>
<feBlend mode="normal" in="SourceGraphic" in2="effect2_dropShadow" result="shape"/>
</filter>
<filter id="filter11_dd" x="245.5" y="181.385" width="51" height="135.615" filterUnits="userSpaceOnUse" color-interpolation-filters="sRGB">
<feFlood flood-opacity="0" result="BackgroundImageFix"/>
<feColorMatrix in="SourceAlpha" type="matrix" values="0 0 0 0 0 0 0 0 0 0 0 0 0 0 0 0 0 0 127 0"/>
<feOffset dx="5" dy="5"/>
<feGaussianBlur stdDeviation="7.5"/>
<feColorMatrix type="matrix" values="0 0 0 0 0.652778 0 0 0 0 0.706536 0 0 0 0 0.783333 0 0 0 0.4 0"/>
<feBlend mode="normal" in2="BackgroundImageFix" result="effect1_dropShadow"/>
<feColorMatrix in="SourceAlpha" type="matrix" values="0 0 0 0 0 0 0 0 0 0 0 0 0 0 0 0 0 0 127 0"/>
<feOffset dx="-6" dy="-6"/>
<feGaussianBlur stdDeviation="7.5"/>
<feColorMatrix type="matrix" values="0 0 0 0 1 0 0 0 0 1 0 0 0 0 1 0 0 0 0.4 0"/>
<feBlend mode="normal" in2="effect1_dropShadow" result="effect2_dropShadow"/>
<feBlend mode="normal" in="SourceGraphic" in2="effect2_dropShadow" result="shape"/>
</filter>
<filter id="filter12_dd" x="289.5" y="171" width="51" height="146" filterUnits="userSpaceOnUse" color-interpolation-filters="sRGB">
<feFlood flood-opacity="0" result="BackgroundImageFix"/>
<feColorMatrix in="SourceAlpha" type="matrix" values="0 0 0 0 0 0 0 0 0 0 0 0 0 0 0 0 0 0 127 0"/>
<feOffset dx="5" dy="5"/>
<feGaussianBlur stdDeviation="7.5"/>
<feColorMatrix type="matrix" values="0 0 0 0 0.652778 0 0 0 0 0.706536 0 0 0 0 0.783333 0 0 0 0.4 0"/>
<feBlend mode="normal" in2="BackgroundImageFix" result="effect1_dropShadow"/>
<feColorMatrix in="SourceAlpha" type="matrix" values="0 0 0 0 0 0 0 0 0 0 0 0 0 0 0 0 0 0 127 0"/>
<feOffset dx="-6" dy="-6"/>
<feGaussianBlur stdDeviation="7.5"/>
<feColorMatrix type="matrix" values="0 0 0 0 1 0 0 0 0 1 0 0 0 0 1 0 0 0 0.4 0"/>
<feBlend mode="normal" in2="effect1_dropShadow" result="effect2_dropShadow"/>
<feBlend mode="normal" in="SourceGraphic" in2="effect2_dropShadow" result="shape"/>
</filter>
<linearGradient id="paint0_linear" x1="21" y1="21" x2="345.408" y2="337.43" gradientUnits="userSpaceOnUse">
<stop stop-color="#FEFEFF"/>
<stop offset="1" stop-color="#E1E7F0"/>
</linearGradient>
</defs>
</svg>
