<svg fill="none" height="29" viewBox="0 0 36 29" width="36" xmlns="http://www.w3.org/2000/svg"><path d="m19.8 15.8478h-.9v-4.8424c0-.2432-.2014-.4402-.45-.4402h-.7639c-.2666 0-.527.077-.7487.2218l-.8623.5623c-.0492.0321-.0914.0733-.1243.1213s-.0558.1019-.0674.1586c-.0116.0566-.0116.115-.0002.1717.0115.0567.0343.1106.067.1587l.4995.7324c.0328.0481.0749.0894.124.1216s.1041.0546.1621.0659c.0579.0114.1176.0115.1755.0002.058-.0112.1131-.0335.1623-.0655l.0264-.0171v3.0507h-.9c-.2486 0-.45.197-.45.4402v.8805c0 .2432.2014.4402.45.4402h3.6c.2486 0 .45-.197.45-.4402v-.8805c0-.2432-.2014-.4402-.45-.4402zm14.4-12.32607h-32.4c-.993938 0-1.8.78854-1.8 1.76087v17.6087c0 .9723.806062 1.7609 1.8 1.7609h32.4c.9939 0 1.8-.7886 1.8-1.7609v-17.6087c0-.97233-.8061-1.76087-1.8-1.76087zm-31.5 18.48917v-3.5218c1.98844 0 3.6 1.5765 3.6 3.5218zm0-12.32613v-3.52174h3.6c0 1.94521-1.61156 3.52174-3.6 3.52174zm15.3 10.56523c-2.9824 0-5.4-2.7596-5.4-6.1631 0-3.4039 2.4176-6.163 5.4-6.163s5.4 2.7591 5.4 6.163c0 3.4046-2.4188 6.1631-5.4 6.1631zm15.3 1.7609h-3.6c0-1.9453 1.6116-3.5218 3.6-3.5218zm0-12.32613c-1.9884 0-3.6-1.57653-3.6-3.52174h3.6z" fill="#000"/></svg>