<svg xmlns="http://www.w3.org/2000/svg" fill="none" viewBox="0 0 36 36"><defs/><g clip-path="url(#clip0)"><path fill="#000" d="M35.16 12.38h-4.21l-1.17-2.93a7.84 7.84 0 00-7.32-4.95h-8.92a7.84 7.84 0 00-7.32 4.95l-1.17 2.93H.85a.84.84 0 00-.82 1.04l.42 1.7c.1.37.43.63.82.63h1.4a4.47 4.47 0 00-1.55 3.38v3.37c0 1.13.44 2.16 1.13 2.95v3.8c0 1.24 1 2.25 2.25 2.25h2.25c1.24 0 2.25-1 2.25-2.25V27h18v2.25c0 1.24 1 2.25 2.25 2.25h2.25c1.24 0 2.25-1 2.25-2.25v-3.8c.7-.8 1.13-1.82 1.13-2.95v-3.38c0-1.35-.61-2.55-1.56-3.37h1.41c.4 0 .73-.26.82-.64l.42-1.69a.84.84 0 00-.81-1.04zM10.4 11.12A3.38 3.38 0 0113.54 9h8.92c1.39 0 2.63.84 3.14 2.12l1.4 3.5H9l1.4-3.5zM6.75 22.5c-1.35 0-2.25-.9-2.25-2.25 0-1.34.9-2.24 2.25-2.24s3.38 2.02 3.38 3.36c0 1.35-2.03 1.13-3.38 1.13zm22.5 0c-1.35 0-3.38.22-3.38-1.13 0-1.34 2.03-3.36 3.38-3.36s2.25.9 2.25 2.24c0 1.35-.9 2.25-2.25 2.25z"/></g><defs><clipPath id="clip0"><path fill="#fff" d="M0 0h36v36H0z"/></clipPath></defs></svg>