<svg xmlns="http://www.w3.org/2000/svg" fill="none" viewBox="0 0 27 36"><defs/><g clip-path="url(#clip0)"><path fill="#000" d="M25.2.22l-2.7 3.15L18.68.22a1.12 1.12 0 00-1.36 0L13.5 3.37 9.68.22a1.12 1.12 0 00-1.36 0L4.5 3.37 1.8.22a1.12 1.12 0 00-1.8.9v33.75c0 .93 1.05 1.46 1.8.9l2.7-3.15 3.82 3.15a1.12 1.12 0 001.36 0l3.82-3.15 3.82 3.15a1.12 1.12 0 001.36 0l3.82-3.15 2.7 3.15c.74.56 1.8.03 1.8-.9V1.12c0-.92-1.05-1.45-1.8-.9zm-2.7 25.1c0 .3-.25.55-.56.55H5.06a.56.56 0 01-.56-.56V24.2c0-.31.25-.57.56-.57h16.88c.3 0 .56.26.56.57v1.12zm0-6.76c0 .31-.25.56-.56.56H5.06a.56.56 0 01-.56-.56v-1.12c0-.31.25-.57.56-.57h16.88c.3 0 .56.26.56.57v1.12zm0-6.75c0 .31-.25.56-.56.56H5.06a.56.56 0 01-.56-.56V10.7c0-.31.25-.57.56-.57h16.88c.3 0 .56.26.56.57v1.12z"/></g><defs><clipPath id="clip0"><path fill="#fff" d="M0 0h27v36H0z"/></clipPath></defs></svg>