<svg xmlns="http://www.w3.org/2000/svg" fill="none" viewBox="0 0 36 28"><defs/><g clip-path="url(#clip0)"><path fill="#000" d="M14.18 13.3A7.25 7.25 0 0116.92 10a7.56 7.56 0 014.18-1.24h2.16a3.12 3.12 0 00-1.85-2l-.26-.61-1-2.69A5.5 5.5 0 0018.07.94 5.74 5.74 0 0014.9 0H8.5C7.37 0 6.26.32 5.33.94a5.5 5.5 0 00-2.08 2.51l-1 2.69-.26.62C1.4 6.99.9 7.4.55 7.9A3.08 3.08 0 000 9.65v1.57a3.05 3.05 0 001.21 2.43v2.1c0 .46.19.9.53 1.24.34.33.8.51 1.27.51h1.24c.48 0 .94-.18 1.27-.51.34-.33.53-.78.53-1.24V14h7.87l.26-.7zM6.25 5.03A2.42 2.42 0 018.5 3.5h6.4c1 0 1.88.6 2.25 1.53L17.83 7H5.57l.68-1.97zM4.28 11.8c-.82 0-1.36-.52-1.36-1.3 0-.79.54-1.31 1.36-1.31.8 0 2.02 1.17 2.02 1.96s-1.21.65-2.02.65zM34 17.26l-.26-.62-1-2.69a5.5 5.5 0 00-2.08-2.51 5.74 5.74 0 00-3.17-.94h-6.4c-1.13 0-2.24.32-3.17.94a5.5 5.5 0 00-2.08 2.51l-1 2.69-.26.62c-.59.23-1.09.64-1.44 1.15a3.08 3.08 0 00-.55 1.75v1.56a3.05 3.05 0 001.21 2.44v2.09c0 .46.2.9.53 1.24.34.33.8.51 1.27.51h1.24c.48 0 .94-.18 1.28-.51.33-.33.52-.78.52-1.24V24.5h11.3v1.75c0 .46.19.9.53 1.24.33.33.8.51 1.27.51h1.24c.48 0 .93-.18 1.27-.51.34-.33.53-.78.53-1.24v-2.1A3.13 3.13 0 0036 21.73v-1.57c0-.62-.19-1.22-.54-1.74A3.21 3.21 0 0034 17.26zm-15.16-1.73A2.42 2.42 0 0121.1 14h6.4c1 0 1.88.6 2.25 1.53l.68 1.97H18.17l.68-1.97zm-1.98 6.77c-.8 0-1.35-.52-1.35-1.3 0-.79.55-1.31 1.36-1.31.8 0 2.02 1.17 2.02 1.96s-1.21.65-2.02.65zm14.86 0c-.82 0-2.03.13-2.03-.65 0-.79 1.21-1.96 2.03-1.96.8 0 1.35.52 1.35 1.3 0 .79-.55 1.31-1.35 1.31z"/></g><defs><clipPath id="clip0"><path fill="#fff" d="M0 0h36v28H0z"/></clipPath></defs></svg>