<svg xmlns="http://www.w3.org/2000/svg" viewBox="0 0 40.74 25.92"><title>avg_per_ride</title><g id="Layer_2" data-name="Layer 2"><g id="Layer_1-2" data-name="Layer 1"><path d="M15.53,15.71a4,4,0,0,1,1.75-1.4l.31-.75,1.22-3.25a6.59,6.59,0,0,1,2.51-3,6.86,6.86,0,0,1,3.84-1.14H28.5V1.39A1.41,1.41,0,0,0,27.08,0H1.43A1.41,1.41,0,0,0,0,1.39V15.33a1.42,1.42,0,0,0,1.43,1.4H15A3.69,3.69,0,0,1,15.53,15.71ZM26.36,2.09V4.88a2.82,2.82,0,0,1-2.85-2.79ZM2.14,14.64V11.85A2.82,2.82,0,0,1,5,14.64Zm0-9.76V2.09H5A2.82,2.82,0,0,1,2.14,4.88ZM10,8.36c0-2.69,1.91-4.87,4.27-4.87s4.28,2.18,4.28,4.87-1.92,4.88-4.28,4.88S10,11.06,10,8.36Z"/><path d="M16,10.8v-.69a.35.35,0,0,0-.36-.35H15V5.92a.35.35,0,0,0-.35-.34H14a1.1,1.1,0,0,0-.59.17l-.68.45a.22.22,0,0,0-.1.09.31.31,0,0,0-.06.13v.13a.31.31,0,0,0,.06.13l.39.58.1.1.13,0h.14l.13,0,0,0V9.76h-.71a.35.35,0,0,0-.36.35v.69a.35.35,0,0,0,.36.35h2.84A.35.35,0,0,0,16,10.8Z"/><path d="M40.2,16.33a3.24,3.24,0,0,0-1.45-1.16l-.26-.62-1-2.68a5.47,5.47,0,0,0-2.08-2.51,5.64,5.64,0,0,0-3.17-.94h-6.4a5.64,5.64,0,0,0-3.17.94,5.47,5.47,0,0,0-2.08,2.51l-1,2.68-.26.62a3.16,3.16,0,0,0-1.44,1.16,3,3,0,0,0-.55,1.74v1.57A3,3,0,0,0,17.66,21a3.21,3.21,0,0,0,.89,1.08v2.1a1.7,1.7,0,0,0,.53,1.23,1.84,1.84,0,0,0,1.27.52h1.24a1.84,1.84,0,0,0,1.28-.52,1.73,1.73,0,0,0,.52-1.23V22.42h11.3v1.75a1.7,1.7,0,0,0,.53,1.23,1.8,1.8,0,0,0,1.27.52h1.24A1.8,1.8,0,0,0,39,25.4a1.7,1.7,0,0,0,.53-1.23v-2.1A3.09,3.09,0,0,0,40.42,21a3,3,0,0,0,.32-1.35V18.07A3.08,3.08,0,0,0,40.2,16.33ZM23.59,13.45a2.42,2.42,0,0,1,2.25-1.53h6.4a2.42,2.42,0,0,1,2.25,1.53l.68,2H22.91Zm-2,6.77a1.31,1.31,0,1,1,0-2.62,2.56,2.56,0,0,1,2,2C23.64,20.35,22.43,20.22,21.62,20.22Zm14.85,0c-.81,0-2,.13-2-.66a2.57,2.57,0,0,1,2-2,1.31,1.31,0,1,1,0,2.62Z"/></g></g></svg>