<svg xmlns="http://www.w3.org/2000/svg" fill="none" viewBox="0 0 36 29"><defs/><g clip-path="url(#clip0)"><path fill="#000" d="M12.01 25.6a4.97 4.97 0 01-1.21-3.26v-1.6a5.01 5.01 0 012.37-4.28l.42-1.16h-1.21a.68.68 0 01-.68-.68v-2.24a.68.68 0 01.68-.68h2.24a.66.66 0 01.54.28 7.37 7.37 0 014.64-2.86V1.8A1.8 1.8 0 0018 0H1.8A1.8 1.8 0 000 1.8v26.1a.9.9 0 00.9.9h11.53a3.37 3.37 0 01-.42-1.61v-1.6zM11.7 5.17a.67.67 0 01.68-.67h2.24a.68.68 0 01.68.67v2.25a.67.67 0 01-.68.68h-2.24a.68.68 0 01-.68-.67V5.17zM8.1 21.84a.68.68 0 01-.67.67H5.17a.67.67 0 01-.68-.68v-2.25a.68.68 0 01.67-.67h2.25a.67.67 0 01.68.68v2.25zm0-7.2a.68.68 0 01-.67.67H5.17a.67.67 0 01-.68-.68v-2.24a.68.68 0 01.67-.68h2.25a.67.67 0 01.68.68v2.24zm0-7.2a.68.68 0 01-.67.67H5.17a.68.68 0 01-.68-.67V5.17a.68.68 0 01.67-.68h2.25a.68.68 0 01.68.67v2.25zM34 17.75l-.25-.64-1-2.76a5.62 5.62 0 00-5.25-3.55h-6.4a5.62 5.62 0 00-5.25 3.55l-1 2.76-.26.64a3.23 3.23 0 00-1.99 2.98v1.61a3.2 3.2 0 001.21 2.5v2.35a1.61 1.61 0 001.61 1.61h1.62a1.61 1.61 0 001.61-1.61V25.2h11.3v1.99a1.61 1.61 0 001.61 1.61h1.62a1.61 1.61 0 001.6-1.61v-2.34a3.2 3.2 0 001.22-2.5v-1.62a3.23 3.23 0 00-2-2.98zm-15.15-1.78a2.42 2.42 0 012.25-1.57h6.4c1 0 1.88.62 2.25 1.57l.68 2.03H18.17l.68-2.03zm-1.98 6.97c-.8 0-1.35-.54-1.35-1.34 0-.81.55-1.35 1.36-1.35.8 0 2.02 1.21 2.02 2.02 0 .8-1.21.67-2.02.67zm14.86 0c-.82 0-2.03.14-2.03-.67s1.21-2.02 2.03-2.02c.8 0 1.35.54 1.35 1.35 0 .8-.55 1.34-1.35 1.34z"/></g><defs><clipPath id="clip0"><path fill="#fff" d="M0 0h36v28.8H0z"/></clipPath></defs></svg>