<svg xmlns="http://www.w3.org/2000/svg" fill="none" viewBox="0 0 36 36"><defs/><path fill="#000" d="M29.25 22.5H22.5a2.26 2.26 0 01-2.25-2.25A2.26 2.26 0 0122.5 18h6.75S36 10.48 36 6.75a6.75 6.75 0 00-13.5 0c0 1.8 1.56 4.46 3.19 6.75H22.5a6.76 6.76 0 000 13.5h6.75a2.26 2.26 0 012.25 2.25 2.26 2.26 0 01-2.25 2.25h-16.2A48.54 48.54 0 019.71 36h19.53a6.76 6.76 0 000-13.5zm0-18a2.25 2.25 0 110 4.5 2.25 2.25 0 010-4.5zM6.75 18A6.75 6.75 0 000 24.75C0 28.48 6.75 36 6.75 36s6.75-7.52 6.75-11.25A6.75 6.75 0 006.75 18zm0 9a2.25 2.25 0 110-4.5 2.25 2.25 0 010 4.5z"/></svg>