<svg width="68" height="81" viewBox="0 0 68 81" fill="none" xmlns="http://www.w3.org/2000/svg">
<g filter="url(#filter0_dd)">
<rect x="8" y="21" width="40" height="40" rx="8" fill="white"/>
<rect x="8.25" y="21.25" width="39.5" height="39.5" rx="7.75" stroke="url(#paint0_linear)" stroke-width="0.5"/>
</g>
<path fill-rule="evenodd" clip-rule="evenodd" d="M28 27C36.2843 27 43 32.5283 43 39.3479C43 42.7443 41.3342 45.8204 38.6385 48.0528L38.64 48.0436C38.2599 50.0519 38.686 51.4227 39.9181 52.156C41.7664 53.256 42.3103 53.3275 41.5633 53.6937C40.8173 54.0594 36.0769 54.7281 32.3891 51.1585C31.001 51.5079 29.5272 51.6957 28 51.6957C19.7157 51.6957 13 46.1674 13 39.3479C13 32.5283 19.7157 27 28 27Z" fill="#FF00BF"/>
<path d="M18.77 36H20.05V38.77H23.25V36H24.53V43H23.25V39.97H20.05V43H18.77V36ZM28.158 43.1C27.578 43.1 27.0813 42.9833 26.668 42.75C26.2613 42.51 25.9546 42.1933 25.748 41.8C25.548 41.4 25.448 40.9567 25.448 40.47C25.448 40.0033 25.5446 39.5767 25.738 39.19C25.9313 38.8033 26.2113 38.4967 26.578 38.27C26.9446 38.0367 27.3813 37.92 27.888 37.92C28.3546 37.92 28.748 38.0167 29.068 38.21C29.3946 38.4033 29.638 38.6633 29.798 38.99C29.9646 39.3167 30.048 39.6833 30.048 40.09C30.048 40.29 30.0213 40.5167 29.968 40.77H26.738C26.8046 41.21 26.978 41.54 27.258 41.76C27.538 41.9733 27.8746 42.08 28.268 42.08C28.808 42.08 29.308 41.9433 29.768 41.67L29.828 42.72C29.6146 42.8333 29.3646 42.9267 29.078 43C28.798 43.0667 28.4913 43.1 28.158 43.1ZM28.788 39.93C28.788 39.67 28.7146 39.44 28.568 39.24C28.4213 39.04 28.1946 38.94 27.888 38.94C27.5813 38.94 27.3346 39.03 27.148 39.21C26.9613 39.39 26.8346 39.63 26.768 39.93H28.788ZM32.1745 43.1C31.7478 43.1 31.4278 42.98 31.2145 42.74C31.0011 42.4933 30.8945 42.1767 30.8945 41.79V35.5H32.1345V41.28C32.1345 41.5467 32.1478 41.7367 32.1745 41.85C32.2078 41.9567 32.2611 42.0233 32.3345 42.05C32.4145 42.07 32.5478 42.08 32.7345 42.08L32.6245 43.1H32.1745ZM36.1314 37.92C36.6047 37.92 37.0114 38.0367 37.3514 38.27C37.6914 38.5033 37.9481 38.8167 38.1214 39.21C38.2947 39.6033 38.3814 40.0367 38.3814 40.51C38.3814 40.9833 38.2947 41.4167 38.1214 41.81C37.9481 42.2033 37.6914 42.5167 37.3514 42.75C37.0114 42.9833 36.6047 43.1 36.1314 43.1C35.8314 43.1 35.5747 43.0667 35.3614 43C35.1547 42.94 34.9547 42.84 34.7614 42.7V45.42H33.5214V38H34.5214L34.6514 38.46C34.8647 38.28 35.0881 38.1467 35.3214 38.06C35.5547 37.9667 35.8247 37.92 36.1314 37.92ZM35.9414 42.08C36.3081 42.08 36.5947 41.9367 36.8014 41.65C37.0081 41.3633 37.1114 40.9833 37.1114 40.51C37.1114 40.0367 37.0081 39.6567 36.8014 39.37C36.5947 39.0833 36.3081 38.94 35.9414 38.94C35.5281 38.94 35.2181 39.08 35.0114 39.36C34.8047 39.64 34.7014 40.0233 34.7014 40.51C34.7014 40.9967 34.8047 41.38 35.0114 41.66C35.2181 41.94 35.5281 42.08 35.9414 42.08Z" fill="white"/>
<defs>
<filter id="filter0_dd" x="-13" y="0" width="81" height="81" filterUnits="userSpaceOnUse" color-interpolation-filters="sRGB">
<feFlood flood-opacity="0" result="BackgroundImageFix"/>
<feColorMatrix in="SourceAlpha" type="matrix" values="0 0 0 0 0 0 0 0 0 0 0 0 0 0 0 0 0 0 127 0"/>
<feOffset dx="5" dy="5"/>
<feGaussianBlur stdDeviation="7.5"/>
<feColorMatrix type="matrix" values="0 0 0 0 0.652778 0 0 0 0 0.706536 0 0 0 0 0.783333 0 0 0 0.4 0"/>
<feBlend mode="normal" in2="BackgroundImageFix" result="effect1_dropShadow"/>
<feColorMatrix in="SourceAlpha" type="matrix" values="0 0 0 0 0 0 0 0 0 0 0 0 0 0 0 0 0 0 127 0"/>
<feOffset dx="-6" dy="-6"/>
<feGaussianBlur stdDeviation="7.5"/>
<feColorMatrix type="matrix" values="0 0 0 0 1 0 0 0 0 1 0 0 0 0 1 0 0 0 0.4 0"/>
<feBlend mode="normal" in2="effect1_dropShadow" result="effect2_dropShadow"/>
<feBlend mode="normal" in="SourceGraphic" in2="effect2_dropShadow" result="shape"/>
</filter>
<linearGradient id="paint0_linear" x1="8" y1="21" x2="48.1851" y2="60.8131" gradientUnits="userSpaceOnUse">
<stop stop-color="#FEFEFF"/>
<stop offset="1" stop-color="#E1E7F0"/>
</linearGradient>
</defs>
</svg>
