<svg width="16" height="16" viewBox="0 0 16 16" fill="none" xmlns="http://www.w3.org/2000/svg">
<path d="M8 7.65244C8.48659 7.65244 8.83113 7.98489 8.95504 8.31735L9.10314 8.71024L8.94296 9.07897C8.83717 9.32075 8.6377 9.51719 8.39592 9.61693L8.01511 9.77409L7.63128 9.62298C7.38043 9.52324 7.17491 9.32678 7.06611 9.08198L6.90291 8.70419L7.04798 8.31432C7.19607 7.91236 7.57083 7.65244 8 7.65244ZM8 0C5.67586 0 3.58444 0.991317 2.12467 2.575V1.50209H0V6.18059H4.6785V4.05593H3.23687C4.37325 2.68683 6.08689 1.81337 8 1.81337C11.3034 1.81337 14.0053 4.42162 14.1685 7.68267H10.6536C10.2516 6.60674 9.21798 5.83907 8 5.83907C6.78202 5.83907 5.74839 6.60674 5.34643 7.68267H0.00604472C0.00302243 7.78845 0 7.89423 0 8.00001C0 12.4156 3.58141 15.997 8 15.997C12.4186 15.997 16 12.4156 16 8.00001C16 3.58142 12.4186 0 8 0ZM9.08802 14.0839V11.2943C9.76502 11.0132 10.309 10.4783 10.6022 9.80733H13.9146C13.2437 11.9985 11.3819 13.6728 9.08802 14.0839ZM6.96638 14.0899C4.64828 13.697 2.76237 12.0166 2.08538 9.80733H5.40083C5.70004 10.4964 6.26521 11.0404 6.96638 11.3155V14.0899Z" fill="black"/>
</svg>
