<svg width="16" height="16" viewBox="0 0 16 16" fill="none" xmlns="http://www.w3.org/2000/svg">
<path d="M8 0C3.58213 0 0 3.58213 0 8C0 12.4179 3.58213 16 8 16C12.4179 16 16 12.4179 16 8C16 3.58213 12.4179 0 8 0ZM5.57608 6.73162L1.63923 6.03831C2.47766 3.32149 5.01176 1.34363 8 1.34363C10.9802 1.34363 13.5089 3.31341 14.3554 6.01949L10.4132 6.71548C9.95364 5.85287 9.04535 5.26707 8 5.26707C6.94659 5.26438 6.03561 5.86094 5.57608 6.73162ZM8 9.39202C7.23144 9.39202 6.608 8.76856 6.608 8C6.608 7.23144 7.23144 6.60801 8 6.60801C8.76856 6.60801 9.39201 7.23144 9.39201 8C9.39201 8.76856 8.76856 9.39202 8 9.39202ZM8.78737 14.608V10.6201C9.83003 10.3057 10.612 9.38663 10.7222 8.27142L14.6429 7.5808C14.651 7.72054 14.6564 7.86027 14.6564 8.00269C14.6564 11.4048 12.0873 14.2156 8.78737 14.608ZM7.20188 14.608C3.90729 14.2103 1.34363 11.3994 1.34363 8C1.34363 7.86564 1.34901 7.73128 1.35707 7.5996L5.28048 8.29025C5.39604 9.39471 6.16997 10.303 7.20188 10.6174V14.608Z" fill="black"/>
</svg>
