<svg width="36" height="28" viewBox="0 0 36 28" fill="none" xmlns="http://www.w3.org/2000/svg">
<g clip-path="url(#clip0)">
<path d="M14.1823 13.3012C14.731 11.9547 15.6844 10.8003 16.9179 9.98838C18.1515 9.17646 19.608 8.74475 21.0977 8.74954H23.2582C23.1202 8.30515 22.8827 7.89598 22.5627 7.55142C22.2428 7.20686 21.8483 6.93547 21.4076 6.75673L21.15 6.13548L20.1465 3.45142C19.7304 2.4303 19.0075 1.55477 18.0721 0.939022C17.1366 0.323272 16.032 -0.00412088 14.9023 -0.000457877H8.49769C7.368 -0.00412088 6.26339 0.323272 5.32792 0.939022C4.39246 1.55477 3.66956 2.4303 3.2535 3.45142L2.25 6.13548L1.99406 6.75673C1.40423 6.99398 0.899987 7.3959 0.545058 7.91171C0.19013 8.42751 0.000452052 9.03403 0 9.65462L0 11.2236C0.00127814 11.6912 0.110742 12.1525 0.320284 12.5734C0.529825 12.9943 0.834076 13.364 1.2105 13.655V15.7495C1.2105 16.2137 1.40014 16.6588 1.73771 16.987C2.07527 17.3152 2.53311 17.4995 3.0105 17.4995H4.25194C4.72933 17.4995 5.18716 17.3152 5.52473 16.987C5.86229 16.6588 6.05194 16.2137 6.05194 15.7495V13.9995H13.9202L14.1823 13.3012ZM6.24994 5.03079C6.61725 4.10548 7.50769 3.49954 8.49994 3.49954H14.9023C15.8923 3.49954 16.7822 4.10657 17.1523 5.03079L17.8312 6.99954H5.56875L6.24994 5.03079ZM4.275 11.8038C3.465 11.8038 2.925 11.2805 2.925 10.4957C2.925 9.71095 3.465 9.18704 4.275 9.18704C5.085 9.18704 6.3 10.3645 6.3 11.1498C6.3 11.9351 5.085 11.8038 4.275 11.8038ZM34.0076 17.2567L33.75 16.6355L32.7448 13.9514C32.3289 12.9306 31.6062 12.0552 30.6711 11.4395C29.736 10.8238 28.6317 10.4962 27.5023 10.4995H21.0977C19.968 10.4959 18.8634 10.8233 17.9279 11.439C16.9925 12.0548 16.2696 12.9303 15.8535 13.9514L14.85 16.6355L14.5941 17.2567C14.0045 17.4943 13.5005 17.8964 13.1459 18.4123C12.7913 18.9282 12.6019 19.5347 12.6017 20.1552V21.7242C12.603 22.1917 12.7124 22.6531 12.922 23.074C13.1315 23.4948 13.4358 23.8645 13.8122 24.1556V26.2495C13.8122 26.7137 14.0018 27.1588 14.3394 27.487C14.677 27.8152 15.1348 27.9995 15.6122 27.9995H16.8536C17.331 27.9995 17.7889 27.8152 18.1264 27.487C18.464 27.1588 18.6536 26.7137 18.6536 26.2495V24.4995H29.9481V26.2495C29.9481 26.7137 30.1377 27.1588 30.4753 27.487C30.8128 27.8152 31.2707 27.9995 31.7481 27.9995H32.9895C33.4669 27.9995 33.9247 27.8152 34.2623 27.487C34.5999 27.1588 34.7895 26.7137 34.7895 26.2495V24.155C35.1659 23.864 35.4702 23.4943 35.6797 23.0734C35.8893 22.6525 35.9987 22.1912 36 21.7236V20.1546C35.9997 19.5342 35.8103 18.9278 35.4556 18.412C35.101 17.8963 34.5971 17.4942 34.0076 17.2567ZM18.8499 15.5308C19.2172 14.6055 20.1077 13.9995 21.0999 13.9995H27.5023C28.4923 13.9995 29.3822 14.6066 29.7523 15.5308L30.4312 17.4995H18.1687L18.8499 15.5308ZM16.875 22.3038C16.065 22.3038 15.525 21.7805 15.525 20.9952C15.525 20.2099 16.065 19.687 16.875 19.687C17.685 19.687 18.9 20.8645 18.9 21.6498C18.9 22.4351 17.685 22.3038 16.875 22.3038ZM31.725 22.3038C30.915 22.3038 29.7 22.4345 29.7 21.6476C29.7 20.8606 30.915 19.687 31.725 19.687C32.535 19.687 33.075 20.2104 33.075 20.9952C33.075 21.7799 32.535 22.3038 31.725 22.3038Z" fill="black"/>
</g>
<defs>
<clipPath id="clip0">
<rect width="36" height="28" fill="white"/>
</clipPath>
</defs>
</svg>
